ISO-10303-21;
HEADER;
/* Allegro_CT100_DFN-6-1EP_1.5x1.5mm_P0.5mm_EP1.2x0.7mm.step 3D STEP model for use in ECAD systems
 * Copyright (C) 2025, KiCAD
 *
 * This work is licensed under the
 * [Creative Commons CC-BY-SA 4.0 License](https://creativecommons.org/licenses/by-sa/4.0/legalcode),
 * with the following exception:
 *
 * To the extent that the creation of electronic designs that use 'Licensed Material' can be
 * considered to be 'Adapted Material', then the copyright holder waives article 3 of the license
 * with respect to these designs and any generated files which use data provided as part of the
 * 'Licensed Material'.
 *
 * You are free to use the library data in your own projects without the obligation to share your
 * project files under this or any other license agreement. However, if you wish to distribute
 * these libraries, or parts thereof (including in modified form) as a collection then the exception
 * above does not apply. Please refer to
 * https://gitlab.com/kicad/libraries/kicad-packages3D/-/blob/master/LICENSE.md for further clarification
 * of the exception.
 *
 * Disclaimer of Warranties and Limitation of Liability.
 * These libraries are provided in the hope that they will be useful, but are provided without warranty of any kind, express or implied.
 * USE 3D CAD DATA AT YOUR OWN RISK
 * DO NOT RELY UPON ANY INFORMATION FOUND HERE WITHOUT INDEPENDENT VERIFICATION.
 */

FILE_DESCRIPTION(
/* description */ ('model of Allegro_CT100_DFN-6-1EP_1.5x1.5mm_P0.5mm_EP1.2x0.7mm'),
/* implementation_level */ '2;1');

FILE_NAME(
/* name */ 'Allegro_CT100_DFN-6-1EP_1.5x1.5mm_P0.5mm_EP1.2x0.7mm.step',
/* time_stamp */ '1970-01-01T00:00:00',
/* author */ ('KiCAD','kicad'),
/* organization */ ('OCCT'),
/* preprocessor_version */ '',
/* originating_system */ 'KiCAD',
/* authorisation */ '');

FILE_SCHEMA(('AUTOMOTIVE_DESIGN { 1 0 10303 214 1 1 1 1 }'));
ENDSEC;

DATA;
#1=APPLICATION_PROTOCOL_DEFINITION('international standard','automotive_design',2000,#2);
#2=APPLICATION_CONTEXT('core data for automotive mechanical design processes');
#3=SHAPE_DEFINITION_REPRESENTATION(#4,#10);
#4=PRODUCT_DEFINITION_SHAPE('','',#5);
#5=PRODUCT_DEFINITION('design','',#6,#9);
#6=PRODUCT_DEFINITION_FORMATION('','',#7);
#7=PRODUCT('Allegro_CT100_DFN-6-1EP_1.5x1.5mm_P0.5mm_EP1.2x0.7mm','Allegro_CT100_DFN-6-1EP_1.5x1.5mm_P0.5mm_EP1.2x0.7mm','',(#8));
#8=PRODUCT_CONTEXT('',#2,'mechanical');
#9=PRODUCT_DEFINITION_CONTEXT('part definition',#2,'design');
#10=ADVANCED_BREP_SHAPE_REPRESENTATION('',(#11,#15),#505);
#11=AXIS2_PLACEMENT_3D('',#12,#13,#14);
#12=CARTESIAN_POINT('',(0.,0.,0.));
#13=DIRECTION('',(0.,0.,1.));
#14=DIRECTION('',(1.,0.,-0.));
#15=MANIFOLD_SOLID_BREP('',#16);
#16=CLOSED_SHELL('',(#17,#105,#133,#147,#228,#236,#244,#311,#319,#329,#375,#381,#390,#398,#409,#421,#448,#456,#467,#475,#483,#491,#498));
#17=ADVANCED_FACE('',(#18),#102,.F.);
#18=FACE_BOUND('',#19,.F.);
#19=EDGE_LOOP('',(#20,#29,#35,#40,#45,#52,#57,#61,#66,#71,#76,#80,#85,#90,#95,#99));
#20=ORIENTED_EDGE('',*,*,#21,.F.);
#21=EDGE_CURVE('',#22,#24,#26,.T.);
#22=VERTEX_POINT('',#23);
#23=CARTESIAN_POINT('',(-0.75,-0.75,0.5));
#24=VERTEX_POINT('',#25);
#25=CARTESIAN_POINT('',(-0.75,0.75,0.5));
#26=LINE('',#23,#27);
#27=VECTOR('',#28,1.);
#28=DIRECTION('',(0.,1.,0.));
#29=ORIENTED_EDGE('',*,*,#30,.F.);
#30=EDGE_CURVE('',#31,#22,#33,.T.);
#31=VERTEX_POINT('',#32);
#32=CARTESIAN_POINT('',(-0.75,-0.75,0.));
#33=LINE('',#32,#34);
#34=VECTOR('',#13,1.);
#35=ORIENTED_EDGE('',*,*,#36,.T.);
#36=EDGE_CURVE('',#31,#37,#39,.T.);
#37=VERTEX_POINT('',#38);
#38=CARTESIAN_POINT('',(-0.75,-0.6,0.));
#39=LINE('',#32,#27);
#40=ORIENTED_EDGE('',*,*,#41,.T.);
#41=EDGE_CURVE('',#37,#42,#44,.T.);
#42=VERTEX_POINT('',#43);
#43=CARTESIAN_POINT('',(-0.75,-0.6,0.15));
#44=LINE('',#38,#34);
#45=ORIENTED_EDGE('',*,*,#46,.T.);
#46=EDGE_CURVE('',#42,#47,#49,.T.);
#47=VERTEX_POINT('',#48);
#48=CARTESIAN_POINT('',(-0.75,-0.4,0.15));
#49=LINE('',#43,#50);
#50=VECTOR('',#51,1.);
#51=DIRECTION('',(1.110223024625E-16,1.,0.));
#52=ORIENTED_EDGE('',*,*,#53,.F.);
#53=EDGE_CURVE('',#54,#47,#56,.T.);
#54=VERTEX_POINT('',#55);
#55=CARTESIAN_POINT('',(-0.75,-0.4,0.));
#56=LINE('',#55,#34);
#57=ORIENTED_EDGE('',*,*,#58,.T.);
#58=EDGE_CURVE('',#54,#59,#39,.T.);
#59=VERTEX_POINT('',#60);
#60=CARTESIAN_POINT('',(-0.75,-1.E-01,0.));
#61=ORIENTED_EDGE('',*,*,#62,.T.);
#62=EDGE_CURVE('',#59,#63,#65,.T.);
#63=VERTEX_POINT('',#64);
#64=CARTESIAN_POINT('',(-0.75,-1.E-01,0.15));
#65=LINE('',#60,#34);
#66=ORIENTED_EDGE('',*,*,#67,.T.);
#67=EDGE_CURVE('',#63,#68,#70,.T.);
#68=VERTEX_POINT('',#69);
#69=CARTESIAN_POINT('',(-0.75,0.1,0.15));
#70=LINE('',#64,#50);
#71=ORIENTED_EDGE('',*,*,#72,.F.);
#72=EDGE_CURVE('',#73,#68,#75,.T.);
#73=VERTEX_POINT('',#74);
#74=CARTESIAN_POINT('',(-0.75,0.1,0.));
#75=LINE('',#74,#34);
#76=ORIENTED_EDGE('',*,*,#77,.T.);
#77=EDGE_CURVE('',#73,#78,#39,.T.);
#78=VERTEX_POINT('',#79);
#79=CARTESIAN_POINT('',(-0.75,0.4,0.));
#80=ORIENTED_EDGE('',*,*,#81,.T.);
#81=EDGE_CURVE('',#78,#82,#84,.T.);
#82=VERTEX_POINT('',#83);
#83=CARTESIAN_POINT('',(-0.75,0.4,0.15));
#84=LINE('',#79,#34);
#85=ORIENTED_EDGE('',*,*,#86,.T.);
#86=EDGE_CURVE('',#82,#87,#89,.T.);
#87=VERTEX_POINT('',#88);
#88=CARTESIAN_POINT('',(-0.75,0.6,0.15));
#89=LINE('',#83,#50);
#90=ORIENTED_EDGE('',*,*,#91,.F.);
#91=EDGE_CURVE('',#92,#87,#94,.T.);
#92=VERTEX_POINT('',#93);
#93=CARTESIAN_POINT('',(-0.75,0.6,0.));
#94=LINE('',#93,#34);
#95=ORIENTED_EDGE('',*,*,#96,.T.);
#96=EDGE_CURVE('',#92,#97,#39,.T.);
#97=VERTEX_POINT('',#98);
#98=CARTESIAN_POINT('',(-0.75,0.75,0.));
#99=ORIENTED_EDGE('',*,*,#100,.T.);
#100=EDGE_CURVE('',#97,#24,#101,.T.);
#101=LINE('',#98,#34);
#102=PLANE('',#103);
#103=AXIS2_PLACEMENT_3D('',#32,#104,#13);
#104=DIRECTION('',(1.,0.,0.));
#105=ADVANCED_FACE('',(#106,#122),#131,.T.);
#106=FACE_BOUND('',#107,.T.);
#107=EDGE_LOOP('',(#20,#108,#114,#119));
#108=ORIENTED_EDGE('',*,*,#109,.T.);
#109=EDGE_CURVE('',#22,#110,#112,.T.);
#110=VERTEX_POINT('',#111);
#111=CARTESIAN_POINT('',(0.75,-0.75,0.5));
#112=LINE('',#23,#113);
#113=VECTOR('',#104,1.);
#114=ORIENTED_EDGE('',*,*,#115,.T.);
#115=EDGE_CURVE('',#110,#116,#118,.T.);
#116=VERTEX_POINT('',#117);
#117=CARTESIAN_POINT('',(0.75,0.75,0.5));
#118=LINE('',#111,#27);
#119=ORIENTED_EDGE('',*,*,#120,.F.);
#120=EDGE_CURVE('',#24,#116,#121,.T.);
#121=LINE('',#25,#113);
#122=FACE_BOUND('',#123,.T.);
#123=EDGE_LOOP('',(#124));
#124=ORIENTED_EDGE('',*,*,#125,.F.);
#125=EDGE_CURVE('',#126,#126,#128,.T.);
#126=VERTEX_POINT('',#127);
#127=CARTESIAN_POINT('',(-0.525,0.6,0.5));
#128=CIRCLE('',#129,7.5E-02);
#129=AXIS2_PLACEMENT_3D('',#130,#13,#104);
#130=CARTESIAN_POINT('',(-0.6,0.6,0.5));
#131=PLANE('',#132);
#132=AXIS2_PLACEMENT_3D('',#23,#13,#104);
#133=ADVANCED_FACE('',(#134),#145,.T.);
#134=FACE_BOUND('',#135,.T.);
#135=EDGE_LOOP('',(#136,#99,#141,#142));
#136=ORIENTED_EDGE('',*,*,#137,.F.);
#137=EDGE_CURVE('',#97,#138,#140,.T.);
#138=VERTEX_POINT('',#139);
#139=CARTESIAN_POINT('',(0.75,0.75,0.));
#140=LINE('',#98,#113);
#141=ORIENTED_EDGE('',*,*,#120,.T.);
#142=ORIENTED_EDGE('',*,*,#143,.F.);
#143=EDGE_CURVE('',#138,#116,#144,.T.);
#144=LINE('',#139,#34);
#145=PLANE('',#146);
#146=AXIS2_PLACEMENT_3D('',#98,#28,#13);
#147=ADVANCED_FACE('',(#148),#226,.F.);
#148=FACE_BOUND('',#149,.F.);
#149=EDGE_LOOP('',(#150,#158,#165,#172,#178,#186,#192,#197,#204,#209,#136,#211,#212,#217,#222,#225));
#150=ORIENTED_EDGE('',*,*,#151,.F.);
#151=EDGE_CURVE('',#152,#73,#154,.T.);
#152=VERTEX_POINT('',#153);
#153=CARTESIAN_POINT('',(-0.6,1.E-01,0.));
#154=LINE('',#155,#156);
#155=CARTESIAN_POINT('',(-0.55,1.E-01,0.));
#156=VECTOR('',#157,1.);
#157=DIRECTION('',(-1.,1.110223024625E-16,0.));
#158=ORIENTED_EDGE('',*,*,#159,.F.);
#159=EDGE_CURVE('',#160,#152,#162,.T.);
#160=VERTEX_POINT('',#161);
#161=CARTESIAN_POINT('',(-0.6,0.35,0.));
#162=LINE('',#161,#163);
#163=VECTOR('',#164,1.);
#164=DIRECTION('',(0.,-1.,0.));
#165=ORIENTED_EDGE('',*,*,#166,.F.);
#166=EDGE_CURVE('',#167,#160,#169,.T.);
#167=VERTEX_POINT('',#168);
#168=CARTESIAN_POINT('',(0.6,0.35,0.));
#169=LINE('',#168,#170);
#170=VECTOR('',#171,1.);
#171=DIRECTION('',(-1.,0.,0.));
#172=ORIENTED_EDGE('',*,*,#173,.F.);
#173=EDGE_CURVE('',#174,#167,#176,.T.);
#174=VERTEX_POINT('',#175);
#175=CARTESIAN_POINT('',(0.6,0.1,0.));
#176=LINE('',#177,#27);
#177=CARTESIAN_POINT('',(0.6,-0.35,0.));
#178=ORIENTED_EDGE('',*,*,#179,.T.);
#179=EDGE_CURVE('',#174,#180,#182,.T.);
#180=VERTEX_POINT('',#181);
#181=CARTESIAN_POINT('',(0.75,1.E-01,0.));
#182=LINE('',#183,#184);
#183=CARTESIAN_POINT('',(0.55,0.1,0.));
#184=VECTOR('',#185,1.);
#185=DIRECTION('',(1.,-2.22044604925E-16,0.));
#186=ORIENTED_EDGE('',*,*,#187,.T.);
#187=EDGE_CURVE('',#180,#188,#190,.T.);
#188=VERTEX_POINT('',#189);
#189=CARTESIAN_POINT('',(0.75,0.4,0.));
#190=LINE('',#191,#27);
#191=CARTESIAN_POINT('',(0.75,-0.75,0.));
#192=ORIENTED_EDGE('',*,*,#193,.F.);
#193=EDGE_CURVE('',#194,#188,#196,.T.);
#194=VERTEX_POINT('',#195);
#195=CARTESIAN_POINT('',(0.55,0.4,0.));
#196=LINE('',#195,#184);
#197=ORIENTED_EDGE('',*,*,#198,.F.);
#198=EDGE_CURVE('',#199,#194,#201,.T.);
#199=VERTEX_POINT('',#200);
#200=CARTESIAN_POINT('',(0.55,0.6,0.));
#201=LINE('',#200,#202);
#202=VECTOR('',#203,1.);
#203=DIRECTION('',(-2.22044604925E-16,-1.,0.));
#204=ORIENTED_EDGE('',*,*,#205,.T.);
#205=EDGE_CURVE('',#199,#206,#208,.T.);
#206=VERTEX_POINT('',#207);
#207=CARTESIAN_POINT('',(0.75,0.6,0.));
#208=LINE('',#200,#184);
#209=ORIENTED_EDGE('',*,*,#210,.T.);
#210=EDGE_CURVE('',#206,#138,#190,.T.);
#211=ORIENTED_EDGE('',*,*,#96,.F.);
#212=ORIENTED_EDGE('',*,*,#213,.F.);
#213=EDGE_CURVE('',#214,#92,#216,.T.);
#214=VERTEX_POINT('',#215);
#215=CARTESIAN_POINT('',(-0.55,0.6,0.));
#216=LINE('',#215,#156);
#217=ORIENTED_EDGE('',*,*,#218,.F.);
#218=EDGE_CURVE('',#219,#214,#221,.T.);
#219=VERTEX_POINT('',#220);
#220=CARTESIAN_POINT('',(-0.55,0.4,0.));
#221=LINE('',#220,#50);
#222=ORIENTED_EDGE('',*,*,#223,.T.);
#223=EDGE_CURVE('',#219,#78,#224,.T.);
#224=LINE('',#220,#156);
#225=ORIENTED_EDGE('',*,*,#77,.F.);
#226=PLANE('',#227);
#227=AXIS2_PLACEMENT_3D('',#32,#13,#104);
#228=ADVANCED_FACE('',(#229),#234,.T.);
#229=FACE_BOUND('',#230,.T.);
#230=EDGE_LOOP('',(#231,#80,#85,#90));
#231=ORIENTED_EDGE('',*,*,#232,.F.);
#232=EDGE_CURVE('',#78,#92,#233,.T.);
#233=LINE('',#79,#50);
#234=PLANE('',#235);
#235=AXIS2_PLACEMENT_3D('',#79,#157,#13);
#236=ADVANCED_FACE('',(#237),#242,.T.);
#237=FACE_BOUND('',#238,.T.);
#238=EDGE_LOOP('',(#239,#61,#66,#71));
#239=ORIENTED_EDGE('',*,*,#240,.F.);
#240=EDGE_CURVE('',#59,#73,#241,.T.);
#241=LINE('',#60,#50);
#242=PLANE('',#243);
#243=AXIS2_PLACEMENT_3D('',#60,#157,#13);
#244=ADVANCED_FACE('',(#245),#226,.F.);
#245=FACE_BOUND('',#246,.F.);
#246=EDGE_LOOP('',(#247,#248,#252,#256,#261,#266,#271,#275,#281,#284,#289,#293,#297,#298,#303,#308));
#247=ORIENTED_EDGE('',*,*,#36,.F.);
#248=ORIENTED_EDGE('',*,*,#249,.T.);
#249=EDGE_CURVE('',#31,#250,#251,.T.);
#250=VERTEX_POINT('',#191);
#251=LINE('',#32,#113);
#252=ORIENTED_EDGE('',*,*,#253,.T.);
#253=EDGE_CURVE('',#250,#254,#190,.T.);
#254=VERTEX_POINT('',#255);
#255=CARTESIAN_POINT('',(0.75,-0.6,0.));
#256=ORIENTED_EDGE('',*,*,#257,.F.);
#257=EDGE_CURVE('',#258,#254,#260,.T.);
#258=VERTEX_POINT('',#259);
#259=CARTESIAN_POINT('',(0.55,-0.6,0.));
#260=LINE('',#259,#184);
#261=ORIENTED_EDGE('',*,*,#262,.F.);
#262=EDGE_CURVE('',#263,#258,#265,.T.);
#263=VERTEX_POINT('',#264);
#264=CARTESIAN_POINT('',(0.55,-0.4,0.));
#265=LINE('',#264,#202);
#266=ORIENTED_EDGE('',*,*,#267,.T.);
#267=EDGE_CURVE('',#263,#268,#270,.T.);
#268=VERTEX_POINT('',#269);
#269=CARTESIAN_POINT('',(0.75,-0.4,0.));
#270=LINE('',#264,#184);
#271=ORIENTED_EDGE('',*,*,#272,.T.);
#272=EDGE_CURVE('',#268,#273,#190,.T.);
#273=VERTEX_POINT('',#274);
#274=CARTESIAN_POINT('',(0.75,-0.1,0.));
#275=ORIENTED_EDGE('',*,*,#276,.F.);
#276=EDGE_CURVE('',#277,#273,#279,.T.);
#277=VERTEX_POINT('',#278);
#278=CARTESIAN_POINT('',(0.6,-1.E-01,0.));
#279=LINE('',#280,#184);
#280=CARTESIAN_POINT('',(0.55,-1.E-01,0.));
#281=ORIENTED_EDGE('',*,*,#282,.F.);
#282=EDGE_CURVE('',#283,#277,#176,.T.);
#283=VERTEX_POINT('',#177);
#284=ORIENTED_EDGE('',*,*,#285,.F.);
#285=EDGE_CURVE('',#286,#283,#288,.T.);
#286=VERTEX_POINT('',#287);
#287=CARTESIAN_POINT('',(-0.6,-0.35,0.));
#288=LINE('',#287,#113);
#289=ORIENTED_EDGE('',*,*,#290,.F.);
#290=EDGE_CURVE('',#291,#286,#162,.T.);
#291=VERTEX_POINT('',#292);
#292=CARTESIAN_POINT('',(-0.6,-0.1,0.));
#293=ORIENTED_EDGE('',*,*,#294,.T.);
#294=EDGE_CURVE('',#291,#59,#295,.T.);
#295=LINE('',#296,#156);
#296=CARTESIAN_POINT('',(-0.55,-0.1,0.));
#297=ORIENTED_EDGE('',*,*,#58,.F.);
#298=ORIENTED_EDGE('',*,*,#299,.F.);
#299=EDGE_CURVE('',#300,#54,#302,.T.);
#300=VERTEX_POINT('',#301);
#301=CARTESIAN_POINT('',(-0.55,-0.4,0.));
#302=LINE('',#301,#156);
#303=ORIENTED_EDGE('',*,*,#304,.F.);
#304=EDGE_CURVE('',#305,#300,#307,.T.);
#305=VERTEX_POINT('',#306);
#306=CARTESIAN_POINT('',(-0.55,-0.6,0.));
#307=LINE('',#306,#50);
#308=ORIENTED_EDGE('',*,*,#309,.T.);
#309=EDGE_CURVE('',#305,#37,#310,.T.);
#310=LINE('',#306,#156);
#311=ADVANCED_FACE('',(#312),#317,.T.);
#312=FACE_BOUND('',#313,.T.);
#313=EDGE_LOOP('',(#314,#40,#45,#52));
#314=ORIENTED_EDGE('',*,*,#315,.F.);
#315=EDGE_CURVE('',#37,#54,#316,.T.);
#316=LINE('',#38,#50);
#317=PLANE('',#318);
#318=AXIS2_PLACEMENT_3D('',#38,#157,#13);
#319=ADVANCED_FACE('',(#320),#327,.F.);
#320=FACE_BOUND('',#321,.F.);
#321=EDGE_LOOP('',(#322,#323,#108,#324));
#322=ORIENTED_EDGE('',*,*,#249,.F.);
#323=ORIENTED_EDGE('',*,*,#30,.T.);
#324=ORIENTED_EDGE('',*,*,#325,.F.);
#325=EDGE_CURVE('',#250,#110,#326,.T.);
#326=LINE('',#191,#34);
#327=PLANE('',#328);
#328=AXIS2_PLACEMENT_3D('',#32,#28,#13);
#329=ADVANCED_FACE('',(#330),#373,.T.);
#330=FACE_BOUND('',#331,.T.);
#331=EDGE_LOOP('',(#332,#324,#252,#333,#338,#343,#271,#346,#351,#356,#186,#359,#364,#369,#209,#372));
#332=ORIENTED_EDGE('',*,*,#115,.F.);
#333=ORIENTED_EDGE('',*,*,#334,.T.);
#334=EDGE_CURVE('',#254,#335,#337,.T.);
#335=VERTEX_POINT('',#336);
#336=CARTESIAN_POINT('',(0.75,-0.6,0.15));
#337=LINE('',#255,#34);
#338=ORIENTED_EDGE('',*,*,#339,.F.);
#339=EDGE_CURVE('',#340,#335,#342,.T.);
#340=VERTEX_POINT('',#341);
#341=CARTESIAN_POINT('',(0.75,-0.4,0.15));
#342=LINE('',#341,#202);
#343=ORIENTED_EDGE('',*,*,#344,.F.);
#344=EDGE_CURVE('',#268,#340,#345,.T.);
#345=LINE('',#269,#34);
#346=ORIENTED_EDGE('',*,*,#347,.T.);
#347=EDGE_CURVE('',#273,#348,#350,.T.);
#348=VERTEX_POINT('',#349);
#349=CARTESIAN_POINT('',(0.75,-0.1,0.15));
#350=LINE('',#274,#34);
#351=ORIENTED_EDGE('',*,*,#352,.F.);
#352=EDGE_CURVE('',#353,#348,#355,.T.);
#353=VERTEX_POINT('',#354);
#354=CARTESIAN_POINT('',(0.75,1.E-01,0.15));
#355=LINE('',#354,#202);
#356=ORIENTED_EDGE('',*,*,#357,.F.);
#357=EDGE_CURVE('',#180,#353,#358,.T.);
#358=LINE('',#181,#34);
#359=ORIENTED_EDGE('',*,*,#360,.T.);
#360=EDGE_CURVE('',#188,#361,#363,.T.);
#361=VERTEX_POINT('',#362);
#362=CARTESIAN_POINT('',(0.75,0.4,0.15));
#363=LINE('',#189,#34);
#364=ORIENTED_EDGE('',*,*,#365,.F.);
#365=EDGE_CURVE('',#366,#361,#368,.T.);
#366=VERTEX_POINT('',#367);
#367=CARTESIAN_POINT('',(0.75,0.6,0.15));
#368=LINE('',#367,#202);
#369=ORIENTED_EDGE('',*,*,#370,.F.);
#370=EDGE_CURVE('',#206,#366,#371,.T.);
#371=LINE('',#207,#34);
#372=ORIENTED_EDGE('',*,*,#143,.T.);
#373=PLANE('',#374);
#374=AXIS2_PLACEMENT_3D('',#191,#104,#13);
#375=ADVANCED_FACE('',(#376),#379,.T.);
#376=FACE_BOUND('',#377,.T.);
#377=EDGE_LOOP('',(#378));
#378=ORIENTED_EDGE('',*,*,#125,.T.);
#379=PLANE('',#380);
#380=AXIS2_PLACEMENT_3D('',#130,#13,#14);
#381=ADVANCED_FACE('',(#382),#388,.F.);
#382=FACE_BOUND('',#383,.F.);
#383=EDGE_LOOP('',(#384,#385,#387,#239));
#384=ORIENTED_EDGE('',*,*,#294,.F.);
#385=ORIENTED_EDGE('',*,*,#386,.F.);
#386=EDGE_CURVE('',#152,#291,#162,.T.);
#387=ORIENTED_EDGE('',*,*,#151,.T.);
#388=PLANE('',#389);
#389=AXIS2_PLACEMENT_3D('',#296,#13,#51);
#390=ADVANCED_FACE('',(#391),#396,.F.);
#391=FACE_BOUND('',#392,.F.);
#392=EDGE_LOOP('',(#393,#394,#395,#231));
#393=ORIENTED_EDGE('',*,*,#223,.F.);
#394=ORIENTED_EDGE('',*,*,#218,.T.);
#395=ORIENTED_EDGE('',*,*,#213,.T.);
#396=PLANE('',#397);
#397=AXIS2_PLACEMENT_3D('',#220,#13,#51);
#398=ADVANCED_FACE('',(#399),#407,.F.);
#399=FACE_BOUND('',#400,.F.);
#400=EDGE_LOOP('',(#401,#402,#403,#404));
#401=ORIENTED_EDGE('',*,*,#205,.F.);
#402=ORIENTED_EDGE('',*,*,#198,.T.);
#403=ORIENTED_EDGE('',*,*,#193,.T.);
#404=ORIENTED_EDGE('',*,*,#405,.F.);
#405=EDGE_CURVE('',#206,#188,#406,.T.);
#406=LINE('',#207,#202);
#407=PLANE('',#408);
#408=AXIS2_PLACEMENT_3D('',#200,#13,#203);
#409=ADVANCED_FACE('',(#410),#419,.F.);
#410=FACE_BOUND('',#411,.F.);
#411=EDGE_LOOP('',(#412,#413,#415,#416));
#412=ORIENTED_EDGE('',*,*,#179,.F.);
#413=ORIENTED_EDGE('',*,*,#414,.F.);
#414=EDGE_CURVE('',#277,#174,#176,.T.);
#415=ORIENTED_EDGE('',*,*,#276,.T.);
#416=ORIENTED_EDGE('',*,*,#417,.F.);
#417=EDGE_CURVE('',#180,#273,#418,.T.);
#418=LINE('',#181,#202);
#419=PLANE('',#420);
#420=AXIS2_PLACEMENT_3D('',#183,#13,#203);
#421=ADVANCED_FACE('',(#422),#226,.F.);
#422=FACE_BOUND('',#423,.F.);
#423=EDGE_LOOP('',(#424,#427,#428,#429,#430,#433,#437,#439,#440,#441,#442,#445));
#424=ORIENTED_EDGE('',*,*,#425,.T.);
#425=EDGE_CURVE('',#426,#291,#295,.T.);
#426=VERTEX_POINT('',#296);
#427=ORIENTED_EDGE('',*,*,#290,.T.);
#428=ORIENTED_EDGE('',*,*,#285,.T.);
#429=ORIENTED_EDGE('',*,*,#282,.T.);
#430=ORIENTED_EDGE('',*,*,#431,.F.);
#431=EDGE_CURVE('',#432,#277,#279,.T.);
#432=VERTEX_POINT('',#280);
#433=ORIENTED_EDGE('',*,*,#434,.F.);
#434=EDGE_CURVE('',#435,#432,#436,.T.);
#435=VERTEX_POINT('',#183);
#436=LINE('',#183,#202);
#437=ORIENTED_EDGE('',*,*,#438,.T.);
#438=EDGE_CURVE('',#435,#174,#182,.T.);
#439=ORIENTED_EDGE('',*,*,#173,.T.);
#440=ORIENTED_EDGE('',*,*,#166,.T.);
#441=ORIENTED_EDGE('',*,*,#159,.T.);
#442=ORIENTED_EDGE('',*,*,#443,.F.);
#443=EDGE_CURVE('',#444,#152,#154,.T.);
#444=VERTEX_POINT('',#155);
#445=ORIENTED_EDGE('',*,*,#446,.F.);
#446=EDGE_CURVE('',#426,#444,#447,.T.);
#447=LINE('',#296,#50);
#448=ADVANCED_FACE('',(#449),#454,.F.);
#449=FACE_BOUND('',#450,.F.);
#450=EDGE_LOOP('',(#451,#452,#453,#314));
#451=ORIENTED_EDGE('',*,*,#309,.F.);
#452=ORIENTED_EDGE('',*,*,#304,.T.);
#453=ORIENTED_EDGE('',*,*,#299,.T.);
#454=PLANE('',#455);
#455=AXIS2_PLACEMENT_3D('',#306,#13,#51);
#456=ADVANCED_FACE('',(#457),#465,.F.);
#457=FACE_BOUND('',#458,.F.);
#458=EDGE_LOOP('',(#459,#460,#461,#462));
#459=ORIENTED_EDGE('',*,*,#267,.F.);
#460=ORIENTED_EDGE('',*,*,#262,.T.);
#461=ORIENTED_EDGE('',*,*,#257,.T.);
#462=ORIENTED_EDGE('',*,*,#463,.F.);
#463=EDGE_CURVE('',#268,#254,#464,.T.);
#464=LINE('',#269,#202);
#465=PLANE('',#466);
#466=AXIS2_PLACEMENT_3D('',#264,#13,#203);
#467=ADVANCED_FACE('',(#468),#473,.T.);
#468=FACE_BOUND('',#469,.T.);
#469=EDGE_LOOP('',(#404,#470,#471,#472));
#470=ORIENTED_EDGE('',*,*,#370,.T.);
#471=ORIENTED_EDGE('',*,*,#365,.T.);
#472=ORIENTED_EDGE('',*,*,#360,.F.);
#473=PLANE('',#474);
#474=AXIS2_PLACEMENT_3D('',#207,#185,#13);
#475=ADVANCED_FACE('',(#476),#481,.T.);
#476=FACE_BOUND('',#477,.T.);
#477=EDGE_LOOP('',(#416,#478,#479,#480));
#478=ORIENTED_EDGE('',*,*,#357,.T.);
#479=ORIENTED_EDGE('',*,*,#352,.T.);
#480=ORIENTED_EDGE('',*,*,#347,.F.);
#481=PLANE('',#482);
#482=AXIS2_PLACEMENT_3D('',#181,#185,#13);
#483=ADVANCED_FACE('',(#484),#489,.T.);
#484=FACE_BOUND('',#485,.T.);
#485=EDGE_LOOP('',(#462,#486,#487,#488));
#486=ORIENTED_EDGE('',*,*,#344,.T.);
#487=ORIENTED_EDGE('',*,*,#339,.T.);
#488=ORIENTED_EDGE('',*,*,#334,.F.);
#489=PLANE('',#490);
#490=AXIS2_PLACEMENT_3D('',#269,#185,#13);
#491=ADVANCED_FACE('',(#492),#388,.F.);
#492=FACE_BOUND('',#493,.F.);
#493=EDGE_LOOP('',(#494,#495,#496,#497));
#494=ORIENTED_EDGE('',*,*,#425,.F.);
#495=ORIENTED_EDGE('',*,*,#446,.T.);
#496=ORIENTED_EDGE('',*,*,#443,.T.);
#497=ORIENTED_EDGE('',*,*,#386,.T.);
#498=ADVANCED_FACE('',(#499),#419,.F.);
#499=FACE_BOUND('',#500,.F.);
#500=EDGE_LOOP('',(#501,#502,#503,#504));
#501=ORIENTED_EDGE('',*,*,#438,.F.);
#502=ORIENTED_EDGE('',*,*,#434,.T.);
#503=ORIENTED_EDGE('',*,*,#431,.T.);
#504=ORIENTED_EDGE('',*,*,#414,.T.);
#505=( GEOMETRIC_REPRESENTATION_CONTEXT(3) GLOBAL_UNCERTAINTY_ASSIGNED_CONTEXT((#509)) GLOBAL_UNIT_ASSIGNED_CONTEXT((#506,#507,#508)) REPRESENTATION_CONTEXT('Context #1','3D Context with UNIT and UNCERTAINTY') );
#506=( LENGTH_UNIT() NAMED_UNIT(*) SI_UNIT(.MILLI.,.METRE.) );
#507=( NAMED_UNIT(*) PLANE_ANGLE_UNIT() SI_UNIT($,.RADIAN.) );
#508=( NAMED_UNIT(*) SI_UNIT($,.STERADIAN.) SOLID_ANGLE_UNIT() );
#509=UNCERTAINTY_MEASURE_WITH_UNIT(LENGTH_MEASURE(1.E-07),#506,'distance_accuracy_value','confusion accuracy');
#510=PRODUCT_RELATED_PRODUCT_CATEGORY('part',$,(#7));
#511=MECHANICAL_DESIGN_GEOMETRIC_PRESENTATION_REPRESENTATION('',(#512,#522,#523,#524,#525,#534,#535,#536,#537,#538,#539,#548,#549,#550,#551,#552,#553,#554,#555,#556,#557,#558,#559),#505);
#512=STYLED_ITEM('color',(#513),#17);
#513=PRESENTATION_STYLE_ASSIGNMENT((#514,#520));
#514=SURFACE_STYLE_USAGE(.BOTH.,#515);
#515=SURFACE_SIDE_STYLE('',(#516));
#516=SURFACE_STYLE_FILL_AREA(#517);
#517=FILL_AREA_STYLE('',(#518));
#518=FILL_AREA_STYLE_COLOUR('',#519);
#519=COLOUR_RGB('',0.147999998088,0.145000001626,0.145000001626);
#520=CURVE_STYLE('',#521,POSITIVE_LENGTH_MEASURE(0.1),#519);
#521=DRAUGHTING_PRE_DEFINED_CURVE_FONT('continuous');
#522=STYLED_ITEM('color',(#513),#105);
#523=STYLED_ITEM('color',(#513),#133);
#524=STYLED_ITEM('color',(#513),#147);
#525=STYLED_ITEM('color',(#526),#228);
#526=PRESENTATION_STYLE_ASSIGNMENT((#527,#533));
#527=SURFACE_STYLE_USAGE(.BOTH.,#528);
#528=SURFACE_SIDE_STYLE('',(#529));
#529=SURFACE_STYLE_FILL_AREA(#530);
#530=FILL_AREA_STYLE('',(#531));
#531=FILL_AREA_STYLE_COLOUR('',#532);
#532=COLOUR_RGB('',0.823999987314,0.819999987296,0.781000009244);
#533=CURVE_STYLE('',#521,POSITIVE_LENGTH_MEASURE(0.1),#532);
#534=STYLED_ITEM('color',(#526),#236);
#535=STYLED_ITEM('color',(#513),#244);
#536=STYLED_ITEM('color',(#526),#311);
#537=STYLED_ITEM('color',(#513),#319);
#538=STYLED_ITEM('color',(#513),#329);
#539=STYLED_ITEM('color',(#540),#375);
#540=PRESENTATION_STYLE_ASSIGNMENT((#541,#547));
#541=SURFACE_STYLE_USAGE(.BOTH.,#542);
#542=SURFACE_SIDE_STYLE('',(#543));
#543=SURFACE_STYLE_FILL_AREA(#544);
#544=FILL_AREA_STYLE('',(#545));
#545=FILL_AREA_STYLE_COLOUR('',#546);
#546=COLOUR_RGB('',0.690999998585,0.664000007176,0.597999987832);
#547=CURVE_STYLE('',#521,POSITIVE_LENGTH_MEASURE(0.1),#546);
#548=STYLED_ITEM('color',(#526),#381);
#549=STYLED_ITEM('color',(#526),#390);
#550=STYLED_ITEM('color',(#526),#398);
#551=STYLED_ITEM('color',(#526),#409);
#552=STYLED_ITEM('color',(#526),#421);
#553=STYLED_ITEM('color',(#526),#448);
#554=STYLED_ITEM('color',(#526),#456);
#555=STYLED_ITEM('color',(#526),#467);
#556=STYLED_ITEM('color',(#526),#475);
#557=STYLED_ITEM('color',(#526),#483);
#558=STYLED_ITEM('color',(#526),#491);
#559=STYLED_ITEM('color',(#526),#498);
ENDSEC;
END-ISO-10303-21;
