M48
; DRILL file {KiCad 9.0.6} date 2026-01-02T19:50:41-0500
; FORMAT={-:-/ absolute / metric / decimal}
; #@! TF.CreationDate,2026-01-02T19:50:41-05:00
; #@! TF.GenerationSoftware,Kicad,Pcbnew,9.0.6
; #@! TF.FileFunction,Plated,1,6,PTH
FMAT,2
METRIC
; #@! TA.AperFunction,Plated,PTH,ViaDrill
T1C0.150
; #@! TA.AperFunction,Plated,PTH,ComponentDrill
T2C0.200
; #@! TA.AperFunction,Plated,PTH,ComponentDrill
T3C0.300
; #@! TA.AperFunction,Plated,PTH,ComponentDrill
T4C1.000
; #@! TA.AperFunction,Plated,PTH,ComponentDrill
T5C1.500
; #@! TA.AperFunction,Plated,PTH,ComponentDrill
T6C3.050
%
G90
G05
T1
X32.895Y-32.275
X34.25Y-39.35
X34.35Y-37.05
X35.225Y-40.0
X35.276Y-108.475
X36.631Y-115.55
X36.731Y-113.25
X37.606Y-116.2
X37.657Y-51.325
X39.012Y-58.4
X39.112Y-56.1
X39.987Y-59.05
X40.039Y-70.375
X40.825Y-33.75
X41.394Y-77.45
X41.494Y-75.15
X42.369Y-78.1
X43.206Y-109.95
X44.801Y-89.425
X45.587Y-52.8
X46.156Y-96.5
X46.256Y-94.2
X47.131Y-97.15
X47.969Y-71.85
X51.945Y-32.275
X52.731Y-90.9
X53.3Y-39.35
X53.4Y-37.05
X54.275Y-40.0
X59.089Y-108.475
X59.875Y-33.75
X60.444Y-115.55
X60.544Y-113.25
X61.419Y-116.2
X61.47Y-51.325
X62.825Y-58.4
X62.925Y-56.1
X63.8Y-59.05
X66.233Y-70.375
X67.019Y-109.95
X67.587Y-77.45
X67.688Y-75.15
X68.562Y-78.1
X69.4Y-52.8
X70.995Y-32.275
X72.35Y-39.35
X72.45Y-37.05
X73.325Y-40.0
X74.162Y-71.85
X75.757Y-89.425
X77.112Y-96.5
X77.212Y-94.2
X78.087Y-97.15
X78.925Y-33.75
X80.52Y-51.325
X81.875Y-58.4
X81.975Y-56.1
X82.85Y-59.05
X82.901Y-108.475
X83.688Y-90.9
X84.256Y-115.55
X84.356Y-113.25
X85.231Y-116.2
X85.282Y-70.375
X86.638Y-77.45
X86.737Y-75.15
X87.612Y-78.1
X88.45Y-52.8
X90.045Y-32.275
X90.831Y-109.95
X91.4Y-39.35
X91.5Y-37.05
X92.375Y-40.0
X93.212Y-71.85
X94.75Y-51.15
X94.807Y-89.425
X95.25Y-51.15
X95.75Y-51.15
X96.162Y-96.5
X96.25Y-51.15
X96.262Y-94.2
X97.137Y-97.15
X97.975Y-33.75
X99.57Y-51.325
X100.182Y-43.45
X100.515Y-44.35
X100.7Y-47.875
X100.857Y-45.259
X100.925Y-58.4
X101.025Y-56.1
X101.625Y-48.825
X101.9Y-59.05
X102.14Y-48.81
X102.375Y-47.625
X102.64Y-48.81
X102.737Y-90.9
X103.64Y-48.81
X103.752Y-43.0
X104.075Y-47.375
X104.075Y-47.875
X104.332Y-70.375
X104.652Y-45.709
X105.464Y-47.904
X105.5Y-47.405
X105.688Y-77.45
X105.787Y-75.15
X105.9Y-46.45
X106.4Y-48.825
X106.662Y-78.1
X106.9Y-46.45
X107.4Y-46.45
X107.5Y-52.8
X107.9Y-46.45
X108.4Y-46.45
X108.85Y-47.375
X108.9Y-48.365
X108.9Y-49.275
X109.095Y-32.275
X110.322Y-51.478
X110.325Y-50.577
X110.45Y-39.35
X110.55Y-37.05
X111.425Y-40.0
X112.262Y-71.85
X112.607Y-47.853
X113.858Y-89.425
X115.212Y-96.5
X115.312Y-94.2
X116.188Y-97.15
X117.025Y-33.75
X118.62Y-51.325
X119.975Y-58.4
X120.075Y-56.1
X120.95Y-59.05
X121.787Y-90.9
X123.382Y-70.375
X124.737Y-77.45
X124.837Y-75.15
X125.712Y-78.1
X126.55Y-52.8
X128.145Y-32.275
X129.5Y-39.35
X129.6Y-37.05
X130.475Y-40.0
X131.312Y-71.85
X132.907Y-89.425
X134.262Y-96.5
X134.362Y-94.2
X135.237Y-97.15
X136.075Y-33.75
X137.67Y-51.325
X139.025Y-58.4
X139.125Y-56.1
X140.0Y-59.05
X140.838Y-90.9
X142.433Y-70.375
X143.787Y-77.45
X143.887Y-75.15
X144.762Y-78.1
X145.6Y-52.8
X147.195Y-32.275
X148.55Y-39.35
X148.65Y-37.05
X149.525Y-40.0
X150.362Y-71.85
X151.957Y-89.425
X153.312Y-96.5
X153.412Y-94.2
X154.287Y-97.15
X154.339Y-108.475
X155.125Y-33.75
X155.694Y-115.55
X155.794Y-113.25
X156.669Y-116.2
X156.72Y-51.325
X158.075Y-58.4
X158.175Y-56.1
X159.05Y-59.05
X159.887Y-90.9
X161.482Y-70.375
X162.269Y-109.95
X162.838Y-77.45
X162.938Y-75.15
X163.812Y-78.1
X164.65Y-52.8
X166.245Y-32.275
X167.6Y-39.35
X167.7Y-37.05
X168.575Y-40.0
X169.412Y-71.85
X171.007Y-89.425
X172.362Y-96.5
X172.463Y-94.2
X173.338Y-97.15
X174.175Y-33.75
X175.77Y-51.325
X177.125Y-58.4
X177.225Y-56.1
X178.1Y-59.05
X178.938Y-90.9
X180.532Y-70.375
X181.887Y-77.45
X181.987Y-75.15
X182.862Y-78.1
X183.7Y-52.8
X185.295Y-32.275
X186.65Y-39.35
X186.75Y-37.05
X187.625Y-40.0
X188.462Y-71.85
X190.058Y-89.425
X191.412Y-96.5
X191.512Y-94.2
X192.387Y-97.15
X193.225Y-33.75
X194.82Y-51.325
X196.175Y-58.4
X196.275Y-56.1
X197.15Y-59.05
X197.987Y-90.9
X199.582Y-70.375
X200.938Y-77.45
X201.037Y-75.15
X201.912Y-78.1
X202.75Y-52.8
X204.345Y-32.275
X204.553Y4.105
X205.053Y4.105
X205.553Y4.105
X205.7Y-39.35
X205.8Y-37.05
X206.053Y4.105
X206.675Y-40.0
X207.512Y-71.85
X209.107Y-89.425
X209.985Y11.805
X210.318Y10.905
X210.462Y-96.5
X210.503Y7.38
X210.562Y-94.2
X210.66Y9.996
X211.428Y6.43
X211.438Y-97.15
X211.943Y6.445
X212.178Y7.63
X212.275Y-33.75
X212.443Y6.445
X213.443Y6.445
X213.555Y12.255
X213.87Y-51.325
X213.878Y7.88
X213.878Y7.38
X214.455Y9.546
X215.225Y-58.4
X215.266Y7.351
X215.303Y7.85
X215.325Y-56.1
X215.703Y8.805
X216.2Y-59.05
X216.203Y6.43
X216.703Y8.805
X217.037Y-90.9
X217.203Y8.805
X217.703Y8.805
X218.203Y8.805
X218.632Y-70.375
X218.653Y7.88
X218.703Y6.89
X218.703Y5.98
X219.987Y-77.45
X220.087Y-75.15
X220.125Y3.777
X220.128Y4.678
X220.962Y-78.1
X221.8Y-52.8
X222.41Y7.402
X223.395Y-32.275
X224.75Y-39.35
X224.85Y-37.05
X225.725Y-40.0
X225.776Y-108.475
X226.562Y-71.85
X227.131Y-115.55
X227.231Y-113.25
X228.106Y-116.2
X228.157Y-89.425
X229.512Y-96.5
X229.612Y-94.2
X230.487Y-97.15
X231.325Y-33.75
X232.92Y-51.325
X233.706Y-109.95
X234.275Y-58.4
X234.375Y-56.1
X235.25Y-59.05
X236.087Y-90.9
X237.682Y-70.375
X239.037Y-77.45
X239.137Y-75.15
X240.012Y-78.1
X240.85Y-52.8
X242.445Y-32.275
X243.8Y-39.35
X243.9Y-37.05
X244.775Y-40.0
X245.612Y-71.85
X247.15Y-51.15
X247.207Y-89.425
X247.65Y-51.15
X248.15Y-51.15
X248.562Y-96.5
X248.65Y-51.15
X248.662Y-94.2
X249.537Y-97.15
X249.589Y-108.475
X250.375Y-33.75
X250.944Y-115.55
X251.044Y-113.25
X251.919Y-116.2
X251.97Y-51.325
X252.582Y-43.45
X252.915Y-44.35
X253.1Y-47.875
X253.257Y-45.259
X253.325Y-58.4
X253.425Y-56.1
X254.025Y-48.825
X254.3Y-59.05
X254.54Y-48.81
X254.775Y-47.625
X255.04Y-48.81
X255.137Y-90.9
X256.04Y-48.81
X256.152Y-43.0
X256.475Y-47.375
X256.475Y-47.875
X256.733Y-70.375
X257.052Y-45.709
X257.519Y-109.95
X257.864Y-47.904
X257.9Y-47.405
X258.087Y-77.45
X258.188Y-75.15
X258.3Y-46.45
X258.8Y-48.825
X259.062Y-78.1
X259.3Y-46.45
X259.8Y-46.45
X259.9Y-52.8
X260.3Y-46.45
X260.8Y-46.45
X261.25Y-47.375
X261.3Y-48.365
X261.3Y-49.275
X261.495Y-32.275
X262.722Y-51.478
X262.725Y-50.577
X262.85Y-39.35
X262.95Y-37.05
X263.825Y-40.0
X264.662Y-71.85
X265.007Y-47.853
X269.425Y-33.75
X271.02Y-51.325
X272.375Y-58.4
X272.475Y-56.1
X273.35Y-59.05
X273.401Y-108.475
X274.756Y-115.55
X274.856Y-113.25
X275.731Y-116.2
X278.95Y-52.8
X281.331Y-109.95
X282.926Y-89.425
X284.281Y-96.5
X284.381Y-94.2
X285.256Y-97.15
X287.689Y-70.375
X289.044Y-77.45
X289.144Y-75.15
X290.019Y-78.1
X290.07Y-32.275
X290.856Y-90.9
X291.425Y-39.35
X291.525Y-37.05
X292.4Y-40.0
X294.832Y-51.325
X295.619Y-71.85
X296.188Y-58.4
X296.287Y-56.1
X297.162Y-59.05
X297.214Y-108.475
X298.0Y-33.75
X298.569Y-115.55
X298.669Y-113.25
X299.544Y-116.2
X302.762Y-52.8
X305.144Y-109.95
X318.645Y-70.375
X318.645Y-89.425
X318.645Y-108.475
X320.0Y-77.45
X320.0Y-96.5
X320.0Y-115.55
X320.1Y-75.15
X320.1Y-94.2
X320.1Y-113.25
X320.975Y-78.1
X320.975Y-97.15
X320.975Y-116.2
X326.575Y-71.85
X326.575Y-90.9
X326.575Y-109.95
T2
X57.885Y-141.02
X57.885Y-142.52
X58.175Y-153.35
X58.175Y-154.85
X64.955Y-153.35
X64.955Y-154.85
X71.445Y-141.02
X71.445Y-142.52
X71.735Y-153.35
X71.735Y-154.85
X71.735Y-161.64
X71.735Y-163.14
X78.515Y-153.35
X78.515Y-154.85
X78.515Y-169.93
X78.515Y-171.43
X78.515Y-178.22
X78.515Y-179.72
X85.295Y-161.64
X85.295Y-163.14
X85.295Y-169.93
X85.295Y-171.43
X85.295Y-178.22
X85.295Y-179.72
X101.64Y-47.625
X103.14Y-47.625
X106.4Y-47.635
X107.9Y-47.635
X254.04Y-47.625
X255.54Y-47.625
X258.8Y-47.635
X260.3Y-47.635
T3
X144.75Y-165.83
X144.75Y-166.83
X145.75Y-165.83
X145.75Y-166.83
T4
X316.35Y-35.6
X316.35Y-38.1
X316.35Y-40.6
X330.85Y-35.6
X330.85Y-40.6
T6
X35.56Y-43.18
X37.941Y-119.38
X40.322Y-62.23
X41.91Y-40.64
X42.704Y-81.28
X44.291Y-116.84
X46.672Y-59.69
X47.466Y-100.33
X49.054Y-78.74
X53.816Y-97.79
X54.61Y-43.18
X60.96Y-40.64
X61.754Y-119.38
X64.135Y-62.23
X68.104Y-116.84
X68.897Y-81.28
X70.485Y-59.69
X73.66Y-43.18
X75.248Y-78.74
X78.422Y-100.33
X80.01Y-40.64
X83.185Y-62.23
X84.772Y-97.79
X85.566Y-119.38
X87.947Y-81.28
X89.535Y-59.69
X91.916Y-116.84
X92.71Y-43.18
X94.297Y-78.74
X97.472Y-100.33
X99.06Y-40.64
X102.235Y-62.23
X103.822Y-97.79
X106.997Y-81.28
X108.585Y-59.69
X111.76Y-43.18
X113.347Y-78.74
X116.522Y-100.33
X118.11Y-40.64
X121.285Y-62.23
X122.872Y-97.79
X126.047Y-81.28
X127.635Y-59.69
X130.81Y-43.18
X132.398Y-78.74
X135.572Y-100.33
X137.16Y-40.64
X140.335Y-62.23
X141.922Y-97.79
X145.097Y-81.28
X146.685Y-59.69
X149.86Y-43.18
X151.447Y-78.74
X154.623Y-100.33
X156.21Y-40.64
X157.004Y-119.38
X159.385Y-62.23
X160.972Y-97.79
X163.354Y-116.84
X164.147Y-81.28
X165.735Y-59.69
X168.91Y-43.18
X170.498Y-78.74
X173.672Y-100.33
X175.26Y-40.64
X178.435Y-62.23
X180.022Y-97.79
X183.197Y-81.28
X184.785Y-59.69
X187.96Y-43.18
X189.547Y-78.74
X192.722Y-100.33
X194.31Y-40.64
X197.485Y-62.23
X199.072Y-97.79
X202.248Y-81.28
X203.835Y-59.69
X207.01Y-43.18
X208.597Y-78.74
X211.772Y-100.33
X213.36Y-40.64
X216.535Y-62.23
X218.123Y-97.79
X221.297Y-81.28
X222.885Y-59.69
X226.06Y-43.18
X227.647Y-78.74
X228.441Y-119.38
X230.822Y-100.33
X232.41Y-40.64
X234.791Y-116.84
X235.585Y-62.23
X237.172Y-97.79
X240.347Y-81.28
X241.935Y-59.69
X245.11Y-43.18
X246.697Y-78.74
X249.873Y-100.33
X251.46Y-40.64
X252.254Y-119.38
X254.635Y-62.23
X256.222Y-97.79
X258.604Y-116.84
X259.397Y-81.28
X260.985Y-59.69
X264.16Y-43.18
X265.748Y-78.74
X270.51Y-40.64
X273.685Y-62.23
X276.066Y-119.38
X280.035Y-59.69
X282.416Y-116.84
X285.591Y-100.33
X290.354Y-81.28
X291.941Y-97.79
X292.735Y-43.18
X296.704Y-78.74
X297.498Y-62.23
X299.085Y-40.64
X299.879Y-119.38
X303.847Y-59.69
X306.229Y-116.84
X321.31Y-81.28
X321.31Y-100.33
X321.31Y-119.38
X327.66Y-78.74
X327.66Y-97.79
X327.66Y-116.84
T5
G00X323.2Y-32.5
M15
G01X324.5Y-32.5
M16
G05
G00X323.2Y-43.7
M15
G01X324.5Y-43.7
M16
G05
M30
