G04 #@! TF.GenerationSoftware,KiCad,Pcbnew,9.0.6*
G04 #@! TF.CreationDate,2026-01-02T19:50:41-05:00*
G04 #@! TF.ProjectId,prometheus-65,70726f6d-6574-4686-9575-732d36352e6b,rev?*
G04 #@! TF.SameCoordinates,Original*
G04 #@! TF.FileFunction,Paste,Bot*
G04 #@! TF.FilePolarity,Positive*
%FSLAX46Y46*%
G04 Gerber Fmt 4.6, Leading zero omitted, Abs format (unit mm)*
G04 Created by KiCad (PCBNEW 9.0.6) date 2026-01-02 19:50:41*
%MOMM*%
%LPD*%
G01*
G04 APERTURE LIST*
G04 Aperture macros list*
%AMRoundRect*
0 Rectangle with rounded corners*
0 $1 Rounding radius*
0 $2 $3 $4 $5 $6 $7 $8 $9 X,Y pos of 4 corners*
0 Add a 4 corners polygon primitive as box body*
4,1,4,$2,$3,$4,$5,$6,$7,$8,$9,$2,$3,0*
0 Add four circle primitives for the rounded corners*
1,1,$1+$1,$2,$3*
1,1,$1+$1,$4,$5*
1,1,$1+$1,$6,$7*
1,1,$1+$1,$8,$9*
0 Add four rect primitives between the rounded corners*
20,1,$1+$1,$2,$3,$4,$5,0*
20,1,$1+$1,$4,$5,$6,$7,0*
20,1,$1+$1,$6,$7,$8,$9,0*
20,1,$1+$1,$8,$9,$2,$3,0*%
%AMFreePoly0*
4,1,18,-0.410000,0.593000,-0.403758,0.624380,-0.385983,0.650983,-0.359380,0.668758,-0.328000,0.675000,0.328000,0.675000,0.359380,0.668758,0.385983,0.650983,0.403758,0.624380,0.410000,0.593000,0.410000,-0.593000,0.403758,-0.624380,0.385983,-0.650983,0.359380,-0.668758,0.328000,-0.675000,0.000000,-0.675000,-0.410000,-0.265000,-0.410000,0.593000,-0.410000,0.593000,$1*%
G04 Aperture macros list end*
%ADD10C,0.010000*%
%ADD11RoundRect,0.032500X0.397500X-0.097500X0.397500X0.097500X-0.397500X0.097500X-0.397500X-0.097500X0*%
%ADD12RoundRect,0.032500X0.097500X-0.397500X0.097500X0.397500X-0.097500X0.397500X-0.097500X-0.397500X0*%
%ADD13RoundRect,0.250000X1.025000X1.000000X-1.025000X1.000000X-1.025000X-1.000000X1.025000X-1.000000X0*%
%ADD14FreePoly0,90.000000*%
%ADD15RoundRect,0.082000X0.593000X-0.328000X0.593000X0.328000X-0.593000X0.328000X-0.593000X-0.328000X0*%
%ADD16RoundRect,0.225000X0.225000X0.250000X-0.225000X0.250000X-0.225000X-0.250000X0.225000X-0.250000X0*%
%ADD17RoundRect,0.135000X-0.185000X0.135000X-0.185000X-0.135000X0.185000X-0.135000X0.185000X0.135000X0*%
%ADD18RoundRect,0.140000X-0.140000X-0.170000X0.140000X-0.170000X0.140000X0.170000X-0.140000X0.170000X0*%
%ADD19RoundRect,0.050000X-0.012949X-0.122428X0.099551X0.072428X0.012949X0.122428X-0.099551X-0.072428X0*%
%ADD20RoundRect,0.120000X0.078564X-0.183923X0.198564X0.023923X-0.078564X0.183923X-0.198564X-0.023923X0*%
%ADD21RoundRect,0.140000X0.140000X0.170000X-0.140000X0.170000X-0.140000X-0.170000X0.140000X-0.170000X0*%
%ADD22RoundRect,0.032500X0.097500X0.397500X-0.097500X0.397500X-0.097500X-0.397500X0.097500X-0.397500X0*%
%ADD23RoundRect,0.032500X0.397500X0.097500X-0.397500X0.097500X-0.397500X-0.097500X0.397500X-0.097500X0*%
%ADD24RoundRect,0.042500X0.127500X0.482500X-0.127500X0.482500X-0.127500X-0.482500X0.127500X-0.482500X0*%
%ADD25RoundRect,0.042500X0.482500X0.127500X-0.482500X0.127500X-0.482500X-0.127500X0.482500X-0.127500X0*%
%ADD26RoundRect,0.200000X0.200000X0.275000X-0.200000X0.275000X-0.200000X-0.275000X0.200000X-0.275000X0*%
%ADD27RoundRect,0.250000X-0.350000X0.450000X-0.350000X-0.450000X0.350000X-0.450000X0.350000X0.450000X0*%
%ADD28RoundRect,0.250000X0.250000X0.475000X-0.250000X0.475000X-0.250000X-0.475000X0.250000X-0.475000X0*%
%ADD29RoundRect,0.200000X-0.275000X0.200000X-0.275000X-0.200000X0.275000X-0.200000X0.275000X0.200000X0*%
%ADD30RoundRect,0.140000X0.170000X-0.140000X0.170000X0.140000X-0.170000X0.140000X-0.170000X-0.140000X0*%
%ADD31RoundRect,0.250000X-0.250000X-1.100000X0.250000X-1.100000X0.250000X1.100000X-0.250000X1.100000X0*%
%ADD32RoundRect,0.150000X-0.150000X-0.700000X0.150000X-0.700000X0.150000X0.700000X-0.150000X0.700000X0*%
%ADD33RoundRect,0.075000X0.075000X0.700000X-0.075000X0.700000X-0.075000X-0.700000X0.075000X-0.700000X0*%
%ADD34RoundRect,0.075000X0.700000X0.075000X-0.700000X0.075000X-0.700000X-0.075000X0.700000X-0.075000X0*%
G04 APERTURE END LIST*
D10*
G04 #@! TO.C,U7*
X255420000Y-47940000D02*
X254160000Y-47940000D01*
X254160000Y-47310000D01*
X255420000Y-47310000D01*
X255420000Y-47940000D01*
G36*
X255420000Y-47940000D02*
G01*
X254160000Y-47940000D01*
X254160000Y-47310000D01*
X255420000Y-47310000D01*
X255420000Y-47940000D01*
G37*
G04 #@! TO.C,U8*
X260180000Y-47950000D02*
X258920000Y-47950000D01*
X258920000Y-47320000D01*
X260180000Y-47320000D01*
X260180000Y-47950000D01*
G36*
X260180000Y-47950000D02*
G01*
X258920000Y-47950000D01*
X258920000Y-47320000D01*
X260180000Y-47320000D01*
X260180000Y-47950000D01*
G37*
G04 #@! TO.C,U1*
X147375000Y-167195000D02*
X146690000Y-167195000D01*
X146684000Y-167195000D01*
X146678000Y-167194000D01*
X146672000Y-167194000D01*
X146666000Y-167192000D01*
X146660000Y-167191000D01*
X146654000Y-167189000D01*
X146649000Y-167187000D01*
X146643000Y-167185000D01*
X146638000Y-167182000D01*
X146632000Y-167180000D01*
X146627000Y-167176000D01*
X146622000Y-167173000D01*
X146618000Y-167169000D01*
X146613000Y-167165000D01*
X146609000Y-167161000D01*
X146605000Y-167157000D01*
X146601000Y-167152000D01*
X146597000Y-167148000D01*
X146594000Y-167143000D01*
X146590000Y-167137000D01*
X146588000Y-167132000D01*
X146585000Y-167127000D01*
X146583000Y-167121000D01*
X146581000Y-167116000D01*
X146579000Y-167110000D01*
X146578000Y-167104000D01*
X146576000Y-167098000D01*
X146576000Y-167092000D01*
X146575000Y-167086000D01*
X146575000Y-167080000D01*
X146575000Y-167074000D01*
X146576000Y-167068000D01*
X146576000Y-167062000D01*
X146578000Y-167056000D01*
X146579000Y-167050000D01*
X146581000Y-167044000D01*
X146583000Y-167039000D01*
X146585000Y-167033000D01*
X146588000Y-167028000D01*
X146590000Y-167023000D01*
X146594000Y-167017000D01*
X146597000Y-167012000D01*
X146601000Y-167008000D01*
X146605000Y-167003000D01*
X146609000Y-166999000D01*
X146613000Y-166995000D01*
X146618000Y-166991000D01*
X146622000Y-166987000D01*
X146627000Y-166984000D01*
X146632000Y-166980000D01*
X146638000Y-166978000D01*
X146643000Y-166975000D01*
X146649000Y-166973000D01*
X146654000Y-166971000D01*
X146660000Y-166969000D01*
X146666000Y-166968000D01*
X146672000Y-166966000D01*
X146678000Y-166966000D01*
X146684000Y-166965000D01*
X146690000Y-166965000D01*
X147375000Y-166965000D01*
X147375000Y-167195000D01*
G36*
X147375000Y-167195000D02*
G01*
X146690000Y-167195000D01*
X146684000Y-167195000D01*
X146678000Y-167194000D01*
X146672000Y-167194000D01*
X146666000Y-167192000D01*
X146660000Y-167191000D01*
X146654000Y-167189000D01*
X146649000Y-167187000D01*
X146643000Y-167185000D01*
X146638000Y-167182000D01*
X146632000Y-167180000D01*
X146627000Y-167176000D01*
X146622000Y-167173000D01*
X146618000Y-167169000D01*
X146613000Y-167165000D01*
X146609000Y-167161000D01*
X146605000Y-167157000D01*
X146601000Y-167152000D01*
X146597000Y-167148000D01*
X146594000Y-167143000D01*
X146590000Y-167137000D01*
X146588000Y-167132000D01*
X146585000Y-167127000D01*
X146583000Y-167121000D01*
X146581000Y-167116000D01*
X146579000Y-167110000D01*
X146578000Y-167104000D01*
X146576000Y-167098000D01*
X146576000Y-167092000D01*
X146575000Y-167086000D01*
X146575000Y-167080000D01*
X146575000Y-167074000D01*
X146576000Y-167068000D01*
X146576000Y-167062000D01*
X146578000Y-167056000D01*
X146579000Y-167050000D01*
X146581000Y-167044000D01*
X146583000Y-167039000D01*
X146585000Y-167033000D01*
X146588000Y-167028000D01*
X146590000Y-167023000D01*
X146594000Y-167017000D01*
X146597000Y-167012000D01*
X146601000Y-167008000D01*
X146605000Y-167003000D01*
X146609000Y-166999000D01*
X146613000Y-166995000D01*
X146618000Y-166991000D01*
X146622000Y-166987000D01*
X146627000Y-166984000D01*
X146632000Y-166980000D01*
X146638000Y-166978000D01*
X146643000Y-166975000D01*
X146649000Y-166973000D01*
X146654000Y-166971000D01*
X146660000Y-166969000D01*
X146666000Y-166968000D01*
X146672000Y-166966000D01*
X146678000Y-166966000D01*
X146684000Y-166965000D01*
X146690000Y-166965000D01*
X147375000Y-166965000D01*
X147375000Y-167195000D01*
G37*
X147375000Y-165695000D02*
X146690000Y-165695000D01*
X146684000Y-165695000D01*
X146678000Y-165694000D01*
X146672000Y-165694000D01*
X146666000Y-165692000D01*
X146660000Y-165691000D01*
X146654000Y-165689000D01*
X146649000Y-165687000D01*
X146643000Y-165685000D01*
X146638000Y-165682000D01*
X146632000Y-165680000D01*
X146627000Y-165676000D01*
X146622000Y-165673000D01*
X146618000Y-165669000D01*
X146613000Y-165665000D01*
X146609000Y-165661000D01*
X146605000Y-165657000D01*
X146601000Y-165652000D01*
X146597000Y-165648000D01*
X146594000Y-165643000D01*
X146590000Y-165637000D01*
X146588000Y-165632000D01*
X146585000Y-165627000D01*
X146583000Y-165621000D01*
X146581000Y-165616000D01*
X146579000Y-165610000D01*
X146578000Y-165604000D01*
X146576000Y-165598000D01*
X146576000Y-165592000D01*
X146575000Y-165586000D01*
X146575000Y-165580000D01*
X146575000Y-165574000D01*
X146576000Y-165568000D01*
X146576000Y-165562000D01*
X146578000Y-165556000D01*
X146579000Y-165550000D01*
X146581000Y-165544000D01*
X146583000Y-165539000D01*
X146585000Y-165533000D01*
X146588000Y-165528000D01*
X146590000Y-165523000D01*
X146594000Y-165517000D01*
X146597000Y-165512000D01*
X146601000Y-165508000D01*
X146605000Y-165503000D01*
X146609000Y-165499000D01*
X146613000Y-165495000D01*
X146618000Y-165491000D01*
X146622000Y-165487000D01*
X146627000Y-165484000D01*
X146632000Y-165480000D01*
X146638000Y-165478000D01*
X146643000Y-165475000D01*
X146649000Y-165473000D01*
X146654000Y-165471000D01*
X146660000Y-165469000D01*
X146666000Y-165468000D01*
X146672000Y-165466000D01*
X146678000Y-165466000D01*
X146684000Y-165465000D01*
X146690000Y-165465000D01*
X147375000Y-165465000D01*
X147375000Y-165695000D01*
G36*
X147375000Y-165695000D02*
G01*
X146690000Y-165695000D01*
X146684000Y-165695000D01*
X146678000Y-165694000D01*
X146672000Y-165694000D01*
X146666000Y-165692000D01*
X146660000Y-165691000D01*
X146654000Y-165689000D01*
X146649000Y-165687000D01*
X146643000Y-165685000D01*
X146638000Y-165682000D01*
X146632000Y-165680000D01*
X146627000Y-165676000D01*
X146622000Y-165673000D01*
X146618000Y-165669000D01*
X146613000Y-165665000D01*
X146609000Y-165661000D01*
X146605000Y-165657000D01*
X146601000Y-165652000D01*
X146597000Y-165648000D01*
X146594000Y-165643000D01*
X146590000Y-165637000D01*
X146588000Y-165632000D01*
X146585000Y-165627000D01*
X146583000Y-165621000D01*
X146581000Y-165616000D01*
X146579000Y-165610000D01*
X146578000Y-165604000D01*
X146576000Y-165598000D01*
X146576000Y-165592000D01*
X146575000Y-165586000D01*
X146575000Y-165580000D01*
X146575000Y-165574000D01*
X146576000Y-165568000D01*
X146576000Y-165562000D01*
X146578000Y-165556000D01*
X146579000Y-165550000D01*
X146581000Y-165544000D01*
X146583000Y-165539000D01*
X146585000Y-165533000D01*
X146588000Y-165528000D01*
X146590000Y-165523000D01*
X146594000Y-165517000D01*
X146597000Y-165512000D01*
X146601000Y-165508000D01*
X146605000Y-165503000D01*
X146609000Y-165499000D01*
X146613000Y-165495000D01*
X146618000Y-165491000D01*
X146622000Y-165487000D01*
X146627000Y-165484000D01*
X146632000Y-165480000D01*
X146638000Y-165478000D01*
X146643000Y-165475000D01*
X146649000Y-165473000D01*
X146654000Y-165471000D01*
X146660000Y-165469000D01*
X146666000Y-165468000D01*
X146672000Y-165466000D01*
X146678000Y-165466000D01*
X146684000Y-165465000D01*
X146690000Y-165465000D01*
X147375000Y-165465000D01*
X147375000Y-165695000D01*
G37*
X146262000Y-167656000D02*
X146268000Y-167656000D01*
X146274000Y-167658000D01*
X146280000Y-167659000D01*
X146286000Y-167661000D01*
X146291000Y-167663000D01*
X146297000Y-167665000D01*
X146302000Y-167668000D01*
X146307000Y-167670000D01*
X146313000Y-167674000D01*
X146318000Y-167677000D01*
X146322000Y-167681000D01*
X146327000Y-167685000D01*
X146331000Y-167689000D01*
X146335000Y-167693000D01*
X146339000Y-167698000D01*
X146343000Y-167702000D01*
X146346000Y-167707000D01*
X146350000Y-167713000D01*
X146352000Y-167718000D01*
X146355000Y-167723000D01*
X146357000Y-167729000D01*
X146359000Y-167734000D01*
X146361000Y-167740000D01*
X146362000Y-167746000D01*
X146364000Y-167752000D01*
X146364000Y-167758000D01*
X146365000Y-167764000D01*
X146365000Y-167770000D01*
X146365000Y-168455000D01*
X146135000Y-168455000D01*
X146135000Y-167770000D01*
X146135000Y-167764000D01*
X146136000Y-167758000D01*
X146136000Y-167752000D01*
X146138000Y-167746000D01*
X146139000Y-167740000D01*
X146141000Y-167734000D01*
X146143000Y-167729000D01*
X146145000Y-167723000D01*
X146148000Y-167718000D01*
X146150000Y-167713000D01*
X146154000Y-167707000D01*
X146157000Y-167702000D01*
X146161000Y-167698000D01*
X146165000Y-167693000D01*
X146169000Y-167689000D01*
X146173000Y-167685000D01*
X146178000Y-167681000D01*
X146182000Y-167677000D01*
X146187000Y-167674000D01*
X146193000Y-167670000D01*
X146198000Y-167668000D01*
X146203000Y-167665000D01*
X146209000Y-167663000D01*
X146214000Y-167661000D01*
X146220000Y-167659000D01*
X146226000Y-167658000D01*
X146232000Y-167656000D01*
X146238000Y-167656000D01*
X146244000Y-167655000D01*
X146250000Y-167655000D01*
X146256000Y-167655000D01*
X146262000Y-167656000D01*
G36*
X146262000Y-167656000D02*
G01*
X146268000Y-167656000D01*
X146274000Y-167658000D01*
X146280000Y-167659000D01*
X146286000Y-167661000D01*
X146291000Y-167663000D01*
X146297000Y-167665000D01*
X146302000Y-167668000D01*
X146307000Y-167670000D01*
X146313000Y-167674000D01*
X146318000Y-167677000D01*
X146322000Y-167681000D01*
X146327000Y-167685000D01*
X146331000Y-167689000D01*
X146335000Y-167693000D01*
X146339000Y-167698000D01*
X146343000Y-167702000D01*
X146346000Y-167707000D01*
X146350000Y-167713000D01*
X146352000Y-167718000D01*
X146355000Y-167723000D01*
X146357000Y-167729000D01*
X146359000Y-167734000D01*
X146361000Y-167740000D01*
X146362000Y-167746000D01*
X146364000Y-167752000D01*
X146364000Y-167758000D01*
X146365000Y-167764000D01*
X146365000Y-167770000D01*
X146365000Y-168455000D01*
X146135000Y-168455000D01*
X146135000Y-167770000D01*
X146135000Y-167764000D01*
X146136000Y-167758000D01*
X146136000Y-167752000D01*
X146138000Y-167746000D01*
X146139000Y-167740000D01*
X146141000Y-167734000D01*
X146143000Y-167729000D01*
X146145000Y-167723000D01*
X146148000Y-167718000D01*
X146150000Y-167713000D01*
X146154000Y-167707000D01*
X146157000Y-167702000D01*
X146161000Y-167698000D01*
X146165000Y-167693000D01*
X146169000Y-167689000D01*
X146173000Y-167685000D01*
X146178000Y-167681000D01*
X146182000Y-167677000D01*
X146187000Y-167674000D01*
X146193000Y-167670000D01*
X146198000Y-167668000D01*
X146203000Y-167665000D01*
X146209000Y-167663000D01*
X146214000Y-167661000D01*
X146220000Y-167659000D01*
X146226000Y-167658000D01*
X146232000Y-167656000D01*
X146238000Y-167656000D01*
X146244000Y-167655000D01*
X146250000Y-167655000D01*
X146256000Y-167655000D01*
X146262000Y-167656000D01*
G37*
X146365000Y-164890000D02*
X146365000Y-164896000D01*
X146364000Y-164902000D01*
X146364000Y-164908000D01*
X146362000Y-164914000D01*
X146361000Y-164920000D01*
X146359000Y-164926000D01*
X146357000Y-164931000D01*
X146355000Y-164937000D01*
X146352000Y-164942000D01*
X146350000Y-164948000D01*
X146346000Y-164953000D01*
X146343000Y-164958000D01*
X146339000Y-164962000D01*
X146335000Y-164967000D01*
X146331000Y-164971000D01*
X146327000Y-164975000D01*
X146322000Y-164979000D01*
X146318000Y-164983000D01*
X146313000Y-164986000D01*
X146308000Y-164990000D01*
X146302000Y-164992000D01*
X146297000Y-164995000D01*
X146291000Y-164997000D01*
X146286000Y-164999000D01*
X146280000Y-165001000D01*
X146274000Y-165002000D01*
X146268000Y-165004000D01*
X146262000Y-165004000D01*
X146256000Y-165005000D01*
X146250000Y-165005000D01*
X146244000Y-165005000D01*
X146238000Y-165004000D01*
X146232000Y-165004000D01*
X146226000Y-165002000D01*
X146220000Y-165001000D01*
X146214000Y-164999000D01*
X146209000Y-164997000D01*
X146203000Y-164995000D01*
X146198000Y-164992000D01*
X146193000Y-164990000D01*
X146187000Y-164986000D01*
X146182000Y-164983000D01*
X146178000Y-164979000D01*
X146173000Y-164975000D01*
X146169000Y-164971000D01*
X146165000Y-164967000D01*
X146161000Y-164962000D01*
X146157000Y-164958000D01*
X146154000Y-164953000D01*
X146150000Y-164947000D01*
X146148000Y-164942000D01*
X146145000Y-164937000D01*
X146143000Y-164931000D01*
X146141000Y-164926000D01*
X146139000Y-164920000D01*
X146138000Y-164914000D01*
X146136000Y-164908000D01*
X146136000Y-164902000D01*
X146135000Y-164896000D01*
X146135000Y-164890000D01*
X146135000Y-164205000D01*
X146365000Y-164205000D01*
X146365000Y-164890000D01*
G36*
X146365000Y-164890000D02*
G01*
X146365000Y-164896000D01*
X146364000Y-164902000D01*
X146364000Y-164908000D01*
X146362000Y-164914000D01*
X146361000Y-164920000D01*
X146359000Y-164926000D01*
X146357000Y-164931000D01*
X146355000Y-164937000D01*
X146352000Y-164942000D01*
X146350000Y-164948000D01*
X146346000Y-164953000D01*
X146343000Y-164958000D01*
X146339000Y-164962000D01*
X146335000Y-164967000D01*
X146331000Y-164971000D01*
X146327000Y-164975000D01*
X146322000Y-164979000D01*
X146318000Y-164983000D01*
X146313000Y-164986000D01*
X146308000Y-164990000D01*
X146302000Y-164992000D01*
X146297000Y-164995000D01*
X146291000Y-164997000D01*
X146286000Y-164999000D01*
X146280000Y-165001000D01*
X146274000Y-165002000D01*
X146268000Y-165004000D01*
X146262000Y-165004000D01*
X146256000Y-165005000D01*
X146250000Y-165005000D01*
X146244000Y-165005000D01*
X146238000Y-165004000D01*
X146232000Y-165004000D01*
X146226000Y-165002000D01*
X146220000Y-165001000D01*
X146214000Y-164999000D01*
X146209000Y-164997000D01*
X146203000Y-164995000D01*
X146198000Y-164992000D01*
X146193000Y-164990000D01*
X146187000Y-164986000D01*
X146182000Y-164983000D01*
X146178000Y-164979000D01*
X146173000Y-164975000D01*
X146169000Y-164971000D01*
X146165000Y-164967000D01*
X146161000Y-164962000D01*
X146157000Y-164958000D01*
X146154000Y-164953000D01*
X146150000Y-164947000D01*
X146148000Y-164942000D01*
X146145000Y-164937000D01*
X146143000Y-164931000D01*
X146141000Y-164926000D01*
X146139000Y-164920000D01*
X146138000Y-164914000D01*
X146136000Y-164908000D01*
X146136000Y-164902000D01*
X146135000Y-164896000D01*
X146135000Y-164890000D01*
X146135000Y-164205000D01*
X146365000Y-164205000D01*
X146365000Y-164890000D01*
G37*
X145762000Y-167656000D02*
X145768000Y-167656000D01*
X145774000Y-167658000D01*
X145780000Y-167659000D01*
X145786000Y-167661000D01*
X145791000Y-167663000D01*
X145797000Y-167665000D01*
X145802000Y-167668000D01*
X145807000Y-167670000D01*
X145813000Y-167674000D01*
X145818000Y-167677000D01*
X145822000Y-167681000D01*
X145827000Y-167685000D01*
X145831000Y-167689000D01*
X145835000Y-167693000D01*
X145839000Y-167698000D01*
X145843000Y-167702000D01*
X145846000Y-167707000D01*
X145850000Y-167713000D01*
X145852000Y-167718000D01*
X145855000Y-167723000D01*
X145857000Y-167729000D01*
X145859000Y-167734000D01*
X145861000Y-167740000D01*
X145862000Y-167746000D01*
X145864000Y-167752000D01*
X145864000Y-167758000D01*
X145865000Y-167764000D01*
X145865000Y-167770000D01*
X145865000Y-168455000D01*
X145635000Y-168455000D01*
X145635000Y-167770000D01*
X145635000Y-167764000D01*
X145636000Y-167758000D01*
X145636000Y-167752000D01*
X145638000Y-167746000D01*
X145639000Y-167740000D01*
X145641000Y-167734000D01*
X145643000Y-167729000D01*
X145645000Y-167723000D01*
X145648000Y-167718000D01*
X145650000Y-167713000D01*
X145654000Y-167707000D01*
X145657000Y-167702000D01*
X145661000Y-167698000D01*
X145665000Y-167693000D01*
X145669000Y-167689000D01*
X145673000Y-167685000D01*
X145678000Y-167681000D01*
X145682000Y-167677000D01*
X145687000Y-167674000D01*
X145693000Y-167670000D01*
X145698000Y-167668000D01*
X145703000Y-167665000D01*
X145709000Y-167663000D01*
X145714000Y-167661000D01*
X145720000Y-167659000D01*
X145726000Y-167658000D01*
X145732000Y-167656000D01*
X145738000Y-167656000D01*
X145744000Y-167655000D01*
X145750000Y-167655000D01*
X145756000Y-167655000D01*
X145762000Y-167656000D01*
G36*
X145762000Y-167656000D02*
G01*
X145768000Y-167656000D01*
X145774000Y-167658000D01*
X145780000Y-167659000D01*
X145786000Y-167661000D01*
X145791000Y-167663000D01*
X145797000Y-167665000D01*
X145802000Y-167668000D01*
X145807000Y-167670000D01*
X145813000Y-167674000D01*
X145818000Y-167677000D01*
X145822000Y-167681000D01*
X145827000Y-167685000D01*
X145831000Y-167689000D01*
X145835000Y-167693000D01*
X145839000Y-167698000D01*
X145843000Y-167702000D01*
X145846000Y-167707000D01*
X145850000Y-167713000D01*
X145852000Y-167718000D01*
X145855000Y-167723000D01*
X145857000Y-167729000D01*
X145859000Y-167734000D01*
X145861000Y-167740000D01*
X145862000Y-167746000D01*
X145864000Y-167752000D01*
X145864000Y-167758000D01*
X145865000Y-167764000D01*
X145865000Y-167770000D01*
X145865000Y-168455000D01*
X145635000Y-168455000D01*
X145635000Y-167770000D01*
X145635000Y-167764000D01*
X145636000Y-167758000D01*
X145636000Y-167752000D01*
X145638000Y-167746000D01*
X145639000Y-167740000D01*
X145641000Y-167734000D01*
X145643000Y-167729000D01*
X145645000Y-167723000D01*
X145648000Y-167718000D01*
X145650000Y-167713000D01*
X145654000Y-167707000D01*
X145657000Y-167702000D01*
X145661000Y-167698000D01*
X145665000Y-167693000D01*
X145669000Y-167689000D01*
X145673000Y-167685000D01*
X145678000Y-167681000D01*
X145682000Y-167677000D01*
X145687000Y-167674000D01*
X145693000Y-167670000D01*
X145698000Y-167668000D01*
X145703000Y-167665000D01*
X145709000Y-167663000D01*
X145714000Y-167661000D01*
X145720000Y-167659000D01*
X145726000Y-167658000D01*
X145732000Y-167656000D01*
X145738000Y-167656000D01*
X145744000Y-167655000D01*
X145750000Y-167655000D01*
X145756000Y-167655000D01*
X145762000Y-167656000D01*
G37*
X145865000Y-164890000D02*
X145865000Y-164896000D01*
X145864000Y-164902000D01*
X145864000Y-164908000D01*
X145862000Y-164914000D01*
X145861000Y-164920000D01*
X145859000Y-164926000D01*
X145857000Y-164931000D01*
X145855000Y-164937000D01*
X145852000Y-164942000D01*
X145850000Y-164948000D01*
X145846000Y-164953000D01*
X145843000Y-164958000D01*
X145839000Y-164962000D01*
X145835000Y-164967000D01*
X145831000Y-164971000D01*
X145827000Y-164975000D01*
X145822000Y-164979000D01*
X145818000Y-164983000D01*
X145813000Y-164986000D01*
X145807000Y-164990000D01*
X145802000Y-164992000D01*
X145797000Y-164995000D01*
X145791000Y-164997000D01*
X145786000Y-164999000D01*
X145780000Y-165001000D01*
X145774000Y-165002000D01*
X145768000Y-165004000D01*
X145762000Y-165004000D01*
X145756000Y-165005000D01*
X145750000Y-165005000D01*
X145744000Y-165005000D01*
X145738000Y-165004000D01*
X145732000Y-165004000D01*
X145726000Y-165002000D01*
X145720000Y-165001000D01*
X145714000Y-164999000D01*
X145709000Y-164997000D01*
X145703000Y-164995000D01*
X145698000Y-164992000D01*
X145693000Y-164990000D01*
X145687000Y-164986000D01*
X145682000Y-164983000D01*
X145678000Y-164979000D01*
X145673000Y-164975000D01*
X145669000Y-164971000D01*
X145665000Y-164967000D01*
X145661000Y-164962000D01*
X145657000Y-164958000D01*
X145654000Y-164953000D01*
X145650000Y-164947000D01*
X145648000Y-164942000D01*
X145645000Y-164937000D01*
X145643000Y-164931000D01*
X145641000Y-164926000D01*
X145639000Y-164920000D01*
X145638000Y-164914000D01*
X145636000Y-164908000D01*
X145636000Y-164902000D01*
X145635000Y-164896000D01*
X145635000Y-164890000D01*
X145635000Y-164205000D01*
X145865000Y-164205000D01*
X145865000Y-164890000D01*
G36*
X145865000Y-164890000D02*
G01*
X145865000Y-164896000D01*
X145864000Y-164902000D01*
X145864000Y-164908000D01*
X145862000Y-164914000D01*
X145861000Y-164920000D01*
X145859000Y-164926000D01*
X145857000Y-164931000D01*
X145855000Y-164937000D01*
X145852000Y-164942000D01*
X145850000Y-164948000D01*
X145846000Y-164953000D01*
X145843000Y-164958000D01*
X145839000Y-164962000D01*
X145835000Y-164967000D01*
X145831000Y-164971000D01*
X145827000Y-164975000D01*
X145822000Y-164979000D01*
X145818000Y-164983000D01*
X145813000Y-164986000D01*
X145807000Y-164990000D01*
X145802000Y-164992000D01*
X145797000Y-164995000D01*
X145791000Y-164997000D01*
X145786000Y-164999000D01*
X145780000Y-165001000D01*
X145774000Y-165002000D01*
X145768000Y-165004000D01*
X145762000Y-165004000D01*
X145756000Y-165005000D01*
X145750000Y-165005000D01*
X145744000Y-165005000D01*
X145738000Y-165004000D01*
X145732000Y-165004000D01*
X145726000Y-165002000D01*
X145720000Y-165001000D01*
X145714000Y-164999000D01*
X145709000Y-164997000D01*
X145703000Y-164995000D01*
X145698000Y-164992000D01*
X145693000Y-164990000D01*
X145687000Y-164986000D01*
X145682000Y-164983000D01*
X145678000Y-164979000D01*
X145673000Y-164975000D01*
X145669000Y-164971000D01*
X145665000Y-164967000D01*
X145661000Y-164962000D01*
X145657000Y-164958000D01*
X145654000Y-164953000D01*
X145650000Y-164947000D01*
X145648000Y-164942000D01*
X145645000Y-164937000D01*
X145643000Y-164931000D01*
X145641000Y-164926000D01*
X145639000Y-164920000D01*
X145638000Y-164914000D01*
X145636000Y-164908000D01*
X145636000Y-164902000D01*
X145635000Y-164896000D01*
X145635000Y-164890000D01*
X145635000Y-164205000D01*
X145865000Y-164205000D01*
X145865000Y-164890000D01*
G37*
X145262000Y-167656000D02*
X145268000Y-167656000D01*
X145274000Y-167658000D01*
X145280000Y-167659000D01*
X145286000Y-167661000D01*
X145291000Y-167663000D01*
X145297000Y-167665000D01*
X145302000Y-167668000D01*
X145307000Y-167670000D01*
X145313000Y-167674000D01*
X145318000Y-167677000D01*
X145322000Y-167681000D01*
X145327000Y-167685000D01*
X145331000Y-167689000D01*
X145335000Y-167693000D01*
X145339000Y-167698000D01*
X145343000Y-167702000D01*
X145346000Y-167707000D01*
X145350000Y-167712000D01*
X145352000Y-167718000D01*
X145355000Y-167723000D01*
X145357000Y-167729000D01*
X145359000Y-167734000D01*
X145361000Y-167740000D01*
X145362000Y-167746000D01*
X145364000Y-167752000D01*
X145364000Y-167758000D01*
X145365000Y-167764000D01*
X145365000Y-167770000D01*
X145365000Y-168455000D01*
X145135000Y-168455000D01*
X145135000Y-167770000D01*
X145135000Y-167764000D01*
X145136000Y-167758000D01*
X145136000Y-167752000D01*
X145138000Y-167746000D01*
X145139000Y-167740000D01*
X145141000Y-167734000D01*
X145143000Y-167729000D01*
X145145000Y-167723000D01*
X145148000Y-167718000D01*
X145150000Y-167712000D01*
X145154000Y-167707000D01*
X145157000Y-167702000D01*
X145161000Y-167698000D01*
X145165000Y-167693000D01*
X145169000Y-167689000D01*
X145173000Y-167685000D01*
X145178000Y-167681000D01*
X145182000Y-167677000D01*
X145187000Y-167674000D01*
X145192000Y-167670000D01*
X145198000Y-167668000D01*
X145203000Y-167665000D01*
X145209000Y-167663000D01*
X145214000Y-167661000D01*
X145220000Y-167659000D01*
X145226000Y-167658000D01*
X145232000Y-167656000D01*
X145238000Y-167656000D01*
X145244000Y-167655000D01*
X145250000Y-167655000D01*
X145256000Y-167655000D01*
X145262000Y-167656000D01*
G36*
X145262000Y-167656000D02*
G01*
X145268000Y-167656000D01*
X145274000Y-167658000D01*
X145280000Y-167659000D01*
X145286000Y-167661000D01*
X145291000Y-167663000D01*
X145297000Y-167665000D01*
X145302000Y-167668000D01*
X145307000Y-167670000D01*
X145313000Y-167674000D01*
X145318000Y-167677000D01*
X145322000Y-167681000D01*
X145327000Y-167685000D01*
X145331000Y-167689000D01*
X145335000Y-167693000D01*
X145339000Y-167698000D01*
X145343000Y-167702000D01*
X145346000Y-167707000D01*
X145350000Y-167712000D01*
X145352000Y-167718000D01*
X145355000Y-167723000D01*
X145357000Y-167729000D01*
X145359000Y-167734000D01*
X145361000Y-167740000D01*
X145362000Y-167746000D01*
X145364000Y-167752000D01*
X145364000Y-167758000D01*
X145365000Y-167764000D01*
X145365000Y-167770000D01*
X145365000Y-168455000D01*
X145135000Y-168455000D01*
X145135000Y-167770000D01*
X145135000Y-167764000D01*
X145136000Y-167758000D01*
X145136000Y-167752000D01*
X145138000Y-167746000D01*
X145139000Y-167740000D01*
X145141000Y-167734000D01*
X145143000Y-167729000D01*
X145145000Y-167723000D01*
X145148000Y-167718000D01*
X145150000Y-167712000D01*
X145154000Y-167707000D01*
X145157000Y-167702000D01*
X145161000Y-167698000D01*
X145165000Y-167693000D01*
X145169000Y-167689000D01*
X145173000Y-167685000D01*
X145178000Y-167681000D01*
X145182000Y-167677000D01*
X145187000Y-167674000D01*
X145192000Y-167670000D01*
X145198000Y-167668000D01*
X145203000Y-167665000D01*
X145209000Y-167663000D01*
X145214000Y-167661000D01*
X145220000Y-167659000D01*
X145226000Y-167658000D01*
X145232000Y-167656000D01*
X145238000Y-167656000D01*
X145244000Y-167655000D01*
X145250000Y-167655000D01*
X145256000Y-167655000D01*
X145262000Y-167656000D01*
G37*
X145365000Y-164890000D02*
X145365000Y-164896000D01*
X145364000Y-164902000D01*
X145364000Y-164908000D01*
X145362000Y-164914000D01*
X145361000Y-164920000D01*
X145359000Y-164926000D01*
X145357000Y-164931000D01*
X145355000Y-164937000D01*
X145352000Y-164942000D01*
X145350000Y-164948000D01*
X145346000Y-164953000D01*
X145343000Y-164958000D01*
X145339000Y-164962000D01*
X145335000Y-164967000D01*
X145331000Y-164971000D01*
X145327000Y-164975000D01*
X145322000Y-164979000D01*
X145318000Y-164983000D01*
X145313000Y-164986000D01*
X145308000Y-164990000D01*
X145302000Y-164992000D01*
X145297000Y-164995000D01*
X145291000Y-164997000D01*
X145286000Y-164999000D01*
X145280000Y-165001000D01*
X145274000Y-165002000D01*
X145268000Y-165004000D01*
X145262000Y-165004000D01*
X145256000Y-165005000D01*
X145250000Y-165005000D01*
X145244000Y-165005000D01*
X145238000Y-165004000D01*
X145232000Y-165004000D01*
X145226000Y-165002000D01*
X145220000Y-165001000D01*
X145214000Y-164999000D01*
X145209000Y-164997000D01*
X145203000Y-164995000D01*
X145198000Y-164992000D01*
X145192000Y-164990000D01*
X145187000Y-164986000D01*
X145182000Y-164983000D01*
X145178000Y-164979000D01*
X145173000Y-164975000D01*
X145169000Y-164971000D01*
X145165000Y-164967000D01*
X145161000Y-164962000D01*
X145157000Y-164958000D01*
X145154000Y-164953000D01*
X145150000Y-164948000D01*
X145148000Y-164942000D01*
X145145000Y-164937000D01*
X145143000Y-164931000D01*
X145141000Y-164926000D01*
X145139000Y-164920000D01*
X145138000Y-164914000D01*
X145136000Y-164908000D01*
X145136000Y-164902000D01*
X145135000Y-164896000D01*
X145135000Y-164890000D01*
X145135000Y-164205000D01*
X145365000Y-164205000D01*
X145365000Y-164890000D01*
G36*
X145365000Y-164890000D02*
G01*
X145365000Y-164896000D01*
X145364000Y-164902000D01*
X145364000Y-164908000D01*
X145362000Y-164914000D01*
X145361000Y-164920000D01*
X145359000Y-164926000D01*
X145357000Y-164931000D01*
X145355000Y-164937000D01*
X145352000Y-164942000D01*
X145350000Y-164948000D01*
X145346000Y-164953000D01*
X145343000Y-164958000D01*
X145339000Y-164962000D01*
X145335000Y-164967000D01*
X145331000Y-164971000D01*
X145327000Y-164975000D01*
X145322000Y-164979000D01*
X145318000Y-164983000D01*
X145313000Y-164986000D01*
X145308000Y-164990000D01*
X145302000Y-164992000D01*
X145297000Y-164995000D01*
X145291000Y-164997000D01*
X145286000Y-164999000D01*
X145280000Y-165001000D01*
X145274000Y-165002000D01*
X145268000Y-165004000D01*
X145262000Y-165004000D01*
X145256000Y-165005000D01*
X145250000Y-165005000D01*
X145244000Y-165005000D01*
X145238000Y-165004000D01*
X145232000Y-165004000D01*
X145226000Y-165002000D01*
X145220000Y-165001000D01*
X145214000Y-164999000D01*
X145209000Y-164997000D01*
X145203000Y-164995000D01*
X145198000Y-164992000D01*
X145192000Y-164990000D01*
X145187000Y-164986000D01*
X145182000Y-164983000D01*
X145178000Y-164979000D01*
X145173000Y-164975000D01*
X145169000Y-164971000D01*
X145165000Y-164967000D01*
X145161000Y-164962000D01*
X145157000Y-164958000D01*
X145154000Y-164953000D01*
X145150000Y-164948000D01*
X145148000Y-164942000D01*
X145145000Y-164937000D01*
X145143000Y-164931000D01*
X145141000Y-164926000D01*
X145139000Y-164920000D01*
X145138000Y-164914000D01*
X145136000Y-164908000D01*
X145136000Y-164902000D01*
X145135000Y-164896000D01*
X145135000Y-164890000D01*
X145135000Y-164205000D01*
X145365000Y-164205000D01*
X145365000Y-164890000D01*
G37*
X144762000Y-167656000D02*
X144768000Y-167656000D01*
X144774000Y-167658000D01*
X144780000Y-167659000D01*
X144786000Y-167661000D01*
X144791000Y-167663000D01*
X144797000Y-167665000D01*
X144802000Y-167668000D01*
X144807000Y-167670000D01*
X144813000Y-167674000D01*
X144818000Y-167677000D01*
X144822000Y-167681000D01*
X144827000Y-167685000D01*
X144831000Y-167689000D01*
X144835000Y-167693000D01*
X144839000Y-167698000D01*
X144843000Y-167702000D01*
X144846000Y-167707000D01*
X144850000Y-167713000D01*
X144852000Y-167718000D01*
X144855000Y-167723000D01*
X144857000Y-167729000D01*
X144859000Y-167734000D01*
X144861000Y-167740000D01*
X144862000Y-167746000D01*
X144864000Y-167752000D01*
X144864000Y-167758000D01*
X144865000Y-167764000D01*
X144865000Y-167770000D01*
X144865000Y-168455000D01*
X144635000Y-168455000D01*
X144635000Y-167770000D01*
X144635000Y-167764000D01*
X144636000Y-167758000D01*
X144636000Y-167752000D01*
X144638000Y-167746000D01*
X144639000Y-167740000D01*
X144641000Y-167734000D01*
X144643000Y-167729000D01*
X144645000Y-167723000D01*
X144648000Y-167718000D01*
X144650000Y-167713000D01*
X144654000Y-167707000D01*
X144657000Y-167702000D01*
X144661000Y-167698000D01*
X144665000Y-167693000D01*
X144669000Y-167689000D01*
X144673000Y-167685000D01*
X144678000Y-167681000D01*
X144682000Y-167677000D01*
X144687000Y-167674000D01*
X144693000Y-167670000D01*
X144698000Y-167668000D01*
X144703000Y-167665000D01*
X144709000Y-167663000D01*
X144714000Y-167661000D01*
X144720000Y-167659000D01*
X144726000Y-167658000D01*
X144732000Y-167656000D01*
X144738000Y-167656000D01*
X144744000Y-167655000D01*
X144750000Y-167655000D01*
X144756000Y-167655000D01*
X144762000Y-167656000D01*
G36*
X144762000Y-167656000D02*
G01*
X144768000Y-167656000D01*
X144774000Y-167658000D01*
X144780000Y-167659000D01*
X144786000Y-167661000D01*
X144791000Y-167663000D01*
X144797000Y-167665000D01*
X144802000Y-167668000D01*
X144807000Y-167670000D01*
X144813000Y-167674000D01*
X144818000Y-167677000D01*
X144822000Y-167681000D01*
X144827000Y-167685000D01*
X144831000Y-167689000D01*
X144835000Y-167693000D01*
X144839000Y-167698000D01*
X144843000Y-167702000D01*
X144846000Y-167707000D01*
X144850000Y-167713000D01*
X144852000Y-167718000D01*
X144855000Y-167723000D01*
X144857000Y-167729000D01*
X144859000Y-167734000D01*
X144861000Y-167740000D01*
X144862000Y-167746000D01*
X144864000Y-167752000D01*
X144864000Y-167758000D01*
X144865000Y-167764000D01*
X144865000Y-167770000D01*
X144865000Y-168455000D01*
X144635000Y-168455000D01*
X144635000Y-167770000D01*
X144635000Y-167764000D01*
X144636000Y-167758000D01*
X144636000Y-167752000D01*
X144638000Y-167746000D01*
X144639000Y-167740000D01*
X144641000Y-167734000D01*
X144643000Y-167729000D01*
X144645000Y-167723000D01*
X144648000Y-167718000D01*
X144650000Y-167713000D01*
X144654000Y-167707000D01*
X144657000Y-167702000D01*
X144661000Y-167698000D01*
X144665000Y-167693000D01*
X144669000Y-167689000D01*
X144673000Y-167685000D01*
X144678000Y-167681000D01*
X144682000Y-167677000D01*
X144687000Y-167674000D01*
X144693000Y-167670000D01*
X144698000Y-167668000D01*
X144703000Y-167665000D01*
X144709000Y-167663000D01*
X144714000Y-167661000D01*
X144720000Y-167659000D01*
X144726000Y-167658000D01*
X144732000Y-167656000D01*
X144738000Y-167656000D01*
X144744000Y-167655000D01*
X144750000Y-167655000D01*
X144756000Y-167655000D01*
X144762000Y-167656000D01*
G37*
X144865000Y-164890000D02*
X144865000Y-164896000D01*
X144864000Y-164902000D01*
X144864000Y-164908000D01*
X144862000Y-164914000D01*
X144861000Y-164920000D01*
X144859000Y-164926000D01*
X144857000Y-164931000D01*
X144855000Y-164937000D01*
X144852000Y-164942000D01*
X144850000Y-164948000D01*
X144846000Y-164953000D01*
X144843000Y-164958000D01*
X144839000Y-164962000D01*
X144835000Y-164967000D01*
X144831000Y-164971000D01*
X144827000Y-164975000D01*
X144822000Y-164979000D01*
X144818000Y-164983000D01*
X144813000Y-164986000D01*
X144808000Y-164990000D01*
X144802000Y-164992000D01*
X144797000Y-164995000D01*
X144791000Y-164997000D01*
X144786000Y-164999000D01*
X144780000Y-165001000D01*
X144774000Y-165002000D01*
X144768000Y-165004000D01*
X144762000Y-165004000D01*
X144756000Y-165005000D01*
X144750000Y-165005000D01*
X144744000Y-165005000D01*
X144738000Y-165004000D01*
X144732000Y-165004000D01*
X144726000Y-165002000D01*
X144720000Y-165001000D01*
X144714000Y-164999000D01*
X144709000Y-164997000D01*
X144703000Y-164995000D01*
X144698000Y-164992000D01*
X144693000Y-164990000D01*
X144687000Y-164986000D01*
X144682000Y-164983000D01*
X144678000Y-164979000D01*
X144673000Y-164975000D01*
X144669000Y-164971000D01*
X144665000Y-164967000D01*
X144661000Y-164962000D01*
X144657000Y-164958000D01*
X144654000Y-164953000D01*
X144650000Y-164947000D01*
X144648000Y-164942000D01*
X144645000Y-164937000D01*
X144643000Y-164931000D01*
X144641000Y-164926000D01*
X144639000Y-164920000D01*
X144638000Y-164914000D01*
X144636000Y-164908000D01*
X144636000Y-164902000D01*
X144635000Y-164896000D01*
X144635000Y-164890000D01*
X144635000Y-164205000D01*
X144865000Y-164205000D01*
X144865000Y-164890000D01*
G36*
X144865000Y-164890000D02*
G01*
X144865000Y-164896000D01*
X144864000Y-164902000D01*
X144864000Y-164908000D01*
X144862000Y-164914000D01*
X144861000Y-164920000D01*
X144859000Y-164926000D01*
X144857000Y-164931000D01*
X144855000Y-164937000D01*
X144852000Y-164942000D01*
X144850000Y-164948000D01*
X144846000Y-164953000D01*
X144843000Y-164958000D01*
X144839000Y-164962000D01*
X144835000Y-164967000D01*
X144831000Y-164971000D01*
X144827000Y-164975000D01*
X144822000Y-164979000D01*
X144818000Y-164983000D01*
X144813000Y-164986000D01*
X144808000Y-164990000D01*
X144802000Y-164992000D01*
X144797000Y-164995000D01*
X144791000Y-164997000D01*
X144786000Y-164999000D01*
X144780000Y-165001000D01*
X144774000Y-165002000D01*
X144768000Y-165004000D01*
X144762000Y-165004000D01*
X144756000Y-165005000D01*
X144750000Y-165005000D01*
X144744000Y-165005000D01*
X144738000Y-165004000D01*
X144732000Y-165004000D01*
X144726000Y-165002000D01*
X144720000Y-165001000D01*
X144714000Y-164999000D01*
X144709000Y-164997000D01*
X144703000Y-164995000D01*
X144698000Y-164992000D01*
X144693000Y-164990000D01*
X144687000Y-164986000D01*
X144682000Y-164983000D01*
X144678000Y-164979000D01*
X144673000Y-164975000D01*
X144669000Y-164971000D01*
X144665000Y-164967000D01*
X144661000Y-164962000D01*
X144657000Y-164958000D01*
X144654000Y-164953000D01*
X144650000Y-164947000D01*
X144648000Y-164942000D01*
X144645000Y-164937000D01*
X144643000Y-164931000D01*
X144641000Y-164926000D01*
X144639000Y-164920000D01*
X144638000Y-164914000D01*
X144636000Y-164908000D01*
X144636000Y-164902000D01*
X144635000Y-164896000D01*
X144635000Y-164890000D01*
X144635000Y-164205000D01*
X144865000Y-164205000D01*
X144865000Y-164890000D01*
G37*
X144262000Y-167656000D02*
X144268000Y-167656000D01*
X144274000Y-167658000D01*
X144280000Y-167659000D01*
X144286000Y-167661000D01*
X144291000Y-167663000D01*
X144297000Y-167665000D01*
X144302000Y-167668000D01*
X144307000Y-167670000D01*
X144313000Y-167674000D01*
X144318000Y-167677000D01*
X144322000Y-167681000D01*
X144327000Y-167685000D01*
X144331000Y-167689000D01*
X144335000Y-167693000D01*
X144339000Y-167698000D01*
X144343000Y-167702000D01*
X144346000Y-167707000D01*
X144350000Y-167713000D01*
X144352000Y-167718000D01*
X144355000Y-167723000D01*
X144357000Y-167729000D01*
X144359000Y-167734000D01*
X144361000Y-167740000D01*
X144362000Y-167746000D01*
X144364000Y-167752000D01*
X144364000Y-167758000D01*
X144365000Y-167764000D01*
X144365000Y-167770000D01*
X144365000Y-168455000D01*
X144135000Y-168455000D01*
X144135000Y-167770000D01*
X144135000Y-167764000D01*
X144136000Y-167758000D01*
X144136000Y-167752000D01*
X144138000Y-167746000D01*
X144139000Y-167740000D01*
X144141000Y-167734000D01*
X144143000Y-167729000D01*
X144145000Y-167723000D01*
X144148000Y-167718000D01*
X144150000Y-167713000D01*
X144154000Y-167707000D01*
X144157000Y-167702000D01*
X144161000Y-167698000D01*
X144165000Y-167693000D01*
X144169000Y-167689000D01*
X144173000Y-167685000D01*
X144178000Y-167681000D01*
X144182000Y-167677000D01*
X144187000Y-167674000D01*
X144192000Y-167670000D01*
X144198000Y-167668000D01*
X144203000Y-167665000D01*
X144209000Y-167663000D01*
X144214000Y-167661000D01*
X144220000Y-167659000D01*
X144226000Y-167658000D01*
X144232000Y-167656000D01*
X144238000Y-167656000D01*
X144244000Y-167655000D01*
X144250000Y-167655000D01*
X144256000Y-167655000D01*
X144262000Y-167656000D01*
G36*
X144262000Y-167656000D02*
G01*
X144268000Y-167656000D01*
X144274000Y-167658000D01*
X144280000Y-167659000D01*
X144286000Y-167661000D01*
X144291000Y-167663000D01*
X144297000Y-167665000D01*
X144302000Y-167668000D01*
X144307000Y-167670000D01*
X144313000Y-167674000D01*
X144318000Y-167677000D01*
X144322000Y-167681000D01*
X144327000Y-167685000D01*
X144331000Y-167689000D01*
X144335000Y-167693000D01*
X144339000Y-167698000D01*
X144343000Y-167702000D01*
X144346000Y-167707000D01*
X144350000Y-167713000D01*
X144352000Y-167718000D01*
X144355000Y-167723000D01*
X144357000Y-167729000D01*
X144359000Y-167734000D01*
X144361000Y-167740000D01*
X144362000Y-167746000D01*
X144364000Y-167752000D01*
X144364000Y-167758000D01*
X144365000Y-167764000D01*
X144365000Y-167770000D01*
X144365000Y-168455000D01*
X144135000Y-168455000D01*
X144135000Y-167770000D01*
X144135000Y-167764000D01*
X144136000Y-167758000D01*
X144136000Y-167752000D01*
X144138000Y-167746000D01*
X144139000Y-167740000D01*
X144141000Y-167734000D01*
X144143000Y-167729000D01*
X144145000Y-167723000D01*
X144148000Y-167718000D01*
X144150000Y-167713000D01*
X144154000Y-167707000D01*
X144157000Y-167702000D01*
X144161000Y-167698000D01*
X144165000Y-167693000D01*
X144169000Y-167689000D01*
X144173000Y-167685000D01*
X144178000Y-167681000D01*
X144182000Y-167677000D01*
X144187000Y-167674000D01*
X144192000Y-167670000D01*
X144198000Y-167668000D01*
X144203000Y-167665000D01*
X144209000Y-167663000D01*
X144214000Y-167661000D01*
X144220000Y-167659000D01*
X144226000Y-167658000D01*
X144232000Y-167656000D01*
X144238000Y-167656000D01*
X144244000Y-167655000D01*
X144250000Y-167655000D01*
X144256000Y-167655000D01*
X144262000Y-167656000D01*
G37*
X144365000Y-164890000D02*
X144365000Y-164896000D01*
X144364000Y-164902000D01*
X144364000Y-164908000D01*
X144362000Y-164914000D01*
X144361000Y-164920000D01*
X144359000Y-164926000D01*
X144357000Y-164931000D01*
X144355000Y-164937000D01*
X144352000Y-164942000D01*
X144350000Y-164948000D01*
X144346000Y-164953000D01*
X144343000Y-164958000D01*
X144339000Y-164962000D01*
X144335000Y-164967000D01*
X144331000Y-164971000D01*
X144327000Y-164975000D01*
X144322000Y-164979000D01*
X144318000Y-164983000D01*
X144313000Y-164986000D01*
X144307000Y-164990000D01*
X144302000Y-164992000D01*
X144297000Y-164995000D01*
X144291000Y-164997000D01*
X144286000Y-164999000D01*
X144280000Y-165001000D01*
X144274000Y-165002000D01*
X144268000Y-165004000D01*
X144262000Y-165004000D01*
X144256000Y-165005000D01*
X144250000Y-165005000D01*
X144244000Y-165005000D01*
X144238000Y-165004000D01*
X144232000Y-165004000D01*
X144226000Y-165002000D01*
X144220000Y-165001000D01*
X144214000Y-164999000D01*
X144209000Y-164997000D01*
X144203000Y-164995000D01*
X144198000Y-164992000D01*
X144192000Y-164990000D01*
X144187000Y-164986000D01*
X144182000Y-164983000D01*
X144178000Y-164979000D01*
X144173000Y-164975000D01*
X144169000Y-164971000D01*
X144165000Y-164967000D01*
X144161000Y-164962000D01*
X144157000Y-164958000D01*
X144154000Y-164953000D01*
X144150000Y-164947000D01*
X144148000Y-164942000D01*
X144145000Y-164937000D01*
X144143000Y-164931000D01*
X144141000Y-164926000D01*
X144139000Y-164920000D01*
X144138000Y-164914000D01*
X144136000Y-164908000D01*
X144136000Y-164902000D01*
X144135000Y-164896000D01*
X144135000Y-164890000D01*
X144135000Y-164205000D01*
X144365000Y-164205000D01*
X144365000Y-164890000D01*
G36*
X144365000Y-164890000D02*
G01*
X144365000Y-164896000D01*
X144364000Y-164902000D01*
X144364000Y-164908000D01*
X144362000Y-164914000D01*
X144361000Y-164920000D01*
X144359000Y-164926000D01*
X144357000Y-164931000D01*
X144355000Y-164937000D01*
X144352000Y-164942000D01*
X144350000Y-164948000D01*
X144346000Y-164953000D01*
X144343000Y-164958000D01*
X144339000Y-164962000D01*
X144335000Y-164967000D01*
X144331000Y-164971000D01*
X144327000Y-164975000D01*
X144322000Y-164979000D01*
X144318000Y-164983000D01*
X144313000Y-164986000D01*
X144307000Y-164990000D01*
X144302000Y-164992000D01*
X144297000Y-164995000D01*
X144291000Y-164997000D01*
X144286000Y-164999000D01*
X144280000Y-165001000D01*
X144274000Y-165002000D01*
X144268000Y-165004000D01*
X144262000Y-165004000D01*
X144256000Y-165005000D01*
X144250000Y-165005000D01*
X144244000Y-165005000D01*
X144238000Y-165004000D01*
X144232000Y-165004000D01*
X144226000Y-165002000D01*
X144220000Y-165001000D01*
X144214000Y-164999000D01*
X144209000Y-164997000D01*
X144203000Y-164995000D01*
X144198000Y-164992000D01*
X144192000Y-164990000D01*
X144187000Y-164986000D01*
X144182000Y-164983000D01*
X144178000Y-164979000D01*
X144173000Y-164975000D01*
X144169000Y-164971000D01*
X144165000Y-164967000D01*
X144161000Y-164962000D01*
X144157000Y-164958000D01*
X144154000Y-164953000D01*
X144150000Y-164947000D01*
X144148000Y-164942000D01*
X144145000Y-164937000D01*
X144143000Y-164931000D01*
X144141000Y-164926000D01*
X144139000Y-164920000D01*
X144138000Y-164914000D01*
X144136000Y-164908000D01*
X144136000Y-164902000D01*
X144135000Y-164896000D01*
X144135000Y-164890000D01*
X144135000Y-164205000D01*
X144365000Y-164205000D01*
X144365000Y-164890000D01*
G37*
X143822000Y-166966000D02*
X143828000Y-166966000D01*
X143834000Y-166968000D01*
X143840000Y-166969000D01*
X143846000Y-166971000D01*
X143851000Y-166973000D01*
X143857000Y-166975000D01*
X143862000Y-166978000D01*
X143867000Y-166980000D01*
X143873000Y-166984000D01*
X143878000Y-166987000D01*
X143882000Y-166991000D01*
X143887000Y-166995000D01*
X143891000Y-166999000D01*
X143895000Y-167003000D01*
X143899000Y-167008000D01*
X143903000Y-167012000D01*
X143906000Y-167017000D01*
X143910000Y-167023000D01*
X143912000Y-167028000D01*
X143915000Y-167033000D01*
X143917000Y-167039000D01*
X143919000Y-167044000D01*
X143921000Y-167050000D01*
X143922000Y-167056000D01*
X143924000Y-167062000D01*
X143924000Y-167068000D01*
X143925000Y-167074000D01*
X143925000Y-167080000D01*
X143925000Y-167086000D01*
X143924000Y-167092000D01*
X143924000Y-167098000D01*
X143922000Y-167104000D01*
X143921000Y-167110000D01*
X143919000Y-167116000D01*
X143917000Y-167121000D01*
X143915000Y-167127000D01*
X143912000Y-167132000D01*
X143910000Y-167137000D01*
X143906000Y-167143000D01*
X143903000Y-167148000D01*
X143899000Y-167152000D01*
X143895000Y-167157000D01*
X143891000Y-167161000D01*
X143887000Y-167165000D01*
X143882000Y-167169000D01*
X143878000Y-167173000D01*
X143873000Y-167176000D01*
X143868000Y-167180000D01*
X143862000Y-167182000D01*
X143857000Y-167185000D01*
X143851000Y-167187000D01*
X143846000Y-167189000D01*
X143840000Y-167191000D01*
X143834000Y-167192000D01*
X143828000Y-167194000D01*
X143822000Y-167194000D01*
X143816000Y-167195000D01*
X143810000Y-167195000D01*
X143125000Y-167195000D01*
X143125000Y-166965000D01*
X143810000Y-166965000D01*
X143816000Y-166965000D01*
X143822000Y-166966000D01*
G36*
X143822000Y-166966000D02*
G01*
X143828000Y-166966000D01*
X143834000Y-166968000D01*
X143840000Y-166969000D01*
X143846000Y-166971000D01*
X143851000Y-166973000D01*
X143857000Y-166975000D01*
X143862000Y-166978000D01*
X143867000Y-166980000D01*
X143873000Y-166984000D01*
X143878000Y-166987000D01*
X143882000Y-166991000D01*
X143887000Y-166995000D01*
X143891000Y-166999000D01*
X143895000Y-167003000D01*
X143899000Y-167008000D01*
X143903000Y-167012000D01*
X143906000Y-167017000D01*
X143910000Y-167023000D01*
X143912000Y-167028000D01*
X143915000Y-167033000D01*
X143917000Y-167039000D01*
X143919000Y-167044000D01*
X143921000Y-167050000D01*
X143922000Y-167056000D01*
X143924000Y-167062000D01*
X143924000Y-167068000D01*
X143925000Y-167074000D01*
X143925000Y-167080000D01*
X143925000Y-167086000D01*
X143924000Y-167092000D01*
X143924000Y-167098000D01*
X143922000Y-167104000D01*
X143921000Y-167110000D01*
X143919000Y-167116000D01*
X143917000Y-167121000D01*
X143915000Y-167127000D01*
X143912000Y-167132000D01*
X143910000Y-167137000D01*
X143906000Y-167143000D01*
X143903000Y-167148000D01*
X143899000Y-167152000D01*
X143895000Y-167157000D01*
X143891000Y-167161000D01*
X143887000Y-167165000D01*
X143882000Y-167169000D01*
X143878000Y-167173000D01*
X143873000Y-167176000D01*
X143868000Y-167180000D01*
X143862000Y-167182000D01*
X143857000Y-167185000D01*
X143851000Y-167187000D01*
X143846000Y-167189000D01*
X143840000Y-167191000D01*
X143834000Y-167192000D01*
X143828000Y-167194000D01*
X143822000Y-167194000D01*
X143816000Y-167195000D01*
X143810000Y-167195000D01*
X143125000Y-167195000D01*
X143125000Y-166965000D01*
X143810000Y-166965000D01*
X143816000Y-166965000D01*
X143822000Y-166966000D01*
G37*
X143822000Y-165466000D02*
X143828000Y-165466000D01*
X143834000Y-165468000D01*
X143840000Y-165469000D01*
X143846000Y-165471000D01*
X143851000Y-165473000D01*
X143857000Y-165475000D01*
X143862000Y-165478000D01*
X143867000Y-165480000D01*
X143873000Y-165484000D01*
X143878000Y-165487000D01*
X143882000Y-165491000D01*
X143887000Y-165495000D01*
X143891000Y-165499000D01*
X143895000Y-165503000D01*
X143899000Y-165508000D01*
X143903000Y-165512000D01*
X143906000Y-165517000D01*
X143910000Y-165523000D01*
X143912000Y-165528000D01*
X143915000Y-165533000D01*
X143917000Y-165539000D01*
X143919000Y-165544000D01*
X143921000Y-165550000D01*
X143922000Y-165556000D01*
X143924000Y-165562000D01*
X143924000Y-165568000D01*
X143925000Y-165574000D01*
X143925000Y-165580000D01*
X143925000Y-165586000D01*
X143924000Y-165592000D01*
X143924000Y-165598000D01*
X143922000Y-165604000D01*
X143921000Y-165610000D01*
X143919000Y-165616000D01*
X143917000Y-165621000D01*
X143915000Y-165627000D01*
X143912000Y-165632000D01*
X143910000Y-165637000D01*
X143906000Y-165643000D01*
X143903000Y-165648000D01*
X143899000Y-165652000D01*
X143895000Y-165657000D01*
X143891000Y-165661000D01*
X143887000Y-165665000D01*
X143882000Y-165669000D01*
X143878000Y-165673000D01*
X143873000Y-165676000D01*
X143868000Y-165680000D01*
X143862000Y-165682000D01*
X143857000Y-165685000D01*
X143851000Y-165687000D01*
X143846000Y-165689000D01*
X143840000Y-165691000D01*
X143834000Y-165692000D01*
X143828000Y-165694000D01*
X143822000Y-165694000D01*
X143816000Y-165695000D01*
X143810000Y-165695000D01*
X143125000Y-165695000D01*
X143125000Y-165465000D01*
X143810000Y-165465000D01*
X143816000Y-165465000D01*
X143822000Y-165466000D01*
G36*
X143822000Y-165466000D02*
G01*
X143828000Y-165466000D01*
X143834000Y-165468000D01*
X143840000Y-165469000D01*
X143846000Y-165471000D01*
X143851000Y-165473000D01*
X143857000Y-165475000D01*
X143862000Y-165478000D01*
X143867000Y-165480000D01*
X143873000Y-165484000D01*
X143878000Y-165487000D01*
X143882000Y-165491000D01*
X143887000Y-165495000D01*
X143891000Y-165499000D01*
X143895000Y-165503000D01*
X143899000Y-165508000D01*
X143903000Y-165512000D01*
X143906000Y-165517000D01*
X143910000Y-165523000D01*
X143912000Y-165528000D01*
X143915000Y-165533000D01*
X143917000Y-165539000D01*
X143919000Y-165544000D01*
X143921000Y-165550000D01*
X143922000Y-165556000D01*
X143924000Y-165562000D01*
X143924000Y-165568000D01*
X143925000Y-165574000D01*
X143925000Y-165580000D01*
X143925000Y-165586000D01*
X143924000Y-165592000D01*
X143924000Y-165598000D01*
X143922000Y-165604000D01*
X143921000Y-165610000D01*
X143919000Y-165616000D01*
X143917000Y-165621000D01*
X143915000Y-165627000D01*
X143912000Y-165632000D01*
X143910000Y-165637000D01*
X143906000Y-165643000D01*
X143903000Y-165648000D01*
X143899000Y-165652000D01*
X143895000Y-165657000D01*
X143891000Y-165661000D01*
X143887000Y-165665000D01*
X143882000Y-165669000D01*
X143878000Y-165673000D01*
X143873000Y-165676000D01*
X143868000Y-165680000D01*
X143862000Y-165682000D01*
X143857000Y-165685000D01*
X143851000Y-165687000D01*
X143846000Y-165689000D01*
X143840000Y-165691000D01*
X143834000Y-165692000D01*
X143828000Y-165694000D01*
X143822000Y-165694000D01*
X143816000Y-165695000D01*
X143810000Y-165695000D01*
X143125000Y-165695000D01*
X143125000Y-165465000D01*
X143810000Y-165465000D01*
X143816000Y-165465000D01*
X143822000Y-165466000D01*
G37*
X146220000Y-167300000D02*
X145400000Y-167300000D01*
X145400000Y-166480000D01*
X146220000Y-166480000D01*
X146220000Y-167300000D01*
G36*
X146220000Y-167300000D02*
G01*
X145400000Y-167300000D01*
X145400000Y-166480000D01*
X146220000Y-166480000D01*
X146220000Y-167300000D01*
G37*
X146220000Y-166180000D02*
X145400000Y-166180000D01*
X145400000Y-165360000D01*
X146220000Y-165360000D01*
X146220000Y-166180000D01*
G36*
X146220000Y-166180000D02*
G01*
X145400000Y-166180000D01*
X145400000Y-165360000D01*
X146220000Y-165360000D01*
X146220000Y-166180000D01*
G37*
X145100000Y-167300000D02*
X144280000Y-167300000D01*
X144280000Y-166480000D01*
X145100000Y-166480000D01*
X145100000Y-167300000D01*
G36*
X145100000Y-167300000D02*
G01*
X144280000Y-167300000D01*
X144280000Y-166480000D01*
X145100000Y-166480000D01*
X145100000Y-167300000D01*
G37*
X145100000Y-166180000D02*
X144280000Y-166180000D01*
X144280000Y-165360000D01*
X145100000Y-165360000D01*
X145100000Y-166180000D01*
G36*
X145100000Y-166180000D02*
G01*
X144280000Y-166180000D01*
X144280000Y-165360000D01*
X145100000Y-165360000D01*
X145100000Y-166180000D01*
G37*
G04 #@! TO.C,U12*
X58200000Y-142400000D02*
X57570000Y-142400000D01*
X57570000Y-141140000D01*
X58200000Y-141140000D01*
X58200000Y-142400000D01*
G36*
X58200000Y-142400000D02*
G01*
X57570000Y-142400000D01*
X57570000Y-141140000D01*
X58200000Y-141140000D01*
X58200000Y-142400000D01*
G37*
G04 #@! TO.C,U6*
X107780000Y-47950000D02*
X106520000Y-47950000D01*
X106520000Y-47320000D01*
X107780000Y-47320000D01*
X107780000Y-47950000D01*
G36*
X107780000Y-47950000D02*
G01*
X106520000Y-47950000D01*
X106520000Y-47320000D01*
X107780000Y-47320000D01*
X107780000Y-47950000D01*
G37*
G04 #@! TO.C,U4*
X105155000Y-165585000D02*
X104155000Y-165585000D01*
X104155000Y-164585000D01*
X105155000Y-164585000D01*
X105155000Y-165585000D01*
G36*
X105155000Y-165585000D02*
G01*
X104155000Y-165585000D01*
X104155000Y-164585000D01*
X105155000Y-164585000D01*
X105155000Y-165585000D01*
G37*
X105155000Y-164195000D02*
X104155000Y-164195000D01*
X104155000Y-163195000D01*
X105155000Y-163195000D01*
X105155000Y-164195000D01*
G36*
X105155000Y-164195000D02*
G01*
X104155000Y-164195000D01*
X104155000Y-163195000D01*
X105155000Y-163195000D01*
X105155000Y-164195000D01*
G37*
X103765000Y-165585000D02*
X102765000Y-165585000D01*
X102765000Y-164585000D01*
X103765000Y-164585000D01*
X103765000Y-165585000D01*
G36*
X103765000Y-165585000D02*
G01*
X102765000Y-165585000D01*
X102765000Y-164585000D01*
X103765000Y-164585000D01*
X103765000Y-165585000D01*
G37*
X103765000Y-164195000D02*
X102765000Y-164195000D01*
X102765000Y-163195000D01*
X103765000Y-163195000D01*
X103765000Y-164195000D01*
G36*
X103765000Y-164195000D02*
G01*
X102765000Y-164195000D01*
X102765000Y-163195000D01*
X103765000Y-163195000D01*
X103765000Y-164195000D01*
G37*
G04 #@! TO.C,U9*
X85610000Y-163020000D02*
X84980000Y-163020000D01*
X84980000Y-161760000D01*
X85610000Y-161760000D01*
X85610000Y-163020000D01*
G36*
X85610000Y-163020000D02*
G01*
X84980000Y-163020000D01*
X84980000Y-161760000D01*
X85610000Y-161760000D01*
X85610000Y-163020000D01*
G37*
G04 #@! TO.C,U14*
X72050000Y-163020000D02*
X71420000Y-163020000D01*
X71420000Y-161760000D01*
X72050000Y-161760000D01*
X72050000Y-163020000D01*
G36*
X72050000Y-163020000D02*
G01*
X71420000Y-163020000D01*
X71420000Y-161760000D01*
X72050000Y-161760000D01*
X72050000Y-163020000D01*
G37*
G04 #@! TO.C,U17*
X58490000Y-154730000D02*
X57860000Y-154730000D01*
X57860000Y-153470000D01*
X58490000Y-153470000D01*
X58490000Y-154730000D01*
G36*
X58490000Y-154730000D02*
G01*
X57860000Y-154730000D01*
X57860000Y-153470000D01*
X58490000Y-153470000D01*
X58490000Y-154730000D01*
G37*
G04 #@! TO.C,U19*
X65270000Y-154730000D02*
X64640000Y-154730000D01*
X64640000Y-153470000D01*
X65270000Y-153470000D01*
X65270000Y-154730000D01*
G36*
X65270000Y-154730000D02*
G01*
X64640000Y-154730000D01*
X64640000Y-153470000D01*
X65270000Y-153470000D01*
X65270000Y-154730000D01*
G37*
G04 #@! TO.C,U11*
X72050000Y-154730000D02*
X71420000Y-154730000D01*
X71420000Y-153470000D01*
X72050000Y-153470000D01*
X72050000Y-154730000D01*
G36*
X72050000Y-154730000D02*
G01*
X71420000Y-154730000D01*
X71420000Y-153470000D01*
X72050000Y-153470000D01*
X72050000Y-154730000D01*
G37*
G04 #@! TO.C,U3*
X133705000Y-120295000D02*
X132705000Y-120295000D01*
X132705000Y-119295000D01*
X133705000Y-119295000D01*
X133705000Y-120295000D01*
G36*
X133705000Y-120295000D02*
G01*
X132705000Y-120295000D01*
X132705000Y-119295000D01*
X133705000Y-119295000D01*
X133705000Y-120295000D01*
G37*
X133705000Y-118905000D02*
X132705000Y-118905000D01*
X132705000Y-117905000D01*
X133705000Y-117905000D01*
X133705000Y-118905000D01*
G36*
X133705000Y-118905000D02*
G01*
X132705000Y-118905000D01*
X132705000Y-117905000D01*
X133705000Y-117905000D01*
X133705000Y-118905000D01*
G37*
X132315000Y-120295000D02*
X131315000Y-120295000D01*
X131315000Y-119295000D01*
X132315000Y-119295000D01*
X132315000Y-120295000D01*
G36*
X132315000Y-120295000D02*
G01*
X131315000Y-120295000D01*
X131315000Y-119295000D01*
X132315000Y-119295000D01*
X132315000Y-120295000D01*
G37*
X132315000Y-118905000D02*
X131315000Y-118905000D01*
X131315000Y-117905000D01*
X132315000Y-117905000D01*
X132315000Y-118905000D01*
G36*
X132315000Y-118905000D02*
G01*
X131315000Y-118905000D01*
X131315000Y-117905000D01*
X132315000Y-117905000D01*
X132315000Y-118905000D01*
G37*
G04 #@! TO.C,U13*
X78830000Y-171310000D02*
X78200000Y-171310000D01*
X78200000Y-170050000D01*
X78830000Y-170050000D01*
X78830000Y-171310000D01*
G36*
X78830000Y-171310000D02*
G01*
X78200000Y-171310000D01*
X78200000Y-170050000D01*
X78830000Y-170050000D01*
X78830000Y-171310000D01*
G37*
G04 #@! TO.C,U15*
X85610000Y-179600000D02*
X84980000Y-179600000D01*
X84980000Y-178340000D01*
X85610000Y-178340000D01*
X85610000Y-179600000D01*
G36*
X85610000Y-179600000D02*
G01*
X84980000Y-179600000D01*
X84980000Y-178340000D01*
X85610000Y-178340000D01*
X85610000Y-179600000D01*
G37*
G04 #@! TO.C,U20*
X78830000Y-154730000D02*
X78200000Y-154730000D01*
X78200000Y-153470000D01*
X78830000Y-153470000D01*
X78830000Y-154730000D01*
G36*
X78830000Y-154730000D02*
G01*
X78200000Y-154730000D01*
X78200000Y-153470000D01*
X78830000Y-153470000D01*
X78830000Y-154730000D01*
G37*
G04 #@! TO.C,U5*
X103020000Y-47940000D02*
X101760000Y-47940000D01*
X101760000Y-47310000D01*
X103020000Y-47310000D01*
X103020000Y-47940000D01*
G36*
X103020000Y-47940000D02*
G01*
X101760000Y-47940000D01*
X101760000Y-47310000D01*
X103020000Y-47310000D01*
X103020000Y-47940000D01*
G37*
G04 #@! TO.C,U18*
X85610000Y-171310000D02*
X84980000Y-171310000D01*
X84980000Y-170050000D01*
X85610000Y-170050000D01*
X85610000Y-171310000D01*
G36*
X85610000Y-171310000D02*
G01*
X84980000Y-171310000D01*
X84980000Y-170050000D01*
X85610000Y-170050000D01*
X85610000Y-171310000D01*
G37*
G04 #@! TO.C,U16*
X71760000Y-142400000D02*
X71130000Y-142400000D01*
X71130000Y-141140000D01*
X71760000Y-141140000D01*
X71760000Y-142400000D01*
G36*
X71760000Y-142400000D02*
G01*
X71130000Y-142400000D01*
X71130000Y-141140000D01*
X71760000Y-141140000D01*
X71760000Y-142400000D01*
G37*
G04 #@! TO.C,U10*
X78830000Y-179600000D02*
X78200000Y-179600000D01*
X78200000Y-178340000D01*
X78830000Y-178340000D01*
X78830000Y-179600000D01*
G36*
X78830000Y-179600000D02*
G01*
X78200000Y-179600000D01*
X78200000Y-178340000D01*
X78830000Y-178340000D01*
X78830000Y-179600000D01*
G37*
G04 #@! TD*
D11*
G04 #@! TO.C,U7*
X256475000Y-47875000D03*
D12*
X256040000Y-48810000D03*
X255540000Y-48810000D03*
X255040000Y-48810000D03*
X254540000Y-48810000D03*
X254040000Y-48810000D03*
X253540000Y-48810000D03*
D11*
X253105000Y-47875000D03*
X253105000Y-47375000D03*
D12*
X253540000Y-46440000D03*
X254040000Y-46440000D03*
X254540000Y-46440000D03*
X255040000Y-46440000D03*
X255540000Y-46440000D03*
X256040000Y-46440000D03*
D11*
X256475000Y-47375000D03*
G04 #@! TD*
G04 #@! TO.C,U8*
X261235000Y-47885000D03*
D12*
X260800000Y-48820000D03*
X260300000Y-48820000D03*
X259800000Y-48820000D03*
X259300000Y-48820000D03*
X258800000Y-48820000D03*
X258300000Y-48820000D03*
D11*
X257865000Y-47885000D03*
X257865000Y-47385000D03*
D12*
X258300000Y-46450000D03*
X258800000Y-46450000D03*
X259300000Y-46450000D03*
X259800000Y-46450000D03*
X260300000Y-46450000D03*
X260800000Y-46450000D03*
D11*
X261235000Y-47385000D03*
G04 #@! TD*
D13*
G04 #@! TO.C,S46*
X113220500Y-100330000D03*
X126147500Y-97790000D03*
G04 #@! TD*
G04 #@! TO.C,S61*
X248951750Y-119380000D03*
X261878750Y-116840000D03*
G04 #@! TD*
G04 #@! TO.C,S30*
X65595500Y-81280000D03*
X78522500Y-78740000D03*
G04 #@! TD*
G04 #@! TO.C,S36*
X179895500Y-81280000D03*
X192822500Y-78740000D03*
G04 #@! TD*
G04 #@! TO.C,S6*
X127508000Y-43180000D03*
X140435000Y-40640000D03*
G04 #@! TD*
G04 #@! TO.C,S10*
X203708000Y-43180000D03*
X216635000Y-40640000D03*
G04 #@! TD*
G04 #@! TO.C,S35*
X160845500Y-81280000D03*
X173772500Y-78740000D03*
G04 #@! TD*
G04 #@! TO.C,S8*
X165608000Y-43180000D03*
X178535000Y-40640000D03*
G04 #@! TD*
G04 #@! TO.C,S34*
X141795500Y-81280000D03*
X154722500Y-78740000D03*
G04 #@! TD*
G04 #@! TO.C,S19*
X117983000Y-62230000D03*
X130910000Y-59690000D03*
G04 #@! TD*
G04 #@! TO.C,S7*
X146558000Y-43180000D03*
X159485000Y-40640000D03*
G04 #@! TD*
G04 #@! TO.C,S43*
X44164250Y-100330000D03*
X57091250Y-97790000D03*
G04 #@! TD*
G04 #@! TO.C,S17*
X79883000Y-62230000D03*
X92810000Y-59690000D03*
G04 #@! TD*
G04 #@! TO.C,S21*
X156083000Y-62230000D03*
X169010000Y-59690000D03*
G04 #@! TD*
G04 #@! TO.C,S33*
X122745500Y-81280000D03*
X135672500Y-78740000D03*
G04 #@! TD*
G04 #@! TO.C,S1*
X32258000Y-43180000D03*
X45185000Y-40640000D03*
G04 #@! TD*
G04 #@! TO.C,S4*
X89408000Y-43180000D03*
X102335000Y-40640000D03*
G04 #@! TD*
G04 #@! TO.C,S24*
X213233000Y-62230000D03*
X226160000Y-59690000D03*
G04 #@! TD*
G04 #@! TO.C,S56*
X34639250Y-119380000D03*
X47566250Y-116840000D03*
G04 #@! TD*
G04 #@! TO.C,S44*
X75120500Y-100330000D03*
X88047500Y-97790000D03*
G04 #@! TD*
G04 #@! TO.C,S9*
X184658000Y-43180000D03*
X197585000Y-40640000D03*
G04 #@! TD*
G04 #@! TO.C,S62*
X272764250Y-119380000D03*
X285691250Y-116840000D03*
G04 #@! TD*
G04 #@! TO.C,S38*
X217995500Y-81280000D03*
X230922500Y-78740000D03*
G04 #@! TD*
G04 #@! TO.C,S14*
X289433000Y-43180000D03*
X302360000Y-40640000D03*
G04 #@! TD*
G04 #@! TO.C,S15*
X37020500Y-62230000D03*
X49947500Y-59690000D03*
G04 #@! TD*
G04 #@! TO.C,S57*
X58451750Y-119380000D03*
X71378750Y-116840000D03*
G04 #@! TD*
G04 #@! TO.C,S16*
X60833000Y-62230000D03*
X73760000Y-59690000D03*
G04 #@! TD*
G04 #@! TO.C,S23*
X194183000Y-62230000D03*
X207110000Y-59690000D03*
G04 #@! TD*
G04 #@! TO.C,S32*
X103695500Y-81280000D03*
X116622500Y-78740000D03*
G04 #@! TD*
G04 #@! TO.C,S12*
X241808000Y-43180000D03*
X254735000Y-40640000D03*
G04 #@! TD*
G04 #@! TO.C,S31*
X84645500Y-81280000D03*
X97572500Y-78740000D03*
G04 #@! TD*
G04 #@! TO.C,S26*
X251333000Y-62230000D03*
X264260000Y-59690000D03*
G04 #@! TD*
G04 #@! TO.C,S25*
X232283000Y-62230000D03*
X245210000Y-59690000D03*
G04 #@! TD*
G04 #@! TO.C,S47*
X132270500Y-100330000D03*
X145197500Y-97790000D03*
G04 #@! TD*
G04 #@! TO.C,S2*
X51308000Y-43180000D03*
X64235000Y-40640000D03*
G04 #@! TD*
G04 #@! TO.C,S52*
X227520500Y-100330000D03*
X240447500Y-97790000D03*
G04 #@! TD*
G04 #@! TO.C,S49*
X170370500Y-100330000D03*
X183297500Y-97790000D03*
G04 #@! TD*
G04 #@! TO.C,S37*
X198945500Y-81280000D03*
X211872500Y-78740000D03*
G04 #@! TD*
G04 #@! TO.C,S42*
X318008000Y-81280000D03*
X330935000Y-78740000D03*
G04 #@! TD*
G04 #@! TO.C,S54*
X282289250Y-100330000D03*
X295216250Y-97790000D03*
G04 #@! TD*
G04 #@! TO.C,S64*
X318008000Y-119380000D03*
X330935000Y-116840000D03*
G04 #@! TD*
G04 #@! TO.C,S13*
X260858000Y-43180000D03*
X273785000Y-40640000D03*
G04 #@! TD*
G04 #@! TO.C,S53*
X246570500Y-100330000D03*
X259497500Y-97790000D03*
G04 #@! TD*
G04 #@! TO.C,S29*
X39401750Y-81280000D03*
X52328750Y-78740000D03*
G04 #@! TD*
G04 #@! TO.C,S3*
X70358000Y-43180000D03*
X83285000Y-40640000D03*
G04 #@! TD*
G04 #@! TO.C,S39*
X237045500Y-81280000D03*
X249972500Y-78740000D03*
G04 #@! TD*
G04 #@! TO.C,S11*
X222758000Y-43180000D03*
X235685000Y-40640000D03*
G04 #@! TD*
G04 #@! TO.C,S45*
X94170500Y-100330000D03*
X107097500Y-97790000D03*
G04 #@! TD*
G04 #@! TO.C,S59*
X153701750Y-119380000D03*
X166628750Y-116840000D03*
G04 #@! TD*
G04 #@! TO.C,S20*
X137033000Y-62230000D03*
X149960000Y-59690000D03*
G04 #@! TD*
G04 #@! TO.C,S28*
X294195500Y-62230000D03*
X307122500Y-59690000D03*
G04 #@! TD*
G04 #@! TO.C,S27*
X270383000Y-62230000D03*
X283310000Y-59690000D03*
G04 #@! TD*
G04 #@! TO.C,S22*
X175133000Y-62230000D03*
X188060000Y-59690000D03*
G04 #@! TD*
G04 #@! TO.C,S55*
X318008000Y-100330000D03*
X330935000Y-97790000D03*
G04 #@! TD*
G04 #@! TO.C,S48*
X151320500Y-100330000D03*
X164247500Y-97790000D03*
G04 #@! TD*
G04 #@! TO.C,S58*
X82264250Y-119380000D03*
X95191250Y-116840000D03*
G04 #@! TD*
G04 #@! TO.C,S50*
X189420500Y-100330000D03*
X202347500Y-97790000D03*
G04 #@! TD*
G04 #@! TO.C,S5*
X108458000Y-43180000D03*
X121385000Y-40640000D03*
G04 #@! TD*
G04 #@! TO.C,S40*
X256095500Y-81280000D03*
X269022500Y-78740000D03*
G04 #@! TD*
G04 #@! TO.C,S51*
X208470500Y-100330000D03*
X221397500Y-97790000D03*
G04 #@! TD*
G04 #@! TO.C,S63*
X296576750Y-119380000D03*
X309503750Y-116840000D03*
G04 #@! TD*
G04 #@! TO.C,S60*
X225139250Y-119380000D03*
X238066250Y-116840000D03*
G04 #@! TD*
G04 #@! TO.C,S18*
X98933000Y-62230000D03*
X111860000Y-59690000D03*
G04 #@! TD*
G04 #@! TO.C,S41*
X287051750Y-81280000D03*
X299978750Y-78740000D03*
G04 #@! TD*
D14*
G04 #@! TO.C,LED37*
X207512500Y-71870000D03*
D15*
X207512500Y-70370000D03*
X202062500Y-71870000D03*
X202062500Y-70370000D03*
G04 #@! TD*
D16*
G04 #@! TO.C,C7*
X105365000Y-139625000D03*
X106915000Y-139625000D03*
G04 #@! TD*
D17*
G04 #@! TO.C,SR+53*
X261364500Y-95860000D03*
X261364500Y-94840000D03*
G04 #@! TD*
D18*
G04 #@! TO.C,SC87*
X76717500Y-89425000D03*
X75757500Y-89425000D03*
G04 #@! TD*
D17*
G04 #@! TO.C,SR-7*
X160202000Y-38710000D03*
X160202000Y-37690000D03*
G04 #@! TD*
D18*
G04 #@! TO.C,SC29*
X38617500Y-51325000D03*
X37657500Y-51325000D03*
G04 #@! TD*
D14*
G04 #@! TO.C,LED35*
X169412500Y-71870000D03*
D15*
X169412500Y-70370000D03*
X163962500Y-71870000D03*
X163962500Y-70370000D03*
G04 #@! TD*
D14*
G04 #@! TO.C,LED26*
X259900000Y-52820000D03*
D15*
X259900000Y-51320000D03*
X254450000Y-52820000D03*
X254450000Y-51320000D03*
G04 #@! TD*
D18*
G04 #@! TO.C,SC64*
X106662500Y-77450000D03*
X105702500Y-77450000D03*
G04 #@! TD*
D17*
G04 #@! TO.C,SR-9*
X198302000Y-38710000D03*
X198302000Y-37690000D03*
G04 #@! TD*
D18*
G04 #@! TO.C,SC57*
X40998750Y-70375000D03*
X40038750Y-70375000D03*
G04 #@! TD*
D19*
G04 #@! TO.C,SU32*
X107615530Y-73978951D03*
X107182517Y-73728951D03*
X106749504Y-73478951D03*
X105787004Y-75146049D03*
X106220017Y-75396049D03*
X106653030Y-75646049D03*
D20*
X106851267Y-74302692D03*
X106551267Y-74822308D03*
G04 #@! TD*
D21*
G04 #@! TO.C,C2*
X102220000Y-155775000D03*
X103180000Y-155775000D03*
G04 #@! TD*
D19*
G04 #@! TO.C,SU6*
X131428030Y-35878951D03*
X130995017Y-35628951D03*
X130562004Y-35378951D03*
X129599504Y-37046049D03*
X130032517Y-37296049D03*
X130465530Y-37546049D03*
D20*
X130663767Y-36202692D03*
X130363767Y-36722308D03*
G04 #@! TD*
D19*
G04 #@! TO.C,SU16*
X64753030Y-54928951D03*
X64320017Y-54678951D03*
X63887004Y-54428951D03*
X62924504Y-56096049D03*
X63357517Y-56346049D03*
X63790530Y-56596049D03*
D20*
X63988767Y-55252692D03*
X63688767Y-55772308D03*
G04 #@! TD*
D17*
G04 #@! TO.C,SR-32*
X117339500Y-76810000D03*
X117339500Y-75790000D03*
G04 #@! TD*
G04 #@! TO.C,SR+56*
X49433250Y-114910000D03*
X49433250Y-113890000D03*
G04 #@! TD*
D19*
G04 #@! TO.C,SU3*
X74278030Y-35878951D03*
X73845017Y-35628951D03*
X73412004Y-35378951D03*
X72449504Y-37046049D03*
X72882517Y-37296049D03*
X73315530Y-37546049D03*
D20*
X73513767Y-36202692D03*
X73213767Y-36722308D03*
G04 #@! TD*
D17*
G04 #@! TO.C,SR-60*
X238783250Y-114910000D03*
X238783250Y-113890000D03*
G04 #@! TD*
D22*
G04 #@! TO.C,U12*
X57635000Y-140085000D03*
D23*
X56700000Y-140520000D03*
X56700000Y-141020000D03*
X56700000Y-141520000D03*
X56700000Y-142020000D03*
X56700000Y-142520000D03*
X56700000Y-143020000D03*
D22*
X57635000Y-143455000D03*
X58135000Y-143455000D03*
D23*
X59070000Y-143020000D03*
X59070000Y-142520000D03*
X59070000Y-142020000D03*
X59070000Y-141520000D03*
X59070000Y-141020000D03*
X59070000Y-140520000D03*
D22*
X58135000Y-140085000D03*
G04 #@! TD*
D17*
G04 #@! TO.C,SR+32*
X118489500Y-76810000D03*
X118489500Y-75790000D03*
G04 #@! TD*
G04 #@! TO.C,SR-24*
X226877000Y-57760000D03*
X226877000Y-56740000D03*
G04 #@! TD*
D11*
G04 #@! TO.C,U6*
X108835000Y-47385000D03*
D12*
X108400000Y-46450000D03*
X107900000Y-46450000D03*
X107400000Y-46450000D03*
X106900000Y-46450000D03*
X106400000Y-46450000D03*
X105900000Y-46450000D03*
D11*
X105465000Y-47385000D03*
X105465000Y-47885000D03*
D12*
X105900000Y-48820000D03*
X106400000Y-48820000D03*
X106900000Y-48820000D03*
X107400000Y-48820000D03*
X107900000Y-48820000D03*
X108400000Y-48820000D03*
D11*
X108835000Y-47885000D03*
G04 #@! TD*
D19*
G04 #@! TO.C,SU48*
X155240530Y-93028951D03*
X154807517Y-92778951D03*
X154374504Y-92528951D03*
X153412004Y-94196049D03*
X153845017Y-94446049D03*
X154278030Y-94696049D03*
D20*
X154476267Y-93352692D03*
X154176267Y-93872308D03*
G04 #@! TD*
D14*
G04 #@! TO.C,LED50*
X197987500Y-90920000D03*
D15*
X197987500Y-89420000D03*
X192537500Y-90920000D03*
X192537500Y-89420000D03*
G04 #@! TD*
D19*
G04 #@! TO.C,SU39*
X240965530Y-73978951D03*
X240532517Y-73728951D03*
X240099504Y-73478951D03*
X239137004Y-75146049D03*
X239570017Y-75396049D03*
X240003030Y-75646049D03*
D20*
X240201267Y-74302692D03*
X239901267Y-74822308D03*
G04 #@! TD*
D19*
G04 #@! TO.C,SU1*
X36178030Y-35878951D03*
X35745017Y-35628951D03*
X35312004Y-35378951D03*
X34349504Y-37046049D03*
X34782517Y-37296049D03*
X35215530Y-37546049D03*
D20*
X35413767Y-36202692D03*
X35113767Y-36722308D03*
G04 #@! TD*
D19*
G04 #@! TO.C,SU61*
X252871780Y-112078951D03*
X252438767Y-111828951D03*
X252005754Y-111578951D03*
X251043254Y-113246049D03*
X251476267Y-113496049D03*
X251909280Y-113746049D03*
D20*
X252107517Y-112402692D03*
X251807517Y-112922308D03*
G04 #@! TD*
D19*
G04 #@! TO.C,SU20*
X140953030Y-54928951D03*
X140520017Y-54678951D03*
X140087004Y-54428951D03*
X139124504Y-56096049D03*
X139557517Y-56346049D03*
X139990530Y-56596049D03*
D20*
X140188767Y-55252692D03*
X139888767Y-55772308D03*
G04 #@! TD*
D18*
G04 #@! TO.C,SC110*
X320975000Y-96500000D03*
X320015000Y-96500000D03*
G04 #@! TD*
D17*
G04 #@! TO.C,SR+25*
X247077000Y-57760000D03*
X247077000Y-56740000D03*
G04 #@! TD*
G04 #@! TO.C,SR+3*
X85152000Y-38710000D03*
X85152000Y-37690000D03*
G04 #@! TD*
D18*
G04 #@! TO.C,SC58*
X42368750Y-77450000D03*
X41408750Y-77450000D03*
G04 #@! TD*
G04 #@! TO.C,SC51*
X252930000Y-51325000D03*
X251970000Y-51325000D03*
G04 #@! TD*
D17*
G04 #@! TO.C,SR-48*
X164964500Y-95860000D03*
X164964500Y-94840000D03*
G04 #@! TD*
D14*
G04 #@! TO.C,LED45*
X102737500Y-90920000D03*
D15*
X102737500Y-89420000D03*
X97287500Y-90920000D03*
X97287500Y-89420000D03*
G04 #@! TD*
D17*
G04 #@! TO.C,SR-8*
X179252000Y-38710000D03*
X179252000Y-37690000D03*
G04 #@! TD*
D19*
G04 #@! TO.C,SU63*
X300496780Y-112078951D03*
X300063767Y-111828951D03*
X299630754Y-111578951D03*
X298668254Y-113246049D03*
X299101267Y-113496049D03*
X299534280Y-113746049D03*
D20*
X299732517Y-112402692D03*
X299432517Y-112922308D03*
G04 #@! TD*
D14*
G04 #@! TO.C,LED43*
X52731250Y-90920000D03*
D15*
X52731250Y-89420000D03*
X47281250Y-90920000D03*
X47281250Y-89420000D03*
G04 #@! TD*
D19*
G04 #@! TO.C,SU4*
X93328030Y-35878951D03*
X92895017Y-35628951D03*
X92462004Y-35378951D03*
X91499504Y-37046049D03*
X91932517Y-37296049D03*
X92365530Y-37546049D03*
D20*
X92563767Y-36202692D03*
X92263767Y-36722308D03*
G04 #@! TD*
D16*
G04 #@! TO.C,C18*
X97525000Y-161985000D03*
X99075000Y-161985000D03*
G04 #@! TD*
D14*
G04 #@! TO.C,LED1*
X40825000Y-33770000D03*
D15*
X40825000Y-32270000D03*
X35375000Y-33770000D03*
X35375000Y-32270000D03*
G04 #@! TD*
D18*
G04 #@! TO.C,SC81*
X288648750Y-70375000D03*
X287688750Y-70375000D03*
G04 #@! TD*
D14*
G04 #@! TO.C,LED9*
X193225000Y-33770000D03*
D15*
X193225000Y-32270000D03*
X187775000Y-33770000D03*
X187775000Y-32270000D03*
G04 #@! TD*
D18*
G04 #@! TO.C,SC109*
X319605000Y-89425000D03*
X318645000Y-89425000D03*
G04 #@! TD*
D24*
G04 #@! TO.C,U4*
X105260000Y-162030000D03*
X104610000Y-162030000D03*
X103960000Y-162030000D03*
X103310000Y-162030000D03*
X102660000Y-162030000D03*
D25*
X101600000Y-163090000D03*
X101600000Y-163740000D03*
X101600000Y-164390000D03*
X101600000Y-165040000D03*
X101600000Y-165690000D03*
D24*
X102660000Y-166750000D03*
X103310000Y-166750000D03*
X103960000Y-166750000D03*
X104610000Y-166750000D03*
X105260000Y-166750000D03*
D25*
X106320000Y-165690000D03*
X106320000Y-165040000D03*
X106320000Y-164390000D03*
X106320000Y-163740000D03*
X106320000Y-163090000D03*
G04 #@! TD*
D18*
G04 #@! TO.C,SC61*
X86242500Y-70375000D03*
X85282500Y-70375000D03*
G04 #@! TD*
G04 #@! TO.C,SC65*
X124342500Y-70375000D03*
X123382500Y-70375000D03*
G04 #@! TD*
D26*
G04 #@! TO.C,R3*
X139265000Y-166150000D03*
X140915000Y-166150000D03*
G04 #@! TD*
D14*
G04 #@! TO.C,LED4*
X97975000Y-33770000D03*
D15*
X97975000Y-32270000D03*
X92525000Y-33770000D03*
X92525000Y-32270000D03*
G04 #@! TD*
D19*
G04 #@! TO.C,SU55*
X321928030Y-93028951D03*
X321495017Y-92778951D03*
X321062004Y-92528951D03*
X320099504Y-94196049D03*
X320532517Y-94446049D03*
X320965530Y-94696049D03*
D20*
X321163767Y-93352692D03*
X320863767Y-93872308D03*
G04 #@! TD*
D14*
G04 #@! TO.C,LED42*
X326575000Y-71870000D03*
D15*
X326575000Y-70370000D03*
X321125000Y-71870000D03*
X321125000Y-70370000D03*
G04 #@! TD*
D19*
G04 #@! TO.C,SU8*
X169528030Y-35878951D03*
X169095017Y-35628951D03*
X168662004Y-35378951D03*
X167699504Y-37046049D03*
X168132517Y-37296049D03*
X168565530Y-37546049D03*
D20*
X168763767Y-36202692D03*
X168463767Y-36722308D03*
G04 #@! TD*
D14*
G04 #@! TO.C,LED40*
X264662500Y-71870000D03*
D15*
X264662500Y-70370000D03*
X259212500Y-71870000D03*
X259212500Y-70370000D03*
G04 #@! TD*
D27*
G04 #@! TO.C,Y1*
X211130000Y-111210000D03*
X211130000Y-113410000D03*
X212830000Y-113410000D03*
X212830000Y-111210000D03*
G04 #@! TD*
D19*
G04 #@! TO.C,SU7*
X150478030Y-35878951D03*
X150045017Y-35628951D03*
X149612004Y-35378951D03*
X148649504Y-37046049D03*
X149082517Y-37296049D03*
X149515530Y-37546049D03*
D20*
X149713767Y-36202692D03*
X149413767Y-36722308D03*
G04 #@! TD*
D14*
G04 #@! TO.C,LED18*
X107500000Y-52820000D03*
D15*
X107500000Y-51320000D03*
X102050000Y-52820000D03*
X102050000Y-51320000D03*
G04 #@! TD*
D19*
G04 #@! TO.C,SU60*
X229059280Y-112078951D03*
X228626267Y-111828951D03*
X228193254Y-111578951D03*
X227230754Y-113246049D03*
X227663767Y-113496049D03*
X228096780Y-113746049D03*
D20*
X228295017Y-112402692D03*
X227995017Y-112922308D03*
G04 #@! TD*
D19*
G04 #@! TO.C,SU59*
X157621780Y-112078951D03*
X157188767Y-111828951D03*
X156755754Y-111578951D03*
X155793254Y-113246049D03*
X156226267Y-113496049D03*
X156659280Y-113746049D03*
D20*
X156857517Y-112402692D03*
X156557517Y-112922308D03*
G04 #@! TD*
D19*
G04 #@! TO.C,SU62*
X276684280Y-112078951D03*
X276251267Y-111828951D03*
X275818254Y-111578951D03*
X274855754Y-113246049D03*
X275288767Y-113496049D03*
X275721780Y-113746049D03*
D20*
X275920017Y-112402692D03*
X275620017Y-112922308D03*
G04 #@! TD*
D18*
G04 #@! TO.C,SC18*
X187625000Y-39350000D03*
X186665000Y-39350000D03*
G04 #@! TD*
D14*
G04 #@! TO.C,LED2*
X59875000Y-33770000D03*
D15*
X59875000Y-32270000D03*
X54425000Y-33770000D03*
X54425000Y-32270000D03*
G04 #@! TD*
D18*
G04 #@! TO.C,SC15*
X167205000Y-32275000D03*
X166245000Y-32275000D03*
G04 #@! TD*
D17*
G04 #@! TO.C,SR-38*
X231639500Y-76810000D03*
X231639500Y-75790000D03*
G04 #@! TD*
D18*
G04 #@! TO.C,SC98*
X173337500Y-96500000D03*
X172377500Y-96500000D03*
G04 #@! TD*
D17*
G04 #@! TO.C,SR-12*
X255452000Y-38710000D03*
X255452000Y-37690000D03*
G04 #@! TD*
D14*
G04 #@! TO.C,LED63*
X305143750Y-109970000D03*
D15*
X305143750Y-108470000D03*
X299693750Y-109970000D03*
X299693750Y-108470000D03*
G04 #@! TD*
D14*
G04 #@! TO.C,LED32*
X112262500Y-71870000D03*
D15*
X112262500Y-70370000D03*
X106812500Y-71870000D03*
X106812500Y-70370000D03*
G04 #@! TD*
D19*
G04 #@! TO.C,SU53*
X250490530Y-93028951D03*
X250057517Y-92778951D03*
X249624504Y-92528951D03*
X248662004Y-94196049D03*
X249095017Y-94446049D03*
X249528030Y-94696049D03*
D20*
X249726267Y-93352692D03*
X249426267Y-93872308D03*
G04 #@! TD*
D18*
G04 #@! TO.C,SC44*
X178100000Y-58400000D03*
X177140000Y-58400000D03*
G04 #@! TD*
G04 #@! TO.C,SC124*
X275731250Y-115550000D03*
X274771250Y-115550000D03*
G04 #@! TD*
G04 #@! TO.C,SC24*
X244775000Y-39350000D03*
X243815000Y-39350000D03*
G04 #@! TD*
D14*
G04 #@! TO.C,LED49*
X178937500Y-90920000D03*
D15*
X178937500Y-89420000D03*
X173487500Y-90920000D03*
X173487500Y-89420000D03*
G04 #@! TD*
D19*
G04 #@! TO.C,SU38*
X221915530Y-73978951D03*
X221482517Y-73728951D03*
X221049504Y-73478951D03*
X220087004Y-75146049D03*
X220520017Y-75396049D03*
X220953030Y-75646049D03*
D20*
X221151267Y-74302692D03*
X220851267Y-74822308D03*
G04 #@! TD*
D17*
G04 #@! TO.C,SR-37*
X212589500Y-76810000D03*
X212589500Y-75790000D03*
G04 #@! TD*
D18*
G04 #@! TO.C,SC41*
X157680000Y-51325000D03*
X156720000Y-51325000D03*
G04 #@! TD*
G04 #@! TO.C,SC62*
X87612500Y-77450000D03*
X86652500Y-77450000D03*
G04 #@! TD*
D19*
G04 #@! TO.C,SU12*
X245728030Y-35878951D03*
X245295017Y-35628951D03*
X244862004Y-35378951D03*
X243899504Y-37046049D03*
X244332517Y-37296049D03*
X244765530Y-37546049D03*
D20*
X244963767Y-36202692D03*
X244663767Y-36722308D03*
G04 #@! TD*
D18*
G04 #@! TO.C,SC23*
X243405000Y-32275000D03*
X242445000Y-32275000D03*
G04 #@! TD*
D21*
G04 #@! TO.C,C9*
X210460000Y-123000000D03*
X211420000Y-123000000D03*
G04 #@! TD*
D18*
G04 #@! TO.C,SC31*
X62430000Y-51325000D03*
X61470000Y-51325000D03*
G04 #@! TD*
D22*
G04 #@! TO.C,U9*
X85045000Y-160705000D03*
D23*
X84110000Y-161140000D03*
X84110000Y-161640000D03*
X84110000Y-162140000D03*
X84110000Y-162640000D03*
X84110000Y-163140000D03*
X84110000Y-163640000D03*
D22*
X85045000Y-164075000D03*
X85545000Y-164075000D03*
D23*
X86480000Y-163640000D03*
X86480000Y-163140000D03*
X86480000Y-162640000D03*
X86480000Y-162140000D03*
X86480000Y-161640000D03*
X86480000Y-161140000D03*
D22*
X85545000Y-160705000D03*
G04 #@! TD*
D16*
G04 #@! TO.C,C19*
X97525000Y-164495000D03*
X99075000Y-164495000D03*
G04 #@! TD*
D17*
G04 #@! TO.C,SR-10*
X217352000Y-38710000D03*
X217352000Y-37690000D03*
G04 #@! TD*
D19*
G04 #@! TO.C,SU23*
X198103030Y-54928951D03*
X197670017Y-54678951D03*
X197237004Y-54428951D03*
X196274504Y-56096049D03*
X196707517Y-56346049D03*
X197140530Y-56596049D03*
D20*
X197338767Y-55252692D03*
X197038767Y-55772308D03*
G04 #@! TD*
D17*
G04 #@! TO.C,SR+39*
X251839500Y-76810000D03*
X251839500Y-75790000D03*
G04 #@! TD*
D19*
G04 #@! TO.C,SU49*
X174290530Y-93028951D03*
X173857517Y-92778951D03*
X173424504Y-92528951D03*
X172462004Y-94196049D03*
X172895017Y-94446049D03*
X173328030Y-94696049D03*
D20*
X173526267Y-93352692D03*
X173226267Y-93872308D03*
G04 #@! TD*
D18*
G04 #@! TO.C,SC27*
X291030000Y-32275000D03*
X290070000Y-32275000D03*
G04 #@! TD*
D14*
G04 #@! TO.C,LED17*
X88450000Y-52820000D03*
D15*
X88450000Y-51320000D03*
X83000000Y-52820000D03*
X83000000Y-51320000D03*
G04 #@! TD*
D19*
G04 #@! TO.C,SU21*
X160003030Y-54928951D03*
X159570017Y-54678951D03*
X159137004Y-54428951D03*
X158174504Y-56096049D03*
X158607517Y-56346049D03*
X159040530Y-56596049D03*
D20*
X159238767Y-55252692D03*
X158938767Y-55772308D03*
G04 #@! TD*
D17*
G04 #@! TO.C,SR-3*
X84002000Y-38710000D03*
X84002000Y-37690000D03*
G04 #@! TD*
D18*
G04 #@! TO.C,SC92*
X116187500Y-96500000D03*
X115227500Y-96500000D03*
G04 #@! TD*
D26*
G04 #@! TO.C,R5*
X105315000Y-152175000D03*
X106965000Y-152175000D03*
G04 #@! TD*
D14*
G04 #@! TO.C,LED54*
X290856250Y-90920000D03*
D15*
X290856250Y-89420000D03*
X285406250Y-90920000D03*
X285406250Y-89420000D03*
G04 #@! TD*
D14*
G04 #@! TO.C,LED23*
X202750000Y-52820000D03*
D15*
X202750000Y-51320000D03*
X197300000Y-52820000D03*
X197300000Y-51320000D03*
G04 #@! TD*
D17*
G04 #@! TO.C,SR-39*
X250689500Y-76810000D03*
X250689500Y-75790000D03*
G04 #@! TD*
D22*
G04 #@! TO.C,U14*
X71485000Y-160705000D03*
D23*
X70550000Y-161140000D03*
X70550000Y-161640000D03*
X70550000Y-162140000D03*
X70550000Y-162640000D03*
X70550000Y-163140000D03*
X70550000Y-163640000D03*
D22*
X71485000Y-164075000D03*
X71985000Y-164075000D03*
D23*
X72920000Y-163640000D03*
X72920000Y-163140000D03*
X72920000Y-162640000D03*
X72920000Y-162140000D03*
X72920000Y-161640000D03*
X72920000Y-161140000D03*
D22*
X71985000Y-160705000D03*
G04 #@! TD*
D14*
G04 #@! TO.C,LED15*
X45587500Y-52820000D03*
D15*
X45587500Y-51320000D03*
X40137500Y-52820000D03*
X40137500Y-51320000D03*
G04 #@! TD*
D17*
G04 #@! TO.C,SR+22*
X189927000Y-57760000D03*
X189927000Y-56740000D03*
G04 #@! TD*
D19*
G04 #@! TO.C,SU19*
X121903030Y-54928951D03*
X121470017Y-54678951D03*
X121037004Y-54428951D03*
X120074504Y-56096049D03*
X120507517Y-56346049D03*
X120940530Y-56596049D03*
D20*
X121138767Y-55252692D03*
X120838767Y-55772308D03*
G04 #@! TD*
D28*
G04 #@! TO.C,C14*
X122580000Y-122185000D03*
X124480000Y-122185000D03*
G04 #@! TD*
D14*
G04 #@! TO.C,LED28*
X302762500Y-52820000D03*
D15*
X302762500Y-51320000D03*
X297312500Y-52820000D03*
X297312500Y-51320000D03*
G04 #@! TD*
D17*
G04 #@! TO.C,SR-27*
X284027000Y-57760000D03*
X284027000Y-56740000D03*
G04 #@! TD*
D18*
G04 #@! TO.C,SC111*
X36236250Y-108475000D03*
X35276250Y-108475000D03*
G04 #@! TD*
D17*
G04 #@! TO.C,SR+43*
X58958250Y-95860000D03*
X58958250Y-94840000D03*
G04 #@! TD*
G04 #@! TO.C,SR-54*
X295933250Y-95860000D03*
X295933250Y-94840000D03*
G04 #@! TD*
G04 #@! TO.C,SR-4*
X103052000Y-38710000D03*
X103052000Y-37690000D03*
G04 #@! TD*
G04 #@! TO.C,SR-6*
X141152000Y-38710000D03*
X141152000Y-37690000D03*
G04 #@! TD*
D19*
G04 #@! TO.C,SU46*
X117140530Y-93028951D03*
X116707517Y-92778951D03*
X116274504Y-92528951D03*
X115312004Y-94196049D03*
X115745017Y-94446049D03*
X116178030Y-94696049D03*
D20*
X116376267Y-93352692D03*
X116076267Y-93872308D03*
G04 #@! TD*
D14*
G04 #@! TO.C,LED11*
X231325000Y-33770000D03*
D15*
X231325000Y-32270000D03*
X225875000Y-33770000D03*
X225875000Y-32270000D03*
G04 #@! TD*
D18*
G04 #@! TO.C,SC9*
X110055000Y-32275000D03*
X109095000Y-32275000D03*
G04 #@! TD*
D19*
G04 #@! TO.C,SU18*
X102853030Y-54928951D03*
X102420017Y-54678951D03*
X101987004Y-54428951D03*
X101024504Y-56096049D03*
X101457517Y-56346049D03*
X101890530Y-56596049D03*
D20*
X102088767Y-55252692D03*
X101788767Y-55772308D03*
G04 #@! TD*
D17*
G04 #@! TO.C,SR+48*
X166114500Y-95860000D03*
X166114500Y-94840000D03*
G04 #@! TD*
G04 #@! TO.C,SR+58*
X97058250Y-114910000D03*
X97058250Y-113890000D03*
G04 #@! TD*
D19*
G04 #@! TO.C,SU10*
X207628030Y-35878951D03*
X207195017Y-35628951D03*
X206762004Y-35378951D03*
X205799504Y-37046049D03*
X206232517Y-37296049D03*
X206665530Y-37546049D03*
D20*
X206863767Y-36202692D03*
X206563767Y-36722308D03*
G04 #@! TD*
D18*
G04 #@! TO.C,SC69*
X162442500Y-70375000D03*
X161482500Y-70375000D03*
G04 #@! TD*
D17*
G04 #@! TO.C,SR+11*
X237552000Y-38710000D03*
X237552000Y-37690000D03*
G04 #@! TD*
D21*
G04 #@! TO.C,C3*
X102220000Y-157745000D03*
X103180000Y-157745000D03*
G04 #@! TD*
D17*
G04 #@! TO.C,SR+61*
X263745750Y-114910000D03*
X263745750Y-113890000D03*
G04 #@! TD*
D19*
G04 #@! TO.C,SU58*
X86184280Y-112078951D03*
X85751267Y-111828951D03*
X85318254Y-111578951D03*
X84355754Y-113246049D03*
X84788767Y-113496049D03*
X85221780Y-113746049D03*
D20*
X85420017Y-112402692D03*
X85120017Y-112922308D03*
G04 #@! TD*
D17*
G04 #@! TO.C,SR+55*
X332802000Y-95860000D03*
X332802000Y-94840000D03*
G04 #@! TD*
D18*
G04 #@! TO.C,SC48*
X216200000Y-58400000D03*
X215240000Y-58400000D03*
G04 #@! TD*
D16*
G04 #@! TO.C,C15*
X115135000Y-114615000D03*
X116685000Y-114615000D03*
G04 #@! TD*
D17*
G04 #@! TO.C,SR-46*
X126864500Y-95860000D03*
X126864500Y-94840000D03*
G04 #@! TD*
G04 #@! TO.C,SR-21*
X169727000Y-57760000D03*
X169727000Y-56740000D03*
G04 #@! TD*
D18*
G04 #@! TO.C,SC39*
X138630000Y-51325000D03*
X137670000Y-51325000D03*
G04 #@! TD*
D14*
G04 #@! TO.C,LED64*
X326575000Y-109970000D03*
D15*
X326575000Y-108470000D03*
X321125000Y-109970000D03*
X321125000Y-108470000D03*
G04 #@! TD*
D18*
G04 #@! TO.C,SC95*
X152917500Y-89425000D03*
X151957500Y-89425000D03*
G04 #@! TD*
G04 #@! TO.C,SC1*
X33855000Y-32275000D03*
X32895000Y-32275000D03*
G04 #@! TD*
D14*
G04 #@! TO.C,LED8*
X174175000Y-33770000D03*
D15*
X174175000Y-32270000D03*
X168725000Y-33770000D03*
X168725000Y-32270000D03*
G04 #@! TD*
D17*
G04 #@! TO.C,SR-18*
X112577000Y-57760000D03*
X112577000Y-56740000D03*
G04 #@! TD*
D18*
G04 #@! TO.C,SC16*
X168575000Y-39350000D03*
X167615000Y-39350000D03*
G04 #@! TD*
G04 #@! TO.C,SC128*
X320975000Y-115550000D03*
X320015000Y-115550000D03*
G04 #@! TD*
G04 #@! TO.C,SC12*
X130475000Y-39350000D03*
X129515000Y-39350000D03*
G04 #@! TD*
D19*
G04 #@! TO.C,SU56*
X38559280Y-112078951D03*
X38126267Y-111828951D03*
X37693254Y-111578951D03*
X36730754Y-113246049D03*
X37163767Y-113496049D03*
X37596780Y-113746049D03*
D20*
X37795017Y-112402692D03*
X37495017Y-112922308D03*
G04 #@! TD*
D14*
G04 #@! TO.C,LED24*
X221800000Y-52820000D03*
D15*
X221800000Y-51320000D03*
X216350000Y-52820000D03*
X216350000Y-51320000D03*
G04 #@! TD*
D18*
G04 #@! TO.C,SC91*
X114817500Y-89425000D03*
X113857500Y-89425000D03*
G04 #@! TD*
D16*
G04 #@! TO.C,C12*
X105365000Y-144645000D03*
X106915000Y-144645000D03*
G04 #@! TD*
D22*
G04 #@! TO.C,U17*
X57925000Y-152415000D03*
D23*
X56990000Y-152850000D03*
X56990000Y-153350000D03*
X56990000Y-153850000D03*
X56990000Y-154350000D03*
X56990000Y-154850000D03*
X56990000Y-155350000D03*
D22*
X57925000Y-155785000D03*
X58425000Y-155785000D03*
D23*
X59360000Y-155350000D03*
X59360000Y-154850000D03*
X59360000Y-154350000D03*
X59360000Y-153850000D03*
X59360000Y-153350000D03*
X59360000Y-152850000D03*
D22*
X58425000Y-152415000D03*
G04 #@! TD*
D14*
G04 #@! TO.C,LED20*
X145600000Y-52820000D03*
D15*
X145600000Y-51320000D03*
X140150000Y-52820000D03*
X140150000Y-51320000D03*
G04 #@! TD*
D14*
G04 #@! TO.C,LED29*
X47968750Y-71870000D03*
D15*
X47968750Y-70370000D03*
X42518750Y-71870000D03*
X42518750Y-70370000D03*
G04 #@! TD*
D17*
G04 #@! TO.C,SR+13*
X275652000Y-38710000D03*
X275652000Y-37690000D03*
G04 #@! TD*
D18*
G04 #@! TO.C,SC101*
X210067500Y-89425000D03*
X209107500Y-89425000D03*
G04 #@! TD*
D14*
G04 #@! TO.C,LED44*
X83687500Y-90920000D03*
D15*
X83687500Y-89420000D03*
X78237500Y-90920000D03*
X78237500Y-89420000D03*
G04 #@! TD*
D19*
G04 #@! TO.C,SU15*
X40940530Y-54928951D03*
X40507517Y-54678951D03*
X40074504Y-54428951D03*
X39112004Y-56096049D03*
X39545017Y-56346049D03*
X39978030Y-56596049D03*
D20*
X40176267Y-55252692D03*
X39876267Y-55772308D03*
G04 #@! TD*
D18*
G04 #@! TO.C,SC63*
X105292500Y-70375000D03*
X104332500Y-70375000D03*
G04 #@! TD*
D14*
G04 #@! TO.C,LED5*
X117025000Y-33770000D03*
D15*
X117025000Y-32270000D03*
X111575000Y-33770000D03*
X111575000Y-32270000D03*
G04 #@! TD*
D29*
G04 #@! TO.C,R1*
X138530000Y-115815000D03*
X138530000Y-114165000D03*
G04 #@! TD*
D17*
G04 #@! TO.C,SR-64*
X331652000Y-114910000D03*
X331652000Y-113890000D03*
G04 #@! TD*
G04 #@! TO.C,SR+7*
X161352000Y-38710000D03*
X161352000Y-37690000D03*
G04 #@! TD*
D19*
G04 #@! TO.C,SU50*
X193340530Y-93028951D03*
X192907517Y-92778951D03*
X192474504Y-92528951D03*
X191512004Y-94196049D03*
X191945017Y-94446049D03*
X192378030Y-94696049D03*
D20*
X192576267Y-93352692D03*
X192276267Y-93872308D03*
G04 #@! TD*
D17*
G04 #@! TO.C,SR+45*
X108964500Y-95860000D03*
X108964500Y-94840000D03*
G04 #@! TD*
G04 #@! TO.C,SR-33*
X136389500Y-76810000D03*
X136389500Y-75790000D03*
G04 #@! TD*
D14*
G04 #@! TO.C,LED48*
X159887500Y-90920000D03*
D15*
X159887500Y-89420000D03*
X154437500Y-90920000D03*
X154437500Y-89420000D03*
G04 #@! TD*
D17*
G04 #@! TO.C,SR+62*
X287558250Y-114910000D03*
X287558250Y-113890000D03*
G04 #@! TD*
D18*
G04 #@! TO.C,SC70*
X163812500Y-77450000D03*
X162852500Y-77450000D03*
G04 #@! TD*
D19*
G04 #@! TO.C,SU27*
X274303030Y-54928951D03*
X273870017Y-54678951D03*
X273437004Y-54428951D03*
X272474504Y-56096049D03*
X272907517Y-56346049D03*
X273340530Y-56596049D03*
D20*
X273538767Y-55252692D03*
X273238767Y-55772308D03*
G04 #@! TD*
D18*
G04 #@! TO.C,SC47*
X214830000Y-51325000D03*
X213870000Y-51325000D03*
G04 #@! TD*
D19*
G04 #@! TO.C,SU11*
X226678030Y-35878951D03*
X226245017Y-35628951D03*
X225812004Y-35378951D03*
X224849504Y-37046049D03*
X225282517Y-37296049D03*
X225715530Y-37546049D03*
D20*
X225913767Y-36202692D03*
X225613767Y-36722308D03*
G04 #@! TD*
D17*
G04 #@! TO.C,SR+54*
X297083250Y-95860000D03*
X297083250Y-94840000D03*
G04 #@! TD*
D18*
G04 #@! TO.C,SC123*
X274361250Y-108475000D03*
X273401250Y-108475000D03*
G04 #@! TD*
G04 #@! TO.C,SC42*
X159050000Y-58400000D03*
X158090000Y-58400000D03*
G04 #@! TD*
G04 #@! TO.C,SC77*
X238642500Y-70375000D03*
X237682500Y-70375000D03*
G04 #@! TD*
D14*
G04 #@! TO.C,LED53*
X255137500Y-90920000D03*
D15*
X255137500Y-89420000D03*
X249687500Y-90920000D03*
X249687500Y-89420000D03*
G04 #@! TD*
D18*
G04 #@! TO.C,SC26*
X263825000Y-39350000D03*
X262865000Y-39350000D03*
G04 #@! TD*
D17*
G04 #@! TO.C,SR+9*
X199452000Y-38710000D03*
X199452000Y-37690000D03*
G04 #@! TD*
D18*
G04 #@! TO.C,SC20*
X206675000Y-39350000D03*
X205715000Y-39350000D03*
G04 #@! TD*
D17*
G04 #@! TO.C,SR-1*
X45901999Y-38710000D03*
X45902001Y-37690000D03*
G04 #@! TD*
G04 #@! TO.C,SR+10*
X218502000Y-38710000D03*
X218502000Y-37690000D03*
G04 #@! TD*
G04 #@! TO.C,SR-31*
X98289500Y-76810000D03*
X98289500Y-75790000D03*
G04 #@! TD*
D14*
G04 #@! TO.C,LED62*
X281331250Y-109970000D03*
D15*
X281331250Y-108470000D03*
X275881250Y-109970000D03*
X275881250Y-108470000D03*
G04 #@! TD*
D14*
G04 #@! TO.C,LED36*
X188462500Y-71870000D03*
D15*
X188462500Y-70370000D03*
X183012500Y-71870000D03*
X183012500Y-70370000D03*
G04 #@! TD*
D14*
G04 #@! TO.C,LED41*
X295618750Y-71870000D03*
D15*
X295618750Y-70370000D03*
X290168750Y-71870000D03*
X290168750Y-70370000D03*
G04 #@! TD*
D17*
G04 #@! TO.C,SR+2*
X66102000Y-38710000D03*
X66102000Y-37690000D03*
G04 #@! TD*
G04 #@! TO.C,SR-14*
X303077000Y-38710000D03*
X303077000Y-37690000D03*
G04 #@! TD*
D19*
G04 #@! TO.C,SU2*
X55228030Y-35878951D03*
X54795017Y-35628951D03*
X54362004Y-35378951D03*
X53399504Y-37046049D03*
X53832517Y-37296049D03*
X54265530Y-37546049D03*
D20*
X54463767Y-36202692D03*
X54163767Y-36722308D03*
G04 #@! TD*
D14*
G04 #@! TO.C,LED60*
X233706250Y-109970000D03*
D15*
X233706250Y-108470000D03*
X228256250Y-109970000D03*
X228256250Y-108470000D03*
G04 #@! TD*
D19*
G04 #@! TO.C,SU37*
X202865530Y-73978951D03*
X202432517Y-73728951D03*
X201999504Y-73478951D03*
X201037004Y-75146049D03*
X201470017Y-75396049D03*
X201903030Y-75646049D03*
D20*
X202101267Y-74302692D03*
X201801267Y-74822308D03*
G04 #@! TD*
D17*
G04 #@! TO.C,SR+50*
X204214500Y-95860000D03*
X204214500Y-94840000D03*
G04 #@! TD*
D18*
G04 #@! TO.C,SC100*
X192387500Y-96500000D03*
X191427500Y-96500000D03*
G04 #@! TD*
D19*
G04 #@! TO.C,SU28*
X298115530Y-54928951D03*
X297682517Y-54678951D03*
X297249504Y-54428951D03*
X296287004Y-56096049D03*
X296720017Y-56346049D03*
X297153030Y-56596049D03*
D20*
X297351267Y-55252692D03*
X297051267Y-55772308D03*
G04 #@! TD*
D17*
G04 #@! TO.C,SR-16*
X74477000Y-57760000D03*
X74477000Y-56740000D03*
G04 #@! TD*
D18*
G04 #@! TO.C,SC55*
X295792500Y-51325000D03*
X294832500Y-51325000D03*
G04 #@! TD*
D14*
G04 #@! TO.C,LED59*
X162268750Y-109970000D03*
D15*
X162268750Y-108470000D03*
X156818750Y-109970000D03*
X156818750Y-108470000D03*
G04 #@! TD*
D26*
G04 #@! TO.C,R4*
X105315000Y-149665000D03*
X106965000Y-149665000D03*
G04 #@! TD*
D18*
G04 #@! TO.C,SC21*
X224355000Y-32275000D03*
X223395000Y-32275000D03*
G04 #@! TD*
G04 #@! TO.C,SC127*
X319605000Y-108475000D03*
X318645000Y-108475000D03*
G04 #@! TD*
G04 #@! TO.C,SC8*
X92375000Y-39350000D03*
X91415000Y-39350000D03*
G04 #@! TD*
D14*
G04 #@! TO.C,LED12*
X250375000Y-33770000D03*
D15*
X250375000Y-32270000D03*
X244925000Y-33770000D03*
X244925000Y-32270000D03*
G04 #@! TD*
D18*
G04 #@! TO.C,SC85*
X45761250Y-89425000D03*
X44801250Y-89425000D03*
G04 #@! TD*
G04 #@! TO.C,SC120*
X228106250Y-115550000D03*
X227146250Y-115550000D03*
G04 #@! TD*
G04 #@! TO.C,SC75*
X219592500Y-70375000D03*
X218632500Y-70375000D03*
G04 #@! TD*
D17*
G04 #@! TO.C,SR+12*
X256602000Y-38710000D03*
X256602000Y-37690000D03*
G04 #@! TD*
G04 #@! TO.C,SR+29*
X54195750Y-76810000D03*
X54195750Y-75790000D03*
G04 #@! TD*
D18*
G04 #@! TO.C,SC86*
X47131250Y-96500000D03*
X46171250Y-96500000D03*
G04 #@! TD*
D17*
G04 #@! TO.C,SR+16*
X75627000Y-57760000D03*
X75627000Y-56740000D03*
G04 #@! TD*
D18*
G04 #@! TO.C,SC67*
X143392500Y-70375000D03*
X142432500Y-70375000D03*
G04 #@! TD*
D17*
G04 #@! TO.C,SR+60*
X239933250Y-114910000D03*
X239933250Y-113890000D03*
G04 #@! TD*
G04 #@! TO.C,SR+14*
X304227000Y-38710000D03*
X304227000Y-37690000D03*
G04 #@! TD*
D21*
G04 #@! TO.C,C5*
X99350000Y-155775000D03*
X100310000Y-155775000D03*
G04 #@! TD*
D17*
G04 #@! TO.C,SR+24*
X228027000Y-57760000D03*
X228027000Y-56740000D03*
G04 #@! TD*
D18*
G04 #@! TO.C,SC74*
X201912500Y-77450000D03*
X200952500Y-77450000D03*
G04 #@! TD*
D19*
G04 #@! TO.C,SU40*
X260015530Y-73978951D03*
X259582517Y-73728951D03*
X259149504Y-73478951D03*
X258187004Y-75146049D03*
X258620017Y-75396049D03*
X259053030Y-75646049D03*
D20*
X259251267Y-74302692D03*
X258951267Y-74822308D03*
G04 #@! TD*
D17*
G04 #@! TO.C,SR-44*
X88764500Y-95860000D03*
X88764500Y-94840000D03*
G04 #@! TD*
D18*
G04 #@! TO.C,SC43*
X176730000Y-51325000D03*
X175770000Y-51325000D03*
G04 #@! TD*
D17*
G04 #@! TO.C,SR-19*
X131627000Y-57760000D03*
X131627000Y-56740000D03*
G04 #@! TD*
G04 #@! TO.C,SR-59*
X167345750Y-114910000D03*
X167345750Y-113890000D03*
G04 #@! TD*
D19*
G04 #@! TO.C,SU5*
X112378030Y-35878951D03*
X111945017Y-35628951D03*
X111512004Y-35378951D03*
X110549504Y-37046049D03*
X110982517Y-37296049D03*
X111415530Y-37546049D03*
D20*
X111613767Y-36202692D03*
X111313767Y-36722308D03*
G04 #@! TD*
D17*
G04 #@! TO.C,SR-56*
X48283250Y-114910000D03*
X48283250Y-113890000D03*
G04 #@! TD*
D18*
G04 #@! TO.C,SC97*
X171967500Y-89425000D03*
X171007500Y-89425000D03*
G04 #@! TD*
G04 #@! TO.C,SC126*
X299543750Y-115550000D03*
X298583750Y-115550000D03*
G04 #@! TD*
D17*
G04 #@! TO.C,SR+64*
X332802000Y-114910000D03*
X332802000Y-113890000D03*
G04 #@! TD*
D21*
G04 #@! TO.C,C4*
X99350000Y-153805000D03*
X100310000Y-153805000D03*
G04 #@! TD*
D19*
G04 #@! TO.C,SU64*
X321928030Y-112078951D03*
X321495017Y-111828951D03*
X321062004Y-111578951D03*
X320099504Y-113246049D03*
X320532517Y-113496049D03*
X320965530Y-113746049D03*
D20*
X321163767Y-112402692D03*
X320863767Y-112922308D03*
G04 #@! TD*
D18*
G04 #@! TO.C,SC80*
X259062500Y-77450000D03*
X258102500Y-77450000D03*
G04 #@! TD*
G04 #@! TO.C,SC60*
X68562500Y-77450000D03*
X67602500Y-77450000D03*
G04 #@! TD*
D21*
G04 #@! TO.C,C1*
X102220000Y-153805000D03*
X103180000Y-153805000D03*
G04 #@! TD*
D18*
G04 #@! TO.C,SC10*
X111425000Y-39350000D03*
X110465000Y-39350000D03*
G04 #@! TD*
D17*
G04 #@! TO.C,SR-25*
X245927000Y-57760000D03*
X245927000Y-56740000D03*
G04 #@! TD*
G04 #@! TO.C,SR+17*
X94677000Y-57760000D03*
X94677000Y-56740000D03*
G04 #@! TD*
G04 #@! TO.C,SR+21*
X170877000Y-57760000D03*
X170877000Y-56740000D03*
G04 #@! TD*
D19*
G04 #@! TO.C,SU22*
X179053030Y-54928951D03*
X178620017Y-54678951D03*
X178187004Y-54428951D03*
X177224504Y-56096049D03*
X177657517Y-56346049D03*
X178090530Y-56596049D03*
D20*
X178288767Y-55252692D03*
X177988767Y-55772308D03*
G04 #@! TD*
D18*
G04 #@! TO.C,SC72*
X182862500Y-77450000D03*
X181902500Y-77450000D03*
G04 #@! TD*
D17*
G04 #@! TO.C,SR-43*
X57808250Y-95860000D03*
X57808250Y-94840000D03*
G04 #@! TD*
G04 #@! TO.C,SR-34*
X155439500Y-76810000D03*
X155439500Y-75790000D03*
G04 #@! TD*
G04 #@! TO.C,SR-5*
X122102000Y-38710000D03*
X122102000Y-37690000D03*
G04 #@! TD*
D22*
G04 #@! TO.C,U19*
X64705000Y-152415000D03*
D23*
X63770000Y-152850000D03*
X63770000Y-153350000D03*
X63770000Y-153850000D03*
X63770000Y-154350000D03*
X63770000Y-154850000D03*
X63770000Y-155350000D03*
D22*
X64705000Y-155785000D03*
X65205000Y-155785000D03*
D23*
X66140000Y-155350000D03*
X66140000Y-154850000D03*
X66140000Y-154350000D03*
X66140000Y-153850000D03*
X66140000Y-153350000D03*
X66140000Y-152850000D03*
D22*
X65205000Y-152415000D03*
G04 #@! TD*
D18*
G04 #@! TO.C,SC96*
X154287500Y-96500000D03*
X153327500Y-96500000D03*
G04 #@! TD*
G04 #@! TO.C,SC78*
X240012500Y-77450000D03*
X239052500Y-77450000D03*
G04 #@! TD*
G04 #@! TO.C,SC89*
X95767500Y-89425000D03*
X94807500Y-89425000D03*
G04 #@! TD*
D14*
G04 #@! TO.C,LED21*
X164650000Y-52820000D03*
D15*
X164650000Y-51320000D03*
X159200000Y-52820000D03*
X159200000Y-51320000D03*
G04 #@! TD*
D19*
G04 #@! TO.C,SU31*
X88565530Y-73978951D03*
X88132517Y-73728951D03*
X87699504Y-73478951D03*
X86737004Y-75146049D03*
X87170017Y-75396049D03*
X87603030Y-75646049D03*
D20*
X87801267Y-74302692D03*
X87501267Y-74822308D03*
G04 #@! TD*
D14*
G04 #@! TO.C,LED7*
X155125000Y-33770000D03*
D15*
X155125000Y-32270000D03*
X149675000Y-33770000D03*
X149675000Y-32270000D03*
G04 #@! TD*
D19*
G04 #@! TO.C,SU34*
X145715530Y-73978951D03*
X145282517Y-73728951D03*
X144849504Y-73478951D03*
X143887004Y-75146049D03*
X144320017Y-75396049D03*
X144753030Y-75646049D03*
D20*
X144951267Y-74302692D03*
X144651267Y-74822308D03*
G04 #@! TD*
D17*
G04 #@! TO.C,SR-63*
X310220750Y-114910000D03*
X310220750Y-113890000D03*
G04 #@! TD*
D18*
G04 #@! TO.C,SC4*
X54275000Y-39350000D03*
X53315000Y-39350000D03*
G04 #@! TD*
G04 #@! TO.C,SC76*
X220962500Y-77450000D03*
X220002500Y-77450000D03*
G04 #@! TD*
D19*
G04 #@! TO.C,SU25*
X236203030Y-54928951D03*
X235770017Y-54678951D03*
X235337004Y-54428951D03*
X234374504Y-56096049D03*
X234807517Y-56346049D03*
X235240530Y-56596049D03*
D20*
X235438767Y-55252692D03*
X235138767Y-55772308D03*
G04 #@! TD*
D14*
G04 #@! TO.C,LED25*
X240850000Y-52820000D03*
D15*
X240850000Y-51320000D03*
X235400000Y-52820000D03*
X235400000Y-51320000D03*
G04 #@! TD*
D19*
G04 #@! TO.C,SU24*
X217153030Y-54928951D03*
X216720017Y-54678951D03*
X216287004Y-54428951D03*
X215324504Y-56096049D03*
X215757517Y-56346049D03*
X216190530Y-56596049D03*
D20*
X216388767Y-55252692D03*
X216088767Y-55772308D03*
G04 #@! TD*
D17*
G04 #@! TO.C,SR+26*
X266127000Y-57760000D03*
X266127000Y-56740000D03*
G04 #@! TD*
G04 #@! TO.C,SR+8*
X180402000Y-38710000D03*
X180402000Y-37690000D03*
G04 #@! TD*
G04 #@! TO.C,SR-42*
X331652000Y-76810000D03*
X331652000Y-75790000D03*
G04 #@! TD*
D18*
G04 #@! TO.C,SC82*
X290018750Y-77450000D03*
X289058750Y-77450000D03*
G04 #@! TD*
G04 #@! TO.C,SC121*
X250548750Y-108475000D03*
X249588750Y-108475000D03*
G04 #@! TD*
D14*
G04 #@! TO.C,LED10*
X212275000Y-33770000D03*
D15*
X212275000Y-32270000D03*
X206825000Y-33770000D03*
X206825000Y-32270000D03*
G04 #@! TD*
D18*
G04 #@! TO.C,SC34*
X82850000Y-58400000D03*
X81890000Y-58400000D03*
G04 #@! TD*
D17*
G04 #@! TO.C,SR-49*
X184014500Y-95860000D03*
X184014500Y-94840000D03*
G04 #@! TD*
D18*
G04 #@! TO.C,SC30*
X39987500Y-58400000D03*
X39027500Y-58400000D03*
G04 #@! TD*
D14*
G04 #@! TO.C,LED19*
X126550000Y-52820000D03*
D15*
X126550000Y-51320000D03*
X121100000Y-52820000D03*
X121100000Y-51320000D03*
G04 #@! TD*
D14*
G04 #@! TO.C,LED14*
X298000000Y-33770000D03*
D15*
X298000000Y-32270000D03*
X292550000Y-33770000D03*
X292550000Y-32270000D03*
G04 #@! TD*
D17*
G04 #@! TO.C,SR+36*
X194689500Y-76810000D03*
X194689500Y-75790000D03*
G04 #@! TD*
G04 #@! TO.C,SR+35*
X175639500Y-76810000D03*
X175639500Y-75790000D03*
G04 #@! TD*
G04 #@! TO.C,SR+15*
X51814500Y-57760000D03*
X51814500Y-56740000D03*
G04 #@! TD*
D18*
G04 #@! TO.C,SC25*
X262455000Y-32275000D03*
X261495000Y-32275000D03*
G04 #@! TD*
G04 #@! TO.C,SC84*
X320975000Y-77450000D03*
X320015000Y-77450000D03*
G04 #@! TD*
D17*
G04 #@! TO.C,SR+51*
X223264500Y-95860000D03*
X223264500Y-94840000D03*
G04 #@! TD*
G04 #@! TO.C,SR+37*
X213739500Y-76810000D03*
X213739500Y-75790000D03*
G04 #@! TD*
D30*
G04 #@! TO.C,C8*
X207930000Y-113240000D03*
X207930000Y-114200000D03*
G04 #@! TD*
D19*
G04 #@! TO.C,SU57*
X62371780Y-112078951D03*
X61938767Y-111828951D03*
X61505754Y-111578951D03*
X60543254Y-113246049D03*
X60976267Y-113496049D03*
X61409280Y-113746049D03*
D20*
X61607517Y-112402692D03*
X61307517Y-112922308D03*
G04 #@! TD*
D17*
G04 #@! TO.C,SR-13*
X274502000Y-38710000D03*
X274502000Y-37690000D03*
G04 #@! TD*
D18*
G04 #@! TO.C,SC79*
X257692500Y-70375000D03*
X256732500Y-70375000D03*
G04 #@! TD*
G04 #@! TO.C,SC117*
X155298750Y-108475000D03*
X154338750Y-108475000D03*
G04 #@! TD*
D17*
G04 #@! TO.C,SR+1*
X47052001Y-38710000D03*
X47051999Y-37690000D03*
G04 #@! TD*
D14*
G04 #@! TO.C,LED6*
X136075000Y-33770000D03*
D15*
X136075000Y-32270000D03*
X130625000Y-33770000D03*
X130625000Y-32270000D03*
G04 #@! TD*
D18*
G04 #@! TO.C,SC103*
X229117500Y-89425000D03*
X228157500Y-89425000D03*
G04 #@! TD*
D17*
G04 #@! TO.C,SR+28*
X308989500Y-57760000D03*
X308989500Y-56740000D03*
G04 #@! TD*
G04 #@! TO.C,SR-15*
X50664500Y-57760000D03*
X50664500Y-56740000D03*
G04 #@! TD*
D14*
G04 #@! TO.C,LED55*
X326575000Y-90920000D03*
D15*
X326575000Y-89420000D03*
X321125000Y-90920000D03*
X321125000Y-89420000D03*
G04 #@! TD*
D19*
G04 #@! TO.C,SU14*
X293353030Y-35878951D03*
X292920017Y-35628951D03*
X292487004Y-35378951D03*
X291524504Y-37046049D03*
X291957517Y-37296049D03*
X292390530Y-37546049D03*
D20*
X292588767Y-36202692D03*
X292288767Y-36722308D03*
G04 #@! TD*
D17*
G04 #@! TO.C,SR-61*
X262595750Y-114910000D03*
X262595750Y-113890000D03*
G04 #@! TD*
D14*
G04 #@! TO.C,LED16*
X69400000Y-52820000D03*
D15*
X69400000Y-51320000D03*
X63950000Y-52820000D03*
X63950000Y-51320000D03*
G04 #@! TD*
D31*
G04 #@! TO.C,J1*
X169500000Y-25375000D03*
X162050000Y-25375000D03*
D32*
X167650000Y-28575000D03*
X166400000Y-28575000D03*
X165150000Y-28575000D03*
X163900000Y-28575000D03*
G04 #@! TD*
D17*
G04 #@! TO.C,SR+46*
X128014500Y-95860000D03*
X128014500Y-94840000D03*
G04 #@! TD*
D18*
G04 #@! TO.C,SC49*
X233880000Y-51325000D03*
X232920000Y-51325000D03*
G04 #@! TD*
D17*
G04 #@! TO.C,SR+47*
X147064500Y-95860000D03*
X147064500Y-94840000D03*
G04 #@! TD*
D14*
G04 #@! TO.C,LED51*
X217037500Y-90920000D03*
D15*
X217037500Y-89420000D03*
X211587500Y-90920000D03*
X211587500Y-89420000D03*
G04 #@! TD*
D18*
G04 #@! TO.C,SC116*
X85231250Y-115550000D03*
X84271250Y-115550000D03*
G04 #@! TD*
G04 #@! TO.C,SC50*
X235250000Y-58400000D03*
X234290000Y-58400000D03*
G04 #@! TD*
D17*
G04 #@! TO.C,SR+38*
X232789500Y-76810000D03*
X232789500Y-75790000D03*
G04 #@! TD*
D14*
G04 #@! TO.C,LED33*
X131312500Y-71870000D03*
D15*
X131312500Y-70370000D03*
X125862500Y-71870000D03*
X125862500Y-70370000D03*
G04 #@! TD*
D14*
G04 #@! TO.C,LED3*
X78925000Y-33770000D03*
D15*
X78925000Y-32270000D03*
X73475000Y-33770000D03*
X73475000Y-32270000D03*
G04 #@! TD*
D17*
G04 #@! TO.C,SR-35*
X174489500Y-76810000D03*
X174489500Y-75790000D03*
G04 #@! TD*
D19*
G04 #@! TO.C,SU30*
X69515530Y-73978951D03*
X69082517Y-73728951D03*
X68649504Y-73478951D03*
X67687004Y-75146049D03*
X68120017Y-75396049D03*
X68553030Y-75646049D03*
D20*
X68751267Y-74302692D03*
X68451267Y-74822308D03*
G04 #@! TD*
D18*
G04 #@! TO.C,SC112*
X37606250Y-115550000D03*
X36646250Y-115550000D03*
G04 #@! TD*
G04 #@! TO.C,SC59*
X67192500Y-70375000D03*
X66232500Y-70375000D03*
G04 #@! TD*
D17*
G04 #@! TO.C,SR+57*
X73245750Y-114910000D03*
X73245750Y-113890000D03*
G04 #@! TD*
G04 #@! TO.C,SR-53*
X260214500Y-95860000D03*
X260214500Y-94840000D03*
G04 #@! TD*
D14*
G04 #@! TO.C,LED52*
X236087500Y-90920000D03*
D15*
X236087500Y-89420000D03*
X230637500Y-90920000D03*
X230637500Y-89420000D03*
G04 #@! TD*
D14*
G04 #@! TO.C,LED13*
X269425000Y-33770000D03*
D15*
X269425000Y-32270000D03*
X263975000Y-33770000D03*
X263975000Y-32270000D03*
G04 #@! TD*
D17*
G04 #@! TO.C,SR+40*
X270889500Y-76810000D03*
X270889500Y-75790000D03*
G04 #@! TD*
D18*
G04 #@! TO.C,SC108*
X285256250Y-96500000D03*
X284296250Y-96500000D03*
G04 #@! TD*
G04 #@! TO.C,SC33*
X81480000Y-51325000D03*
X80520000Y-51325000D03*
G04 #@! TD*
D17*
G04 #@! TO.C,SR-45*
X107814500Y-95860000D03*
X107814500Y-94840000D03*
G04 #@! TD*
D16*
G04 #@! TO.C,C11*
X105365000Y-142135000D03*
X106915000Y-142135000D03*
G04 #@! TD*
D18*
G04 #@! TO.C,SC5*
X71955000Y-32275000D03*
X70995000Y-32275000D03*
G04 #@! TD*
D17*
G04 #@! TO.C,SR+34*
X156589500Y-76810000D03*
X156589500Y-75790000D03*
G04 #@! TD*
D21*
G04 #@! TO.C,C6*
X99350000Y-157745000D03*
X100310000Y-157745000D03*
G04 #@! TD*
D14*
G04 #@! TO.C,LED31*
X93212500Y-71870000D03*
D15*
X93212500Y-70370000D03*
X87762500Y-71870000D03*
X87762500Y-70370000D03*
G04 #@! TD*
D33*
G04 #@! TO.C,U2*
X202750000Y-108325000D03*
X202250000Y-108325000D03*
X201750000Y-108325000D03*
X201250000Y-108325000D03*
X200750000Y-108325000D03*
X200250000Y-108325000D03*
X199750000Y-108325000D03*
X199250000Y-108325000D03*
X198750000Y-108325000D03*
X198250000Y-108325000D03*
X197750000Y-108325000D03*
X197250000Y-108325000D03*
X196750000Y-108325000D03*
X196250000Y-108325000D03*
X195750000Y-108325000D03*
X195250000Y-108325000D03*
D34*
X193325000Y-110250000D03*
X193325000Y-110750000D03*
X193325000Y-111250000D03*
X193325000Y-111750000D03*
X193325000Y-112250000D03*
X193325000Y-112750000D03*
X193325000Y-113250000D03*
X193325000Y-113750000D03*
X193325000Y-114250000D03*
X193325000Y-114750000D03*
X193325000Y-115250000D03*
X193325000Y-115750000D03*
X193325000Y-116250000D03*
X193325000Y-116750000D03*
X193325000Y-117250000D03*
X193325000Y-117750000D03*
D33*
X195250000Y-119675000D03*
X195750000Y-119675000D03*
X196250000Y-119675000D03*
X196750000Y-119675000D03*
X197250000Y-119675000D03*
X197750000Y-119675000D03*
X198250000Y-119675000D03*
X198750000Y-119675000D03*
X199250000Y-119675000D03*
X199750000Y-119675000D03*
X200250000Y-119675000D03*
X200750000Y-119675000D03*
X201250000Y-119675000D03*
X201750000Y-119675000D03*
X202250000Y-119675000D03*
X202750000Y-119675000D03*
D34*
X204675000Y-117750000D03*
X204675000Y-117250000D03*
X204675000Y-116750000D03*
X204675000Y-116250000D03*
X204675000Y-115750000D03*
X204675000Y-115250000D03*
X204675000Y-114750000D03*
X204675000Y-114250000D03*
X204675000Y-113750000D03*
X204675000Y-113250000D03*
X204675000Y-112750000D03*
X204675000Y-112250000D03*
X204675000Y-111750000D03*
X204675000Y-111250000D03*
X204675000Y-110750000D03*
X204675000Y-110250000D03*
G04 #@! TD*
D17*
G04 #@! TO.C,SR+18*
X113727000Y-57760000D03*
X113727000Y-56740000D03*
G04 #@! TD*
D14*
G04 #@! TO.C,LED47*
X140837500Y-90920000D03*
D15*
X140837500Y-89420000D03*
X135387500Y-90920000D03*
X135387500Y-89420000D03*
G04 #@! TD*
D17*
G04 #@! TO.C,SR+30*
X80389500Y-76810000D03*
X80389500Y-75790000D03*
G04 #@! TD*
D18*
G04 #@! TO.C,SC7*
X91005000Y-32275000D03*
X90045000Y-32275000D03*
G04 #@! TD*
D17*
G04 #@! TO.C,SR+42*
X332802000Y-76810000D03*
X332802000Y-75790000D03*
G04 #@! TD*
G04 #@! TO.C,SR-30*
X79239500Y-76810000D03*
X79239500Y-75790000D03*
G04 #@! TD*
D22*
G04 #@! TO.C,U11*
X71485000Y-152415000D03*
D23*
X70550000Y-152850000D03*
X70550000Y-153350000D03*
X70550000Y-153850000D03*
X70550000Y-154350000D03*
X70550000Y-154850000D03*
X70550000Y-155350000D03*
D22*
X71485000Y-155785000D03*
X71985000Y-155785000D03*
D23*
X72920000Y-155350000D03*
X72920000Y-154850000D03*
X72920000Y-154350000D03*
X72920000Y-153850000D03*
X72920000Y-153350000D03*
X72920000Y-152850000D03*
D22*
X71985000Y-152415000D03*
G04 #@! TD*
D24*
G04 #@! TO.C,U3*
X133810000Y-116740000D03*
X133160000Y-116740000D03*
X132510000Y-116740000D03*
X131860000Y-116740000D03*
X131210000Y-116740000D03*
D25*
X130150000Y-117800000D03*
X130150000Y-118450000D03*
X130150000Y-119100000D03*
X130150000Y-119750000D03*
X130150000Y-120400000D03*
D24*
X131210000Y-121460000D03*
X131860000Y-121460000D03*
X132510000Y-121460000D03*
X133160000Y-121460000D03*
X133810000Y-121460000D03*
D25*
X134870000Y-120400000D03*
X134870000Y-119750000D03*
X134870000Y-119100000D03*
X134870000Y-118450000D03*
X134870000Y-117800000D03*
G04 #@! TD*
D17*
G04 #@! TO.C,SR-50*
X203064500Y-95860000D03*
X203064500Y-94840000D03*
G04 #@! TD*
D18*
G04 #@! TO.C,SC3*
X52905000Y-32275000D03*
X51945000Y-32275000D03*
G04 #@! TD*
G04 #@! TO.C,SC104*
X230487500Y-96500000D03*
X229527500Y-96500000D03*
G04 #@! TD*
D19*
G04 #@! TO.C,SU13*
X264778030Y-35878951D03*
X264345017Y-35628951D03*
X263912004Y-35378951D03*
X262949504Y-37046049D03*
X263382517Y-37296049D03*
X263815530Y-37546049D03*
D20*
X264013767Y-36202692D03*
X263713767Y-36722308D03*
G04 #@! TD*
D18*
G04 #@! TO.C,SC114*
X61418750Y-115550000D03*
X60458750Y-115550000D03*
G04 #@! TD*
D19*
G04 #@! TO.C,SU26*
X255253030Y-54928951D03*
X254820017Y-54678951D03*
X254387004Y-54428951D03*
X253424504Y-56096049D03*
X253857517Y-56346049D03*
X254290530Y-56596049D03*
D20*
X254488767Y-55252692D03*
X254188767Y-55772308D03*
G04 #@! TD*
D17*
G04 #@! TO.C,SR-22*
X188777000Y-57760000D03*
X188777000Y-56740000D03*
G04 #@! TD*
D18*
G04 #@! TO.C,SC93*
X133867500Y-89425000D03*
X132907500Y-89425000D03*
G04 #@! TD*
G04 #@! TO.C,SC94*
X135237500Y-96500000D03*
X134277500Y-96500000D03*
G04 #@! TD*
D19*
G04 #@! TO.C,SU17*
X83803030Y-54928951D03*
X83370017Y-54678951D03*
X82937004Y-54428951D03*
X81974504Y-56096049D03*
X82407517Y-56346049D03*
X82840530Y-56596049D03*
D20*
X83038767Y-55252692D03*
X82738767Y-55772308D03*
G04 #@! TD*
D22*
G04 #@! TO.C,U13*
X78265000Y-168995000D03*
D23*
X77330000Y-169430000D03*
X77330000Y-169930000D03*
X77330000Y-170430000D03*
X77330000Y-170930000D03*
X77330000Y-171430000D03*
X77330000Y-171930000D03*
D22*
X78265000Y-172365000D03*
X78765000Y-172365000D03*
D23*
X79700000Y-171930000D03*
X79700000Y-171430000D03*
X79700000Y-170930000D03*
X79700000Y-170430000D03*
X79700000Y-169930000D03*
X79700000Y-169430000D03*
D22*
X78765000Y-168995000D03*
G04 #@! TD*
D17*
G04 #@! TO.C,SR-20*
X150677000Y-57760000D03*
X150677000Y-56740000D03*
G04 #@! TD*
G04 #@! TO.C,SR-23*
X207827000Y-57760000D03*
X207827000Y-56740000D03*
G04 #@! TD*
G04 #@! TO.C,SR-26*
X264977000Y-57760000D03*
X264977000Y-56740000D03*
G04 #@! TD*
D16*
G04 #@! TO.C,C13*
X105365000Y-147155000D03*
X106915000Y-147155000D03*
G04 #@! TD*
D18*
G04 #@! TO.C,SC13*
X148155000Y-32275000D03*
X147195000Y-32275000D03*
G04 #@! TD*
D17*
G04 #@! TO.C,SR+4*
X104202000Y-38710000D03*
X104202000Y-37690000D03*
G04 #@! TD*
D18*
G04 #@! TO.C,SC53*
X271980000Y-51325000D03*
X271020000Y-51325000D03*
G04 #@! TD*
D17*
G04 #@! TO.C,SR-47*
X145914500Y-95860000D03*
X145914500Y-94840000D03*
G04 #@! TD*
G04 #@! TO.C,SR+20*
X151827000Y-57760000D03*
X151827000Y-56740000D03*
G04 #@! TD*
D14*
G04 #@! TO.C,LED27*
X278950000Y-52820000D03*
D15*
X278950000Y-51320000D03*
X273500000Y-52820000D03*
X273500000Y-51320000D03*
G04 #@! TD*
D18*
G04 #@! TO.C,SC73*
X200542500Y-70375000D03*
X199582500Y-70375000D03*
G04 #@! TD*
G04 #@! TO.C,SC11*
X129105000Y-32275000D03*
X128145000Y-32275000D03*
G04 #@! TD*
G04 #@! TO.C,SC32*
X63800000Y-58400000D03*
X62840000Y-58400000D03*
G04 #@! TD*
D14*
G04 #@! TO.C,LED38*
X226562500Y-71870000D03*
D15*
X226562500Y-70370000D03*
X221112500Y-71870000D03*
X221112500Y-70370000D03*
G04 #@! TD*
D17*
G04 #@! TO.C,SR-11*
X236402000Y-38710000D03*
X236402000Y-37690000D03*
G04 #@! TD*
G04 #@! TO.C,SR-36*
X193539500Y-76810000D03*
X193539500Y-75790000D03*
G04 #@! TD*
G04 #@! TO.C,SR+5*
X123252000Y-38710000D03*
X123252000Y-37690000D03*
G04 #@! TD*
D28*
G04 #@! TO.C,C17*
X104970000Y-169555000D03*
X106870000Y-169555000D03*
G04 #@! TD*
D18*
G04 #@! TO.C,SC19*
X205305000Y-32275000D03*
X204345000Y-32275000D03*
G04 #@! TD*
D22*
G04 #@! TO.C,U15*
X85045000Y-177285000D03*
D23*
X84110000Y-177720000D03*
X84110000Y-178220000D03*
X84110000Y-178720000D03*
X84110000Y-179220000D03*
X84110000Y-179720000D03*
X84110000Y-180220000D03*
D22*
X85045000Y-180655000D03*
X85545000Y-180655000D03*
D23*
X86480000Y-180220000D03*
X86480000Y-179720000D03*
X86480000Y-179220000D03*
X86480000Y-178720000D03*
X86480000Y-178220000D03*
X86480000Y-177720000D03*
D22*
X85545000Y-177285000D03*
G04 #@! TD*
D18*
G04 #@! TO.C,SC99*
X191017500Y-89425000D03*
X190057500Y-89425000D03*
G04 #@! TD*
D19*
G04 #@! TO.C,SU43*
X48084280Y-93028951D03*
X47651267Y-92778951D03*
X47218254Y-92528951D03*
X46255754Y-94196049D03*
X46688767Y-94446049D03*
X47121780Y-94696049D03*
D20*
X47320017Y-93352692D03*
X47020017Y-93872308D03*
G04 #@! TD*
D22*
G04 #@! TO.C,U20*
X78265000Y-152415000D03*
D23*
X77330000Y-152850000D03*
X77330000Y-153350000D03*
X77330000Y-153850000D03*
X77330000Y-154350000D03*
X77330000Y-154850000D03*
X77330000Y-155350000D03*
D22*
X78265000Y-155785000D03*
X78765000Y-155785000D03*
D23*
X79700000Y-155350000D03*
X79700000Y-154850000D03*
X79700000Y-154350000D03*
X79700000Y-153850000D03*
X79700000Y-153350000D03*
X79700000Y-152850000D03*
D22*
X78765000Y-152415000D03*
G04 #@! TD*
D17*
G04 #@! TO.C,SR-55*
X331652000Y-95860000D03*
X331652000Y-94840000D03*
G04 #@! TD*
D11*
G04 #@! TO.C,U5*
X104075000Y-47375000D03*
D12*
X103640000Y-46440000D03*
X103140000Y-46440000D03*
X102640000Y-46440000D03*
X102140000Y-46440000D03*
X101640000Y-46440000D03*
X101140000Y-46440000D03*
D11*
X100705000Y-47375000D03*
X100705000Y-47875000D03*
D12*
X101140000Y-48810000D03*
X101640000Y-48810000D03*
X102140000Y-48810000D03*
X102640000Y-48810000D03*
X103140000Y-48810000D03*
X103640000Y-48810000D03*
D11*
X104075000Y-47875000D03*
G04 #@! TD*
D22*
G04 #@! TO.C,U18*
X85045000Y-168995000D03*
D23*
X84110000Y-169430000D03*
X84110000Y-169930000D03*
X84110000Y-170430000D03*
X84110000Y-170930000D03*
X84110000Y-171430000D03*
X84110000Y-171930000D03*
D22*
X85045000Y-172365000D03*
X85545000Y-172365000D03*
D23*
X86480000Y-171930000D03*
X86480000Y-171430000D03*
X86480000Y-170930000D03*
X86480000Y-170430000D03*
X86480000Y-169930000D03*
X86480000Y-169430000D03*
D22*
X85545000Y-168995000D03*
G04 #@! TD*
D17*
G04 #@! TO.C,SR-2*
X64952000Y-38710000D03*
X64952000Y-37690000D03*
G04 #@! TD*
D18*
G04 #@! TO.C,SC56*
X297162500Y-58400000D03*
X296202500Y-58400000D03*
G04 #@! TD*
G04 #@! TO.C,SC28*
X292400000Y-39350000D03*
X291440000Y-39350000D03*
G04 #@! TD*
D17*
G04 #@! TO.C,SR+52*
X242314500Y-95860000D03*
X242314500Y-94840000D03*
G04 #@! TD*
D19*
G04 #@! TO.C,SU42*
X321928030Y-73978951D03*
X321495017Y-73728951D03*
X321062004Y-73478951D03*
X320099504Y-75146049D03*
X320532517Y-75396049D03*
X320965530Y-75646049D03*
D20*
X321163767Y-74302692D03*
X320863767Y-74822308D03*
G04 #@! TD*
D17*
G04 #@! TO.C,SR-51*
X222114500Y-95860000D03*
X222114500Y-94840000D03*
G04 #@! TD*
D18*
G04 #@! TO.C,SC68*
X144762500Y-77450000D03*
X143802500Y-77450000D03*
G04 #@! TD*
D19*
G04 #@! TO.C,SU51*
X212390530Y-93028951D03*
X211957517Y-92778951D03*
X211524504Y-92528951D03*
X210562004Y-94196049D03*
X210995017Y-94446049D03*
X211428030Y-94696049D03*
D20*
X211626267Y-93352692D03*
X211326267Y-93872308D03*
G04 #@! TD*
D14*
G04 #@! TO.C,LED61*
X257518750Y-109970000D03*
D15*
X257518750Y-108470000D03*
X252068750Y-109970000D03*
X252068750Y-108470000D03*
G04 #@! TD*
D18*
G04 #@! TO.C,SC14*
X149525000Y-39350000D03*
X148565000Y-39350000D03*
G04 #@! TD*
G04 #@! TO.C,SC105*
X248167500Y-89425000D03*
X247207500Y-89425000D03*
G04 #@! TD*
G04 #@! TO.C,SC118*
X156668750Y-115550000D03*
X155708750Y-115550000D03*
G04 #@! TD*
G04 #@! TO.C,SC83*
X319605000Y-70375000D03*
X318645000Y-70375000D03*
G04 #@! TD*
G04 #@! TO.C,SC107*
X283886250Y-89425000D03*
X282926250Y-89425000D03*
G04 #@! TD*
D17*
G04 #@! TO.C,SR+31*
X99439500Y-76810000D03*
X99439500Y-75790000D03*
G04 #@! TD*
G04 #@! TO.C,SR-41*
X300695750Y-76810000D03*
X300695750Y-75790000D03*
G04 #@! TD*
D22*
G04 #@! TO.C,U16*
X71195000Y-140085000D03*
D23*
X70260000Y-140520000D03*
X70260000Y-141020000D03*
X70260000Y-141520000D03*
X70260000Y-142020000D03*
X70260000Y-142520000D03*
X70260000Y-143020000D03*
D22*
X71195000Y-143455000D03*
X71695000Y-143455000D03*
D23*
X72630000Y-143020000D03*
X72630000Y-142520000D03*
X72630000Y-142020000D03*
X72630000Y-141520000D03*
X72630000Y-141020000D03*
X72630000Y-140520000D03*
D22*
X71695000Y-140085000D03*
G04 #@! TD*
D17*
G04 #@! TO.C,SR+23*
X208977000Y-57760000D03*
X208977000Y-56740000D03*
G04 #@! TD*
D19*
G04 #@! TO.C,SU33*
X126665530Y-73978951D03*
X126232517Y-73728951D03*
X125799504Y-73478951D03*
X124837004Y-75146049D03*
X125270017Y-75396049D03*
X125703030Y-75646049D03*
D20*
X125901267Y-74302692D03*
X125601267Y-74822308D03*
G04 #@! TD*
D18*
G04 #@! TO.C,SC88*
X78087500Y-96500000D03*
X77127500Y-96500000D03*
G04 #@! TD*
D14*
G04 #@! TO.C,LED56*
X43206250Y-109970000D03*
D15*
X43206250Y-108470000D03*
X37756250Y-109970000D03*
X37756250Y-108470000D03*
G04 #@! TD*
D18*
G04 #@! TO.C,SC66*
X125712500Y-77450000D03*
X124752500Y-77450000D03*
G04 #@! TD*
D29*
G04 #@! TO.C,R2*
X140030000Y-115815000D03*
X140030000Y-114165000D03*
G04 #@! TD*
D18*
G04 #@! TO.C,SC35*
X100530000Y-51325000D03*
X99570000Y-51325000D03*
G04 #@! TD*
D17*
G04 #@! TO.C,SR-28*
X307839500Y-57760000D03*
X307839500Y-56740000D03*
G04 #@! TD*
D16*
G04 #@! TO.C,C16*
X125985000Y-119890000D03*
X127535000Y-119890000D03*
G04 #@! TD*
D18*
G04 #@! TO.C,SC40*
X140000000Y-58400000D03*
X139040000Y-58400000D03*
G04 #@! TD*
D17*
G04 #@! TO.C,SR+44*
X89914500Y-95860000D03*
X89914500Y-94840000D03*
G04 #@! TD*
D18*
G04 #@! TO.C,SC38*
X120950000Y-58400000D03*
X119990000Y-58400000D03*
G04 #@! TD*
G04 #@! TO.C,SC102*
X211437500Y-96500000D03*
X210477500Y-96500000D03*
G04 #@! TD*
D17*
G04 #@! TO.C,SR+49*
X185164500Y-95860000D03*
X185164500Y-94840000D03*
G04 #@! TD*
D19*
G04 #@! TO.C,SU47*
X136190530Y-93028951D03*
X135757517Y-92778951D03*
X135324504Y-92528951D03*
X134362004Y-94196049D03*
X134795017Y-94446049D03*
X135228030Y-94696049D03*
D20*
X135426267Y-93352692D03*
X135126267Y-93872308D03*
G04 #@! TD*
D14*
G04 #@! TO.C,LED58*
X90831250Y-109970000D03*
D15*
X90831250Y-108470000D03*
X85381250Y-109970000D03*
X85381250Y-108470000D03*
G04 #@! TD*
D14*
G04 #@! TO.C,LED39*
X245612500Y-71870000D03*
D15*
X245612500Y-70370000D03*
X240162500Y-71870000D03*
X240162500Y-70370000D03*
G04 #@! TD*
D18*
G04 #@! TO.C,SC122*
X251918750Y-115550000D03*
X250958750Y-115550000D03*
G04 #@! TD*
D19*
G04 #@! TO.C,SU36*
X183815530Y-73978951D03*
X183382517Y-73728951D03*
X182949504Y-73478951D03*
X181987004Y-75146049D03*
X182420017Y-75396049D03*
X182853030Y-75646049D03*
D20*
X183051267Y-74302692D03*
X182751267Y-74822308D03*
G04 #@! TD*
D18*
G04 #@! TO.C,SC125*
X298173750Y-108475000D03*
X297213750Y-108475000D03*
G04 #@! TD*
D26*
G04 #@! TO.C,R6*
X219295000Y-121910000D03*
X220945000Y-121910000D03*
G04 #@! TD*
D18*
G04 #@! TO.C,SC6*
X73325000Y-39350000D03*
X72365000Y-39350000D03*
G04 #@! TD*
D14*
G04 #@! TO.C,LED22*
X183700000Y-52820000D03*
D15*
X183700000Y-51320000D03*
X178250000Y-52820000D03*
X178250000Y-51320000D03*
G04 #@! TD*
D18*
G04 #@! TO.C,SC22*
X225725000Y-39350000D03*
X224765000Y-39350000D03*
G04 #@! TD*
D17*
G04 #@! TO.C,SR+41*
X301845750Y-76810000D03*
X301845750Y-75790000D03*
G04 #@! TD*
D18*
G04 #@! TO.C,SC115*
X83861250Y-108475000D03*
X82901250Y-108475000D03*
G04 #@! TD*
D17*
G04 #@! TO.C,SR-52*
X241164500Y-95860000D03*
X241164500Y-94840000D03*
G04 #@! TD*
D21*
G04 #@! TO.C,C10*
X210460000Y-124970000D03*
X211420000Y-124970000D03*
G04 #@! TD*
D14*
G04 #@! TO.C,LED46*
X121787500Y-90920000D03*
D15*
X121787500Y-89420000D03*
X116337500Y-90920000D03*
X116337500Y-89420000D03*
G04 #@! TD*
D17*
G04 #@! TO.C,SR-29*
X53045750Y-76810000D03*
X53045750Y-75790000D03*
G04 #@! TD*
D19*
G04 #@! TO.C,SU29*
X43321780Y-73978951D03*
X42888767Y-73728951D03*
X42455754Y-73478951D03*
X41493254Y-75146049D03*
X41926267Y-75396049D03*
X42359280Y-75646049D03*
D20*
X42557517Y-74302692D03*
X42257517Y-74822308D03*
G04 #@! TD*
D19*
G04 #@! TO.C,SU41*
X290971780Y-73978951D03*
X290538767Y-73728951D03*
X290105754Y-73478951D03*
X289143254Y-75146049D03*
X289576267Y-75396049D03*
X290009280Y-75646049D03*
D20*
X290207517Y-74302692D03*
X289907517Y-74822308D03*
G04 #@! TD*
D18*
G04 #@! TO.C,SC45*
X195780000Y-51325000D03*
X194820000Y-51325000D03*
G04 #@! TD*
D17*
G04 #@! TO.C,SR+33*
X137539500Y-76810000D03*
X137539500Y-75790000D03*
G04 #@! TD*
D18*
G04 #@! TO.C,SC113*
X60048750Y-108475000D03*
X59088750Y-108475000D03*
G04 #@! TD*
G04 #@! TO.C,SC2*
X35225000Y-39350000D03*
X34265000Y-39350000D03*
G04 #@! TD*
G04 #@! TO.C,SC52*
X254300000Y-58400000D03*
X253340000Y-58400000D03*
G04 #@! TD*
D19*
G04 #@! TO.C,SU54*
X286209280Y-93028951D03*
X285776267Y-92778951D03*
X285343254Y-92528951D03*
X284380754Y-94196049D03*
X284813767Y-94446049D03*
X285246780Y-94696049D03*
D20*
X285445017Y-93352692D03*
X285145017Y-93872308D03*
G04 #@! TD*
D18*
G04 #@! TO.C,SC119*
X226736250Y-108475000D03*
X225776250Y-108475000D03*
G04 #@! TD*
D19*
G04 #@! TO.C,SU52*
X231440530Y-93028951D03*
X231007517Y-92778951D03*
X230574504Y-92528951D03*
X229612004Y-94196049D03*
X230045017Y-94446049D03*
X230478030Y-94696049D03*
D20*
X230676267Y-93352692D03*
X230376267Y-93872308D03*
G04 #@! TD*
D18*
G04 #@! TO.C,SC54*
X273350000Y-58400000D03*
X272390000Y-58400000D03*
G04 #@! TD*
D17*
G04 #@! TO.C,SR+19*
X132777000Y-57760000D03*
X132777000Y-56740000D03*
G04 #@! TD*
D18*
G04 #@! TO.C,SC17*
X186255000Y-32275000D03*
X185295000Y-32275000D03*
G04 #@! TD*
D19*
G04 #@! TO.C,SU35*
X164765530Y-73978951D03*
X164332517Y-73728951D03*
X163899504Y-73478951D03*
X162937004Y-75146049D03*
X163370017Y-75396049D03*
X163803030Y-75646049D03*
D20*
X164001267Y-74302692D03*
X163701267Y-74822308D03*
G04 #@! TD*
D14*
G04 #@! TO.C,LED57*
X67018750Y-109970000D03*
D15*
X67018750Y-108470000D03*
X61568750Y-109970000D03*
X61568750Y-108470000D03*
G04 #@! TD*
D18*
G04 #@! TO.C,SC37*
X119580000Y-51325000D03*
X118620000Y-51325000D03*
G04 #@! TD*
D17*
G04 #@! TO.C,SR+63*
X311370750Y-114910000D03*
X311370750Y-113890000D03*
G04 #@! TD*
G04 #@! TO.C,SR-40*
X269739500Y-76810000D03*
X269739500Y-75790000D03*
G04 #@! TD*
D19*
G04 #@! TO.C,SU44*
X79040530Y-93028951D03*
X78607517Y-92778951D03*
X78174504Y-92528951D03*
X77212004Y-94196049D03*
X77645017Y-94446049D03*
X78078030Y-94696049D03*
D20*
X78276267Y-93352692D03*
X77976267Y-93872308D03*
G04 #@! TD*
D18*
G04 #@! TO.C,SC71*
X181492500Y-70375000D03*
X180532500Y-70375000D03*
G04 #@! TD*
D19*
G04 #@! TO.C,SU45*
X98090530Y-93028951D03*
X97657517Y-92778951D03*
X97224504Y-92528951D03*
X96262004Y-94196049D03*
X96695017Y-94446049D03*
X97128030Y-94696049D03*
D20*
X97326267Y-93352692D03*
X97026267Y-93872308D03*
G04 #@! TD*
D19*
G04 #@! TO.C,SU9*
X188578030Y-35878951D03*
X188145017Y-35628951D03*
X187712004Y-35378951D03*
X186749504Y-37046049D03*
X187182517Y-37296049D03*
X187615530Y-37546049D03*
D20*
X187813767Y-36202692D03*
X187513767Y-36722308D03*
G04 #@! TD*
D17*
G04 #@! TO.C,SR+59*
X168495750Y-114910000D03*
X168495750Y-113890000D03*
G04 #@! TD*
D18*
G04 #@! TO.C,SC106*
X249537500Y-96500000D03*
X248577500Y-96500000D03*
G04 #@! TD*
G04 #@! TO.C,SC36*
X101900000Y-58400000D03*
X100940000Y-58400000D03*
G04 #@! TD*
D22*
G04 #@! TO.C,U10*
X78265000Y-177285000D03*
D23*
X77330000Y-177720000D03*
X77330000Y-178220000D03*
X77330000Y-178720000D03*
X77330000Y-179220000D03*
X77330000Y-179720000D03*
X77330000Y-180220000D03*
D22*
X78265000Y-180655000D03*
X78765000Y-180655000D03*
D23*
X79700000Y-180220000D03*
X79700000Y-179720000D03*
X79700000Y-179220000D03*
X79700000Y-178720000D03*
X79700000Y-178220000D03*
X79700000Y-177720000D03*
D22*
X78765000Y-177285000D03*
G04 #@! TD*
D17*
G04 #@! TO.C,SR+27*
X285177000Y-57760000D03*
X285177000Y-56740000D03*
G04 #@! TD*
G04 #@! TO.C,SR-17*
X93527000Y-57760000D03*
X93527000Y-56740000D03*
G04 #@! TD*
G04 #@! TO.C,SR+6*
X142302000Y-38710000D03*
X142302000Y-37690000D03*
G04 #@! TD*
D18*
G04 #@! TO.C,SC46*
X197150000Y-58400000D03*
X196190000Y-58400000D03*
G04 #@! TD*
D17*
G04 #@! TO.C,SR-58*
X95908250Y-114910000D03*
X95908250Y-113890000D03*
G04 #@! TD*
D18*
G04 #@! TO.C,SC90*
X97137500Y-96500000D03*
X96177500Y-96500000D03*
G04 #@! TD*
D17*
G04 #@! TO.C,SR-62*
X286408250Y-114910000D03*
X286408250Y-113890000D03*
G04 #@! TD*
G04 #@! TO.C,SR-57*
X72095750Y-114910000D03*
X72095750Y-113890000D03*
G04 #@! TD*
D14*
G04 #@! TO.C,LED34*
X150362500Y-71870000D03*
D15*
X150362500Y-70370000D03*
X144912500Y-71870000D03*
X144912500Y-70370000D03*
G04 #@! TD*
D14*
G04 #@! TO.C,LED30*
X74162500Y-71870000D03*
D15*
X74162500Y-70370000D03*
X68712500Y-71870000D03*
X68712500Y-70370000D03*
G04 #@! TD*
M02*
