G04 #@! TF.GenerationSoftware,KiCad,Pcbnew,9.0.6*
G04 #@! TF.CreationDate,2026-01-02T19:50:41-05:00*
G04 #@! TF.ProjectId,prometheus-65,70726f6d-6574-4686-9575-732d36352e6b,rev?*
G04 #@! TF.SameCoordinates,Original*
G04 #@! TF.FileFunction,Soldermask,Top*
G04 #@! TF.FilePolarity,Negative*
%FSLAX46Y46*%
G04 Gerber Fmt 4.6, Leading zero omitted, Abs format (unit mm)*
G04 Created by KiCad (PCBNEW 9.0.6) date 2026-01-02 19:50:41*
%MOMM*%
%LPD*%
G01*
G04 APERTURE LIST*
%ADD10C,3.600000*%
%ADD11C,1.750000*%
%ADD12C,4.000000*%
%ADD13C,2.000000*%
%ADD14R,3.200000X2.000000*%
%ADD15R,2.000000X2.000000*%
%ADD16C,0.604000*%
G04 APERTURE END LIST*
D10*
G04 #@! TO.C,S46*
X116522500Y-100330000D03*
X122872500Y-97790000D03*
D11*
X113982500Y-95250000D03*
D12*
X119062500Y-95250000D03*
D11*
X124142500Y-95250000D03*
G04 #@! TD*
D10*
G04 #@! TO.C,S61*
X252253750Y-119380000D03*
X258603750Y-116840000D03*
D11*
X249713750Y-114300000D03*
D12*
X254793750Y-114300000D03*
D11*
X259873750Y-114300000D03*
G04 #@! TD*
D10*
G04 #@! TO.C,S30*
X68897500Y-81280000D03*
X75247500Y-78740000D03*
D11*
X66357500Y-76200000D03*
D12*
X71437500Y-76200000D03*
D11*
X76517500Y-76200000D03*
G04 #@! TD*
D10*
G04 #@! TO.C,S36*
X183197500Y-81280000D03*
X189547500Y-78740000D03*
D11*
X180657500Y-76200000D03*
D12*
X185737500Y-76200000D03*
D11*
X190817500Y-76200000D03*
G04 #@! TD*
D10*
G04 #@! TO.C,S6*
X130810000Y-43180000D03*
X137160000Y-40640000D03*
D11*
X128270000Y-38100000D03*
D12*
X133350000Y-38100000D03*
D11*
X138430000Y-38100000D03*
G04 #@! TD*
D10*
G04 #@! TO.C,S10*
X207010000Y-43180000D03*
X213360000Y-40640000D03*
D11*
X204470000Y-38100000D03*
D12*
X209550000Y-38100000D03*
D11*
X214630000Y-38100000D03*
G04 #@! TD*
D10*
G04 #@! TO.C,S35*
X164147500Y-81280000D03*
X170497500Y-78740000D03*
D11*
X161607500Y-76200000D03*
D12*
X166687500Y-76200000D03*
D11*
X171767500Y-76200000D03*
G04 #@! TD*
D10*
G04 #@! TO.C,S8*
X168910000Y-43180000D03*
X175260000Y-40640000D03*
D11*
X166370000Y-38100000D03*
D12*
X171450000Y-38100000D03*
D11*
X176530000Y-38100000D03*
G04 #@! TD*
D10*
G04 #@! TO.C,S34*
X145097500Y-81280000D03*
X151447500Y-78740000D03*
D11*
X142557500Y-76200000D03*
D12*
X147637500Y-76200000D03*
D11*
X152717500Y-76200000D03*
G04 #@! TD*
D10*
G04 #@! TO.C,S19*
X121285000Y-62230000D03*
X127635000Y-59690000D03*
D11*
X118745000Y-57150000D03*
D12*
X123825000Y-57150000D03*
D11*
X128905000Y-57150000D03*
G04 #@! TD*
D10*
G04 #@! TO.C,S7*
X149860000Y-43180000D03*
X156210000Y-40640000D03*
D11*
X147320000Y-38100000D03*
D12*
X152400000Y-38100000D03*
D11*
X157480000Y-38100000D03*
G04 #@! TD*
D10*
G04 #@! TO.C,S43*
X47466250Y-100330000D03*
X53816250Y-97790000D03*
D11*
X44926250Y-95250000D03*
D12*
X50006250Y-95250000D03*
D11*
X55086250Y-95250000D03*
G04 #@! TD*
D10*
G04 #@! TO.C,S17*
X83185000Y-62230000D03*
X89535000Y-59690000D03*
D11*
X80645000Y-57150000D03*
D12*
X85725000Y-57150000D03*
D11*
X90805000Y-57150000D03*
G04 #@! TD*
D10*
G04 #@! TO.C,S21*
X159385000Y-62230000D03*
X165735000Y-59690000D03*
D11*
X156845000Y-57150000D03*
D12*
X161925000Y-57150000D03*
D11*
X167005000Y-57150000D03*
G04 #@! TD*
D13*
G04 #@! TO.C,SW1*
X330850000Y-35600000D03*
X330850000Y-40600000D03*
D14*
X323850000Y-43700000D03*
X323850000Y-32500000D03*
D13*
X316350000Y-38100000D03*
X316350000Y-40600000D03*
D15*
X316350000Y-35600000D03*
G04 #@! TD*
D10*
G04 #@! TO.C,S33*
X126047500Y-81280000D03*
X132397500Y-78740000D03*
D11*
X123507500Y-76200000D03*
D12*
X128587500Y-76200000D03*
D11*
X133667500Y-76200000D03*
G04 #@! TD*
D10*
G04 #@! TO.C,S1*
X35560000Y-43180000D03*
X41910000Y-40640000D03*
D11*
X33020000Y-38100000D03*
D12*
X38100000Y-38100000D03*
D11*
X43180000Y-38100000D03*
G04 #@! TD*
D10*
G04 #@! TO.C,S4*
X92710000Y-43180000D03*
X99060000Y-40640000D03*
D11*
X90170000Y-38100000D03*
D12*
X95250000Y-38100000D03*
D11*
X100330000Y-38100000D03*
G04 #@! TD*
D10*
G04 #@! TO.C,S24*
X216535000Y-62230000D03*
X222885000Y-59690000D03*
D11*
X213995000Y-57150000D03*
D12*
X219075000Y-57150000D03*
D11*
X224155000Y-57150000D03*
G04 #@! TD*
D10*
G04 #@! TO.C,S56*
X37941250Y-119380000D03*
X44291250Y-116840000D03*
D11*
X35401250Y-114300000D03*
D12*
X40481250Y-114300000D03*
D11*
X45561250Y-114300000D03*
G04 #@! TD*
D10*
G04 #@! TO.C,S44*
X78422500Y-100330000D03*
X84772500Y-97790000D03*
D11*
X75882500Y-95250000D03*
D12*
X80962500Y-95250000D03*
D11*
X86042500Y-95250000D03*
G04 #@! TD*
D10*
G04 #@! TO.C,S9*
X187960000Y-43180000D03*
X194310000Y-40640000D03*
D11*
X185420000Y-38100000D03*
D12*
X190500000Y-38100000D03*
D11*
X195580000Y-38100000D03*
G04 #@! TD*
D10*
G04 #@! TO.C,S62*
X276066250Y-119380000D03*
X282416250Y-116840000D03*
D11*
X273526250Y-114300000D03*
D12*
X278606250Y-114300000D03*
D11*
X283686250Y-114300000D03*
G04 #@! TD*
D10*
G04 #@! TO.C,S38*
X221297500Y-81280000D03*
X227647500Y-78740000D03*
D11*
X218757500Y-76200000D03*
D12*
X223837500Y-76200000D03*
D11*
X228917500Y-76200000D03*
G04 #@! TD*
D10*
G04 #@! TO.C,S14*
X292735000Y-43180000D03*
X299085000Y-40640000D03*
D11*
X290195000Y-38100000D03*
D12*
X295275000Y-38100000D03*
D11*
X300355000Y-38100000D03*
G04 #@! TD*
D10*
G04 #@! TO.C,S15*
X40322500Y-62230000D03*
X46672500Y-59690000D03*
D11*
X37782500Y-57150000D03*
D12*
X42862500Y-57150000D03*
D11*
X47942500Y-57150000D03*
G04 #@! TD*
D10*
G04 #@! TO.C,S57*
X61753750Y-119380000D03*
X68103750Y-116840000D03*
D11*
X59213750Y-114300000D03*
D12*
X64293750Y-114300000D03*
D11*
X69373750Y-114300000D03*
G04 #@! TD*
D10*
G04 #@! TO.C,S16*
X64135000Y-62230000D03*
X70485000Y-59690000D03*
D11*
X61595000Y-57150000D03*
D12*
X66675000Y-57150000D03*
D11*
X71755000Y-57150000D03*
G04 #@! TD*
D10*
G04 #@! TO.C,S23*
X197485000Y-62230000D03*
X203835000Y-59690000D03*
D11*
X194945000Y-57150000D03*
D12*
X200025000Y-57150000D03*
D11*
X205105000Y-57150000D03*
G04 #@! TD*
D10*
G04 #@! TO.C,S32*
X106997500Y-81280000D03*
X113347500Y-78740000D03*
D11*
X104457500Y-76200000D03*
D12*
X109537500Y-76200000D03*
D11*
X114617500Y-76200000D03*
G04 #@! TD*
D10*
G04 #@! TO.C,S12*
X245110000Y-43180000D03*
X251460000Y-40640000D03*
D11*
X242570000Y-38100000D03*
D12*
X247650000Y-38100000D03*
D11*
X252730000Y-38100000D03*
G04 #@! TD*
D10*
G04 #@! TO.C,S31*
X87947500Y-81280000D03*
X94297500Y-78740000D03*
D11*
X85407500Y-76200000D03*
D12*
X90487500Y-76200000D03*
D11*
X95567500Y-76200000D03*
G04 #@! TD*
D10*
G04 #@! TO.C,S26*
X254635000Y-62230000D03*
X260985000Y-59690000D03*
D11*
X252095000Y-57150000D03*
D12*
X257175000Y-57150000D03*
D11*
X262255000Y-57150000D03*
G04 #@! TD*
D10*
G04 #@! TO.C,S25*
X235585000Y-62230000D03*
X241935000Y-59690000D03*
D11*
X233045000Y-57150000D03*
D12*
X238125000Y-57150000D03*
D11*
X243205000Y-57150000D03*
G04 #@! TD*
D10*
G04 #@! TO.C,S47*
X135572500Y-100330000D03*
X141922500Y-97790000D03*
D11*
X133032500Y-95250000D03*
D12*
X138112500Y-95250000D03*
D11*
X143192500Y-95250000D03*
G04 #@! TD*
D10*
G04 #@! TO.C,S2*
X54610000Y-43180000D03*
X60960000Y-40640000D03*
D11*
X52070000Y-38100000D03*
D12*
X57150000Y-38100000D03*
D11*
X62230000Y-38100000D03*
G04 #@! TD*
D10*
G04 #@! TO.C,S52*
X230822500Y-100330000D03*
X237172500Y-97790000D03*
D11*
X228282500Y-95250000D03*
D12*
X233362500Y-95250000D03*
D11*
X238442500Y-95250000D03*
G04 #@! TD*
D10*
G04 #@! TO.C,S49*
X173672500Y-100330000D03*
X180022500Y-97790000D03*
D11*
X171132500Y-95250000D03*
D12*
X176212500Y-95250000D03*
D11*
X181292500Y-95250000D03*
G04 #@! TD*
D10*
G04 #@! TO.C,S37*
X202247500Y-81280000D03*
X208597500Y-78740000D03*
D11*
X199707500Y-76200000D03*
D12*
X204787500Y-76200000D03*
D11*
X209867500Y-76200000D03*
G04 #@! TD*
D10*
G04 #@! TO.C,S42*
X321310000Y-81280000D03*
X327660000Y-78740000D03*
D11*
X318770000Y-76200000D03*
D12*
X323850000Y-76200000D03*
D11*
X328930000Y-76200000D03*
G04 #@! TD*
D10*
G04 #@! TO.C,S54*
X285591250Y-100330000D03*
X291941250Y-97790000D03*
D11*
X283051250Y-95250000D03*
D12*
X288131250Y-95250000D03*
D11*
X293211250Y-95250000D03*
G04 #@! TD*
D10*
G04 #@! TO.C,S64*
X321310000Y-119380000D03*
X327660000Y-116840000D03*
D11*
X318770000Y-114300000D03*
D12*
X323850000Y-114300000D03*
D11*
X328930000Y-114300000D03*
G04 #@! TD*
D10*
G04 #@! TO.C,S13*
X264160000Y-43180000D03*
X270510000Y-40640000D03*
D11*
X261620000Y-38100000D03*
D12*
X266700000Y-38100000D03*
D11*
X271780000Y-38100000D03*
G04 #@! TD*
D10*
G04 #@! TO.C,S53*
X249872500Y-100330000D03*
X256222500Y-97790000D03*
D11*
X247332500Y-95250000D03*
D12*
X252412500Y-95250000D03*
D11*
X257492500Y-95250000D03*
G04 #@! TD*
D10*
G04 #@! TO.C,S29*
X42703750Y-81280000D03*
X49053750Y-78740000D03*
D11*
X40163750Y-76200000D03*
D12*
X45243750Y-76200000D03*
D11*
X50323750Y-76200000D03*
G04 #@! TD*
D10*
G04 #@! TO.C,S3*
X73660000Y-43180000D03*
X80010000Y-40640000D03*
D11*
X71120000Y-38100000D03*
D12*
X76200000Y-38100000D03*
D11*
X81280000Y-38100000D03*
G04 #@! TD*
D10*
G04 #@! TO.C,S39*
X240347500Y-81280000D03*
X246697500Y-78740000D03*
D11*
X237807500Y-76200000D03*
D12*
X242887500Y-76200000D03*
D11*
X247967500Y-76200000D03*
G04 #@! TD*
D10*
G04 #@! TO.C,S11*
X226060000Y-43180000D03*
X232410000Y-40640000D03*
D11*
X223520000Y-38100000D03*
D12*
X228600000Y-38100000D03*
D11*
X233680000Y-38100000D03*
G04 #@! TD*
D10*
G04 #@! TO.C,S45*
X97472500Y-100330000D03*
X103822500Y-97790000D03*
D11*
X94932500Y-95250000D03*
D12*
X100012500Y-95250000D03*
D11*
X105092500Y-95250000D03*
G04 #@! TD*
D10*
G04 #@! TO.C,S59*
X157003750Y-119380000D03*
X163353750Y-116840000D03*
D11*
X154463750Y-114300000D03*
D12*
X159543750Y-114300000D03*
D11*
X164623750Y-114300000D03*
G04 #@! TD*
D10*
G04 #@! TO.C,S20*
X140335000Y-62230000D03*
X146685000Y-59690000D03*
D11*
X137795000Y-57150000D03*
D12*
X142875000Y-57150000D03*
D11*
X147955000Y-57150000D03*
G04 #@! TD*
D10*
G04 #@! TO.C,S28*
X297497500Y-62230000D03*
X303847500Y-59690000D03*
D11*
X294957500Y-57150000D03*
D12*
X300037500Y-57150000D03*
D11*
X305117500Y-57150000D03*
G04 #@! TD*
D10*
G04 #@! TO.C,S27*
X273685000Y-62230000D03*
X280035000Y-59690000D03*
D11*
X271145000Y-57150000D03*
D12*
X276225000Y-57150000D03*
D11*
X281305000Y-57150000D03*
G04 #@! TD*
D10*
G04 #@! TO.C,S22*
X178435000Y-62230000D03*
X184785000Y-59690000D03*
D11*
X175895000Y-57150000D03*
D12*
X180975000Y-57150000D03*
D11*
X186055000Y-57150000D03*
G04 #@! TD*
D10*
G04 #@! TO.C,S55*
X321310000Y-100330000D03*
X327660000Y-97790000D03*
D11*
X318770000Y-95250000D03*
D12*
X323850000Y-95250000D03*
D11*
X328930000Y-95250000D03*
G04 #@! TD*
D10*
G04 #@! TO.C,S48*
X154622500Y-100330000D03*
X160972500Y-97790000D03*
D11*
X152082500Y-95250000D03*
D12*
X157162500Y-95250000D03*
D11*
X162242500Y-95250000D03*
G04 #@! TD*
D10*
G04 #@! TO.C,S58*
X85566250Y-119380000D03*
X91916250Y-116840000D03*
D11*
X83026250Y-114300000D03*
D12*
X88106250Y-114300000D03*
D11*
X93186250Y-114300000D03*
G04 #@! TD*
D10*
G04 #@! TO.C,S50*
X192722500Y-100330000D03*
X199072500Y-97790000D03*
D11*
X190182500Y-95250000D03*
D12*
X195262500Y-95250000D03*
D11*
X200342500Y-95250000D03*
G04 #@! TD*
D10*
G04 #@! TO.C,S5*
X111760000Y-43180000D03*
X118110000Y-40640000D03*
D11*
X109220000Y-38100000D03*
D12*
X114300000Y-38100000D03*
D11*
X119380000Y-38100000D03*
G04 #@! TD*
D10*
G04 #@! TO.C,S40*
X259397500Y-81280000D03*
X265747500Y-78740000D03*
D11*
X256857500Y-76200000D03*
D12*
X261937500Y-76200000D03*
D11*
X267017500Y-76200000D03*
G04 #@! TD*
D10*
G04 #@! TO.C,S51*
X211772500Y-100330000D03*
X218122500Y-97790000D03*
D11*
X209232500Y-95250000D03*
D12*
X214312500Y-95250000D03*
D11*
X219392500Y-95250000D03*
G04 #@! TD*
D10*
G04 #@! TO.C,S63*
X299878750Y-119380000D03*
X306228750Y-116840000D03*
D11*
X297338750Y-114300000D03*
D12*
X302418750Y-114300000D03*
D11*
X307498750Y-114300000D03*
G04 #@! TD*
D10*
G04 #@! TO.C,S60*
X228441250Y-119380000D03*
X234791250Y-116840000D03*
D11*
X225901250Y-114300000D03*
D12*
X230981250Y-114300000D03*
D11*
X236061250Y-114300000D03*
G04 #@! TD*
D10*
G04 #@! TO.C,S18*
X102235000Y-62230000D03*
X108585000Y-59690000D03*
D11*
X99695000Y-57150000D03*
D12*
X104775000Y-57150000D03*
D11*
X109855000Y-57150000D03*
G04 #@! TD*
D10*
G04 #@! TO.C,S41*
X290353750Y-81280000D03*
X296703750Y-78740000D03*
D11*
X287813750Y-76200000D03*
D12*
X292893750Y-76200000D03*
D11*
X297973750Y-76200000D03*
G04 #@! TD*
D16*
G04 #@! TO.C,U1*
X144750000Y-166830000D03*
X145750000Y-166830000D03*
X144750000Y-165830000D03*
X145750000Y-165830000D03*
G04 #@! TD*
M02*
