G04 #@! TF.GenerationSoftware,KiCad,Pcbnew,9.0.6*
G04 #@! TF.CreationDate,2026-01-02T19:50:41-05:00*
G04 #@! TF.ProjectId,prometheus-65,70726f6d-6574-4686-9575-732d36352e6b,rev?*
G04 #@! TF.SameCoordinates,Original*
G04 #@! TF.FileFunction,Copper,L5,Inr*
G04 #@! TF.FilePolarity,Positive*
%FSLAX46Y46*%
G04 Gerber Fmt 4.6, Leading zero omitted, Abs format (unit mm)*
G04 Created by KiCad (PCBNEW 9.0.6) date 2026-01-02 19:50:41*
%MOMM*%
%LPD*%
G01*
G04 APERTURE LIST*
G04 #@! TA.AperFunction,ComponentPad*
%ADD10C,0.400000*%
G04 #@! TD*
G04 #@! TA.AperFunction,ComponentPad*
%ADD11C,3.600000*%
G04 #@! TD*
G04 #@! TA.AperFunction,ComponentPad*
%ADD12C,2.000000*%
G04 #@! TD*
G04 #@! TA.AperFunction,ComponentPad*
%ADD13R,3.200000X2.000000*%
G04 #@! TD*
G04 #@! TA.AperFunction,ComponentPad*
%ADD14R,2.000000X2.000000*%
G04 #@! TD*
G04 #@! TA.AperFunction,ViaPad*
%ADD15C,0.300000*%
G04 #@! TD*
G04 APERTURE END LIST*
D10*
G04 #@! TO.N,N/C*
G04 #@! TO.C,U7*
X255540000Y-47625000D03*
X254040000Y-47625000D03*
G04 #@! TD*
G04 #@! TO.N,N/C*
G04 #@! TO.C,U8*
X260300000Y-47635000D03*
X258800000Y-47635000D03*
G04 #@! TD*
D11*
G04 #@! TO.N,GND*
G04 #@! TO.C,S46*
X116522500Y-100330000D03*
G04 #@! TO.N,/Key_45/VOUT-*
X122872500Y-97790000D03*
G04 #@! TD*
G04 #@! TO.N,GND*
G04 #@! TO.C,S61*
X252253750Y-119380000D03*
G04 #@! TO.N,/Key_60/VOUT-*
X258603750Y-116840000D03*
G04 #@! TD*
G04 #@! TO.N,GND*
G04 #@! TO.C,S30*
X68897500Y-81280000D03*
G04 #@! TO.N,/Key_29/VOUT-*
X75247500Y-78740000D03*
G04 #@! TD*
G04 #@! TO.N,GND*
G04 #@! TO.C,S36*
X183197500Y-81280000D03*
G04 #@! TO.N,/Key_35/VOUT-*
X189547500Y-78740000D03*
G04 #@! TD*
G04 #@! TO.N,GND*
G04 #@! TO.C,S6*
X130810000Y-43180000D03*
G04 #@! TO.N,/Key_5/VOUT-*
X137160000Y-40640000D03*
G04 #@! TD*
G04 #@! TO.N,GND*
G04 #@! TO.C,S10*
X207010000Y-43180000D03*
G04 #@! TO.N,/Key_9/VOUT-*
X213360000Y-40640000D03*
G04 #@! TD*
G04 #@! TO.N,GND*
G04 #@! TO.C,S35*
X164147500Y-81280000D03*
G04 #@! TO.N,/Key_34/VOUT-*
X170497500Y-78740000D03*
G04 #@! TD*
G04 #@! TO.N,GND*
G04 #@! TO.C,S8*
X168910000Y-43180000D03*
G04 #@! TO.N,/Key_7/VOUT-*
X175260000Y-40640000D03*
G04 #@! TD*
G04 #@! TO.N,GND*
G04 #@! TO.C,S34*
X145097500Y-81280000D03*
G04 #@! TO.N,/Key_33/VOUT-*
X151447500Y-78740000D03*
G04 #@! TD*
G04 #@! TO.N,GND*
G04 #@! TO.C,S19*
X121285000Y-62230000D03*
G04 #@! TO.N,/Key_18/VOUT-*
X127635000Y-59690000D03*
G04 #@! TD*
G04 #@! TO.N,GND*
G04 #@! TO.C,S7*
X149860000Y-43180000D03*
G04 #@! TO.N,/Key_6/VOUT-*
X156210000Y-40640000D03*
G04 #@! TD*
G04 #@! TO.N,GND*
G04 #@! TO.C,S43*
X47466250Y-100330000D03*
G04 #@! TO.N,/Key_42/VOUT-*
X53816250Y-97790000D03*
G04 #@! TD*
G04 #@! TO.N,GND*
G04 #@! TO.C,S17*
X83185000Y-62230000D03*
G04 #@! TO.N,/Key_16/VOUT-*
X89535000Y-59690000D03*
G04 #@! TD*
G04 #@! TO.N,GND*
G04 #@! TO.C,S21*
X159385000Y-62230000D03*
G04 #@! TO.N,/Key_20/VOUT-*
X165735000Y-59690000D03*
G04 #@! TD*
D12*
G04 #@! TO.N,GND*
G04 #@! TO.C,SW1*
X330850000Y-35600000D03*
G04 #@! TO.N,/STM32F405RGT6/ENC_SIG*
X330850000Y-40600000D03*
D13*
G04 #@! TO.N,N/C*
X323850000Y-43700000D03*
X323850000Y-32500000D03*
D12*
G04 #@! TO.N,GND*
X316350000Y-38100000D03*
G04 #@! TO.N,/STM32F405RGT6/ENC_CH2*
X316350000Y-40600000D03*
D14*
G04 #@! TO.N,/STM32F405RGT6/ENC_CH1*
X316350000Y-35600000D03*
G04 #@! TD*
D11*
G04 #@! TO.N,GND*
G04 #@! TO.C,S33*
X126047500Y-81280000D03*
G04 #@! TO.N,/Key_32/VOUT-*
X132397500Y-78740000D03*
G04 #@! TD*
G04 #@! TO.N,GND*
G04 #@! TO.C,S1*
X35560000Y-43180000D03*
G04 #@! TO.N,/Key_0/VOUT-*
X41910000Y-40640000D03*
G04 #@! TD*
G04 #@! TO.N,GND*
G04 #@! TO.C,S4*
X92710000Y-43180000D03*
G04 #@! TO.N,/Key_3/VOUT-*
X99060000Y-40640000D03*
G04 #@! TD*
G04 #@! TO.N,GND*
G04 #@! TO.C,S24*
X216535000Y-62230000D03*
G04 #@! TO.N,/Key_23/VOUT-*
X222885000Y-59690000D03*
G04 #@! TD*
G04 #@! TO.N,GND*
G04 #@! TO.C,S56*
X37941250Y-119380000D03*
G04 #@! TO.N,/Key_55/VOUT-*
X44291250Y-116840000D03*
G04 #@! TD*
G04 #@! TO.N,GND*
G04 #@! TO.C,S44*
X78422500Y-100330000D03*
G04 #@! TO.N,/Key_43/VOUT-*
X84772500Y-97790000D03*
G04 #@! TD*
G04 #@! TO.N,GND*
G04 #@! TO.C,S9*
X187960000Y-43180000D03*
G04 #@! TO.N,/Key_8/VOUT-*
X194310000Y-40640000D03*
G04 #@! TD*
G04 #@! TO.N,GND*
G04 #@! TO.C,S62*
X276066250Y-119380000D03*
G04 #@! TO.N,/Key_61/VOUT-*
X282416250Y-116840000D03*
G04 #@! TD*
G04 #@! TO.N,GND*
G04 #@! TO.C,S38*
X221297500Y-81280000D03*
G04 #@! TO.N,/Key_37/VOUT-*
X227647500Y-78740000D03*
G04 #@! TD*
G04 #@! TO.N,GND*
G04 #@! TO.C,S14*
X292735000Y-43180000D03*
G04 #@! TO.N,/Key_13/VOUT-*
X299085000Y-40640000D03*
G04 #@! TD*
G04 #@! TO.N,GND*
G04 #@! TO.C,S15*
X40322500Y-62230000D03*
G04 #@! TO.N,/Key_14/VOUT-*
X46672500Y-59690000D03*
G04 #@! TD*
G04 #@! TO.N,GND*
G04 #@! TO.C,S57*
X61753750Y-119380000D03*
G04 #@! TO.N,/Key_56/VOUT-*
X68103750Y-116840000D03*
G04 #@! TD*
G04 #@! TO.N,GND*
G04 #@! TO.C,S16*
X64135000Y-62230000D03*
G04 #@! TO.N,/Key_15/VOUT-*
X70485000Y-59690000D03*
G04 #@! TD*
G04 #@! TO.N,GND*
G04 #@! TO.C,S23*
X197485000Y-62230000D03*
G04 #@! TO.N,/Key_22/VOUT-*
X203835000Y-59690000D03*
G04 #@! TD*
G04 #@! TO.N,GND*
G04 #@! TO.C,S32*
X106997500Y-81280000D03*
G04 #@! TO.N,/Key_31/VOUT-*
X113347500Y-78740000D03*
G04 #@! TD*
G04 #@! TO.N,GND*
G04 #@! TO.C,S12*
X245110000Y-43180000D03*
G04 #@! TO.N,/Key_11/VOUT-*
X251460000Y-40640000D03*
G04 #@! TD*
G04 #@! TO.N,GND*
G04 #@! TO.C,S31*
X87947500Y-81280000D03*
G04 #@! TO.N,/Key_30/VOUT-*
X94297500Y-78740000D03*
G04 #@! TD*
G04 #@! TO.N,GND*
G04 #@! TO.C,S26*
X254635000Y-62230000D03*
G04 #@! TO.N,/Key_25/VOUT-*
X260985000Y-59690000D03*
G04 #@! TD*
G04 #@! TO.N,GND*
G04 #@! TO.C,S25*
X235585000Y-62230000D03*
G04 #@! TO.N,/Key_24/VOUT-*
X241935000Y-59690000D03*
G04 #@! TD*
G04 #@! TO.N,GND*
G04 #@! TO.C,S47*
X135572500Y-100330000D03*
G04 #@! TO.N,/Key_46/VOUT-*
X141922500Y-97790000D03*
G04 #@! TD*
G04 #@! TO.N,GND*
G04 #@! TO.C,S2*
X54610000Y-43180000D03*
G04 #@! TO.N,/Key_1/VOUT-*
X60960000Y-40640000D03*
G04 #@! TD*
G04 #@! TO.N,GND*
G04 #@! TO.C,S52*
X230822500Y-100330000D03*
G04 #@! TO.N,/Key_51/VOUT-*
X237172500Y-97790000D03*
G04 #@! TD*
G04 #@! TO.N,GND*
G04 #@! TO.C,S49*
X173672500Y-100330000D03*
G04 #@! TO.N,/Key_48/VOUT-*
X180022500Y-97790000D03*
G04 #@! TD*
G04 #@! TO.N,GND*
G04 #@! TO.C,S37*
X202247500Y-81280000D03*
G04 #@! TO.N,/Key_36/VOUT-*
X208597500Y-78740000D03*
G04 #@! TD*
G04 #@! TO.N,GND*
G04 #@! TO.C,S42*
X321310000Y-81280000D03*
G04 #@! TO.N,/Key_41/VOUT-*
X327660000Y-78740000D03*
G04 #@! TD*
G04 #@! TO.N,GND*
G04 #@! TO.C,S54*
X285591250Y-100330000D03*
G04 #@! TO.N,/Key_53/VOUT-*
X291941250Y-97790000D03*
G04 #@! TD*
G04 #@! TO.N,GND*
G04 #@! TO.C,S64*
X321310000Y-119380000D03*
G04 #@! TO.N,/Key_63/VOUT-*
X327660000Y-116840000D03*
G04 #@! TD*
G04 #@! TO.N,GND*
G04 #@! TO.C,S13*
X264160000Y-43180000D03*
G04 #@! TO.N,/Key_12/VOUT-*
X270510000Y-40640000D03*
G04 #@! TD*
G04 #@! TO.N,GND*
G04 #@! TO.C,S53*
X249872500Y-100330000D03*
G04 #@! TO.N,/Key_52/VOUT-*
X256222500Y-97790000D03*
G04 #@! TD*
G04 #@! TO.N,GND*
G04 #@! TO.C,S29*
X42703750Y-81280000D03*
G04 #@! TO.N,/Key_28/VOUT-*
X49053750Y-78740000D03*
G04 #@! TD*
G04 #@! TO.N,GND*
G04 #@! TO.C,S3*
X73660000Y-43180000D03*
G04 #@! TO.N,/Key_2/VOUT-*
X80010000Y-40640000D03*
G04 #@! TD*
G04 #@! TO.N,GND*
G04 #@! TO.C,S39*
X240347500Y-81280000D03*
G04 #@! TO.N,/Key_38/VOUT-*
X246697500Y-78740000D03*
G04 #@! TD*
G04 #@! TO.N,GND*
G04 #@! TO.C,S11*
X226060000Y-43180000D03*
G04 #@! TO.N,/Key_10/VOUT-*
X232410000Y-40640000D03*
G04 #@! TD*
G04 #@! TO.N,GND*
G04 #@! TO.C,S45*
X97472500Y-100330000D03*
G04 #@! TO.N,/Key_44/VOUT-*
X103822500Y-97790000D03*
G04 #@! TD*
G04 #@! TO.N,GND*
G04 #@! TO.C,S59*
X157003750Y-119380000D03*
G04 #@! TO.N,/Key_58/VOUT-*
X163353750Y-116840000D03*
G04 #@! TD*
G04 #@! TO.N,GND*
G04 #@! TO.C,S20*
X140335000Y-62230000D03*
G04 #@! TO.N,/Key_19/VOUT-*
X146685000Y-59690000D03*
G04 #@! TD*
G04 #@! TO.N,GND*
G04 #@! TO.C,S28*
X297497500Y-62230000D03*
G04 #@! TO.N,/Key_27/VOUT-*
X303847500Y-59690000D03*
G04 #@! TD*
G04 #@! TO.N,GND*
G04 #@! TO.C,S27*
X273685000Y-62230000D03*
G04 #@! TO.N,/Key_26/VOUT-*
X280035000Y-59690000D03*
G04 #@! TD*
G04 #@! TO.N,GND*
G04 #@! TO.C,S22*
X178435000Y-62230000D03*
G04 #@! TO.N,/Key_21/VOUT-*
X184785000Y-59690000D03*
G04 #@! TD*
G04 #@! TO.N,GND*
G04 #@! TO.C,S55*
X321310000Y-100330000D03*
G04 #@! TO.N,/Key_54/VOUT-*
X327660000Y-97790000D03*
G04 #@! TD*
G04 #@! TO.N,GND*
G04 #@! TO.C,S48*
X154622500Y-100330000D03*
G04 #@! TO.N,/Key_47/VOUT-*
X160972500Y-97790000D03*
G04 #@! TD*
G04 #@! TO.N,GND*
G04 #@! TO.C,S58*
X85566250Y-119380000D03*
G04 #@! TO.N,/Key_57/VOUT-*
X91916250Y-116840000D03*
G04 #@! TD*
G04 #@! TO.N,GND*
G04 #@! TO.C,S50*
X192722500Y-100330000D03*
G04 #@! TO.N,/Key_49/VOUT-*
X199072500Y-97790000D03*
G04 #@! TD*
G04 #@! TO.N,GND*
G04 #@! TO.C,S5*
X111760000Y-43180000D03*
G04 #@! TO.N,/Key_4/VOUT-*
X118110000Y-40640000D03*
G04 #@! TD*
G04 #@! TO.N,GND*
G04 #@! TO.C,S40*
X259397500Y-81280000D03*
G04 #@! TO.N,/Key_39/VOUT-*
X265747500Y-78740000D03*
G04 #@! TD*
G04 #@! TO.N,GND*
G04 #@! TO.C,S51*
X211772500Y-100330000D03*
G04 #@! TO.N,/Key_50/VOUT-*
X218122500Y-97790000D03*
G04 #@! TD*
G04 #@! TO.N,GND*
G04 #@! TO.C,S63*
X299878750Y-119380000D03*
G04 #@! TO.N,/Key_62/VOUT-*
X306228750Y-116840000D03*
G04 #@! TD*
G04 #@! TO.N,GND*
G04 #@! TO.C,S60*
X228441250Y-119380000D03*
G04 #@! TO.N,/Key_59/VOUT-*
X234791250Y-116840000D03*
G04 #@! TD*
G04 #@! TO.N,GND*
G04 #@! TO.C,S18*
X102235000Y-62230000D03*
G04 #@! TO.N,/Key_17/VOUT-*
X108585000Y-59690000D03*
G04 #@! TD*
G04 #@! TO.N,GND*
G04 #@! TO.C,S41*
X290353750Y-81280000D03*
G04 #@! TO.N,/Key_40/VOUT-*
X296703750Y-78740000D03*
G04 #@! TD*
D10*
G04 #@! TO.N,N/C*
G04 #@! TO.C,U1*
X144750000Y-166830000D03*
X145750000Y-166830000D03*
X144750000Y-165830000D03*
X145750000Y-165830000D03*
G04 #@! TD*
G04 #@! TO.N,N/C*
G04 #@! TO.C,U12*
X57885000Y-142520000D03*
X57885000Y-141020000D03*
G04 #@! TD*
G04 #@! TO.N,N/C*
G04 #@! TO.C,U6*
X106400000Y-47635000D03*
X107900000Y-47635000D03*
G04 #@! TD*
G04 #@! TO.N,N/C*
G04 #@! TO.C,U9*
X85295000Y-163140000D03*
X85295000Y-161640000D03*
G04 #@! TD*
G04 #@! TO.N,N/C*
G04 #@! TO.C,U14*
X71735000Y-163140000D03*
X71735000Y-161640000D03*
G04 #@! TD*
G04 #@! TO.N,N/C*
G04 #@! TO.C,U17*
X58175000Y-154850000D03*
X58175000Y-153350000D03*
G04 #@! TD*
G04 #@! TO.N,N/C*
G04 #@! TO.C,U19*
X64955000Y-154850000D03*
X64955000Y-153350000D03*
G04 #@! TD*
G04 #@! TO.N,N/C*
G04 #@! TO.C,U11*
X71735000Y-154850000D03*
X71735000Y-153350000D03*
G04 #@! TD*
G04 #@! TO.N,N/C*
G04 #@! TO.C,U13*
X78515000Y-171430000D03*
X78515000Y-169930000D03*
G04 #@! TD*
G04 #@! TO.N,N/C*
G04 #@! TO.C,U15*
X85295000Y-179720000D03*
X85295000Y-178220000D03*
G04 #@! TD*
G04 #@! TO.N,N/C*
G04 #@! TO.C,U20*
X78515000Y-154850000D03*
X78515000Y-153350000D03*
G04 #@! TD*
G04 #@! TO.N,N/C*
G04 #@! TO.C,U5*
X101640000Y-47625000D03*
X103140000Y-47625000D03*
G04 #@! TD*
G04 #@! TO.N,N/C*
G04 #@! TO.C,U18*
X85295000Y-171430000D03*
X85295000Y-169930000D03*
G04 #@! TD*
G04 #@! TO.N,N/C*
G04 #@! TO.C,U16*
X71445000Y-142520000D03*
X71445000Y-141020000D03*
G04 #@! TD*
G04 #@! TO.N,N/C*
G04 #@! TO.C,U10*
X78515000Y-179720000D03*
X78515000Y-178220000D03*
G04 #@! TD*
D15*
G04 #@! TO.N,/Key_10/VOUT+*
X256152000Y-43000000D03*
G04 #@! TO.N,/Key_15/VOUT+*
X262725000Y-50577000D03*
G04 #@! TO.N,/Key_10/VOUT+*
X260800000Y-46450000D03*
G04 #@! TO.N,/Key_11/VOUT+*
X253257247Y-45259000D03*
G04 #@! TO.N,MUX_A1*
X258300000Y-46450000D03*
G04 #@! TO.N,/Key_8/VOUT+*
X252915347Y-44350000D03*
G04 #@! TO.N,/Key_9/VOUT+*
X252582447Y-43450000D03*
G04 #@! TO.N,MUX_A2*
X248150000Y-51150000D03*
G04 #@! TO.N,+3.3VD*
X256475000Y-47375000D03*
G04 #@! TO.N,GND*
X253100000Y-47875000D03*
G04 #@! TO.N,MUX_A2*
X257900000Y-47405000D03*
G04 #@! TO.N,MUX_A0*
X257052000Y-45709000D03*
G04 #@! TO.N,MUX_A1*
X247650000Y-51150000D03*
G04 #@! TO.N,/Key_11/VOUT+*
X259300000Y-46450000D03*
G04 #@! TO.N,GND*
X258800000Y-48825000D03*
G04 #@! TO.N,/Key_12/VOUT+*
X256475000Y-47875000D03*
X261300000Y-48365000D03*
G04 #@! TO.N,/Key_13/VOUT+*
X262722000Y-51478000D03*
X254540000Y-48810000D03*
G04 #@! TO.N,/Key_9/VOUT+*
X260300000Y-46450000D03*
G04 #@! TO.N,+3.3VD*
X261250000Y-47375000D03*
G04 #@! TO.N,/Key_8/VOUT+*
X259800000Y-46450000D03*
G04 #@! TO.N,GND*
X254775000Y-47625000D03*
G04 #@! TO.N,Mux_D1+*
X248650000Y-51150000D03*
G04 #@! TO.N,/Key_14/VOUT+*
X261300000Y-49275000D03*
X256040000Y-48810000D03*
G04 #@! TO.N,Mux_D1-*
X265006683Y-47853000D03*
G04 #@! TO.N,MUX_A0*
X247150000Y-51150000D03*
G04 #@! TO.N,GND*
X257863638Y-47903678D03*
X254025000Y-48825000D03*
G04 #@! TO.N,/Key_15/VOUT+*
X255040000Y-48810000D03*
G04 #@! TO.N,/Key_8/VOUT-*
X217202822Y8804678D03*
X210318169Y10904678D03*
G04 #@! TO.N,/Key_9/VOUT-*
X217702822Y8804678D03*
X209985269Y11804678D03*
G04 #@! TO.N,/Key_10/VOUT-*
X218202822Y8804678D03*
X213554822Y12254678D03*
G04 #@! TO.N,/Key_11/VOUT-*
X216702822Y8804678D03*
X210660069Y9995678D03*
G04 #@! TO.N,Mux_D1-*
X222409505Y7401678D03*
G04 #@! TO.N,/Key_12/VOUT+*
X213877822Y7379678D03*
X218702822Y6889678D03*
G04 #@! TO.N,/Key_13/VOUT+*
X211942822Y6444678D03*
X220124822Y3776678D03*
G04 #@! TO.N,/Key_14/VOUT+*
X218702822Y5979678D03*
X213442822Y6444678D03*
G04 #@! TO.N,/Key_15/VOUT+*
X220127822Y4677678D03*
X212442822Y6444678D03*
G04 #@! TO.N,Mux_D0-*
X112606683Y-47853000D03*
G04 #@! TO.N,/Key_7/VOUT+*
X102140000Y-48810000D03*
G04 #@! TO.N,/Key_6/VOUT+*
X110325000Y-50577000D03*
X102640000Y-48810000D03*
G04 #@! TO.N,/Key_5/VOUT+*
X103640000Y-48810000D03*
X108900000Y-49275000D03*
G04 #@! TO.N,/Key_4/VOUT+*
X108900000Y-48365000D03*
X104075000Y-47875000D03*
G04 #@! TO.N,GND*
X101625000Y-48825000D03*
G04 #@! TO.N,/Key_3/VOUT-*
X103752000Y-43000000D03*
X108400000Y-46450000D03*
G04 #@! TO.N,/Key_1/VOUT-*
X107400000Y-46450000D03*
G04 #@! TO.N,+3.3VD*
X108850000Y-47375000D03*
G04 #@! TO.N,GND*
X106400000Y-48825000D03*
X105463638Y-47903678D03*
G04 #@! TO.N,MUX_A1*
X105900000Y-46450000D03*
G04 #@! TO.N,/Key_0/VOUT-*
X106900000Y-46450000D03*
G04 #@! TO.N,MUX_A2*
X105500000Y-47405000D03*
G04 #@! TO.N,MUX_A0*
X94750000Y-51150000D03*
G04 #@! TO.N,/Key_2/VOUT-*
X100182447Y-43450000D03*
G04 #@! TO.N,/Key_1/VOUT-*
X100515347Y-44350000D03*
G04 #@! TO.N,+5V*
X204345000Y-32275000D03*
G04 #@! TO.N,+3.3VA*
X206675000Y-40000000D03*
G04 #@! TO.N,GND*
X212275000Y-33750000D03*
X205700000Y-39350000D03*
X205800000Y-37050000D03*
G04 #@! TO.N,+5V*
X185295000Y-32275000D03*
G04 #@! TO.N,+3.3VA*
X187625000Y-40000000D03*
G04 #@! TO.N,GND*
X193225000Y-33750000D03*
X186650000Y-39350000D03*
X186750000Y-37050000D03*
G04 #@! TO.N,+5V*
X166245000Y-32275000D03*
G04 #@! TO.N,+3.3VA*
X168575000Y-40000000D03*
G04 #@! TO.N,GND*
X174175000Y-33750000D03*
X167600000Y-39350000D03*
X167700000Y-37050000D03*
G04 #@! TO.N,+5V*
X318645000Y-108475000D03*
G04 #@! TO.N,+3.3VA*
X320975000Y-116200000D03*
G04 #@! TO.N,GND*
X326575000Y-109950000D03*
X320000000Y-115550000D03*
X320100000Y-113250000D03*
G04 #@! TO.N,+5V*
X297213750Y-108475000D03*
G04 #@! TO.N,+3.3VA*
X299543750Y-116200000D03*
G04 #@! TO.N,GND*
X305143750Y-109950000D03*
X298568750Y-115550000D03*
X298668750Y-113250000D03*
G04 #@! TO.N,+5V*
X273401250Y-108475000D03*
G04 #@! TO.N,+3.3VA*
X275731250Y-116200000D03*
G04 #@! TO.N,GND*
X281331250Y-109950000D03*
X274756250Y-115550000D03*
X274856250Y-113250000D03*
G04 #@! TO.N,+5V*
X249588750Y-108475000D03*
G04 #@! TO.N,+3.3VA*
X251918750Y-116200000D03*
G04 #@! TO.N,GND*
X257518750Y-109950000D03*
X250943750Y-115550000D03*
X251043750Y-113250000D03*
G04 #@! TO.N,+5V*
X147195000Y-32275000D03*
G04 #@! TO.N,+3.3VA*
X149525000Y-40000000D03*
G04 #@! TO.N,GND*
X155125000Y-33750000D03*
X148550000Y-39350000D03*
X148650000Y-37050000D03*
G04 #@! TO.N,+5V*
X225776250Y-108475000D03*
G04 #@! TO.N,+3.3VA*
X228106250Y-116200000D03*
G04 #@! TO.N,GND*
X233706250Y-109950000D03*
X227131250Y-115550000D03*
X227231250Y-113250000D03*
G04 #@! TO.N,+5V*
X154338750Y-108475000D03*
G04 #@! TO.N,+3.3VA*
X156668750Y-116200000D03*
G04 #@! TO.N,GND*
X162268750Y-109950000D03*
X155693750Y-115550000D03*
X155793750Y-113250000D03*
G04 #@! TO.N,+5V*
X82901250Y-108475000D03*
G04 #@! TO.N,+3.3VA*
X85231250Y-116200000D03*
G04 #@! TO.N,GND*
X90831250Y-109950000D03*
X84256250Y-115550000D03*
X84356250Y-113250000D03*
G04 #@! TO.N,+5V*
X59088750Y-108475000D03*
G04 #@! TO.N,+3.3VA*
X61418750Y-116200000D03*
G04 #@! TO.N,GND*
X67018750Y-109950000D03*
X60443750Y-115550000D03*
X60543750Y-113250000D03*
G04 #@! TO.N,+5V*
X35276250Y-108475000D03*
G04 #@! TO.N,+3.3VA*
X37606250Y-116200000D03*
G04 #@! TO.N,GND*
X43206250Y-109950000D03*
X36631250Y-115550000D03*
X36731250Y-113250000D03*
G04 #@! TO.N,+5V*
X318645000Y-89425000D03*
G04 #@! TO.N,+3.3VA*
X320975000Y-97150000D03*
G04 #@! TO.N,GND*
X326575000Y-90900000D03*
X320000000Y-96500000D03*
X320100000Y-94200000D03*
G04 #@! TO.N,+5V*
X282926250Y-89425000D03*
G04 #@! TO.N,+3.3VA*
X285256250Y-97150000D03*
G04 #@! TO.N,GND*
X290856250Y-90900000D03*
X284281250Y-96500000D03*
X284381250Y-94200000D03*
G04 #@! TO.N,+5V*
X247207500Y-89425000D03*
G04 #@! TO.N,+3.3VA*
X249537500Y-97150000D03*
G04 #@! TO.N,GND*
X255137500Y-90900000D03*
X248562500Y-96500000D03*
X248662500Y-94200000D03*
G04 #@! TO.N,+5V*
X228157500Y-89425000D03*
G04 #@! TO.N,+3.3VA*
X230487500Y-97150000D03*
G04 #@! TO.N,GND*
X236087500Y-90900000D03*
X229512500Y-96500000D03*
X229612500Y-94200000D03*
G04 #@! TO.N,+5V*
X209107500Y-89425000D03*
G04 #@! TO.N,+3.3VA*
X211437500Y-97150000D03*
G04 #@! TO.N,GND*
X217037500Y-90900000D03*
X210462500Y-96500000D03*
X210562500Y-94200000D03*
G04 #@! TO.N,+5V*
X128145000Y-32275000D03*
G04 #@! TO.N,+3.3VA*
X130475000Y-40000000D03*
G04 #@! TO.N,GND*
X136075000Y-33750000D03*
X129500000Y-39350000D03*
X129600000Y-37050000D03*
G04 #@! TO.N,+5V*
X190057500Y-89425000D03*
G04 #@! TO.N,+3.3VA*
X192387500Y-97150000D03*
G04 #@! TO.N,GND*
X197987500Y-90900000D03*
X191412500Y-96500000D03*
X191512500Y-94200000D03*
G04 #@! TO.N,+5V*
X171007500Y-89425000D03*
G04 #@! TO.N,+3.3VA*
X173337500Y-97150000D03*
G04 #@! TO.N,GND*
X178937500Y-90900000D03*
X172362500Y-96500000D03*
X172462500Y-94200000D03*
G04 #@! TO.N,+5V*
X151957500Y-89425000D03*
G04 #@! TO.N,+3.3VA*
X154287500Y-97150000D03*
G04 #@! TO.N,GND*
X159887500Y-90900000D03*
X153312500Y-96500000D03*
X153412500Y-94200000D03*
G04 #@! TO.N,+5V*
X132907500Y-89425000D03*
G04 #@! TO.N,+3.3VA*
X135237500Y-97150000D03*
G04 #@! TO.N,GND*
X140837500Y-90900000D03*
X134262500Y-96500000D03*
X134362500Y-94200000D03*
G04 #@! TO.N,+5V*
X113857500Y-89425000D03*
G04 #@! TO.N,+3.3VA*
X116187500Y-97150000D03*
G04 #@! TO.N,GND*
X121787500Y-90900000D03*
X115212500Y-96500000D03*
X115312500Y-94200000D03*
G04 #@! TO.N,+5V*
X94807500Y-89425000D03*
G04 #@! TO.N,+3.3VA*
X97137500Y-97150000D03*
G04 #@! TO.N,GND*
X102737500Y-90900000D03*
X96162500Y-96500000D03*
X96262500Y-94200000D03*
G04 #@! TO.N,+5V*
X75757500Y-89425000D03*
G04 #@! TO.N,+3.3VA*
X78087500Y-97150000D03*
G04 #@! TO.N,GND*
X83687500Y-90900000D03*
X77112500Y-96500000D03*
X77212500Y-94200000D03*
G04 #@! TO.N,+5V*
X44801250Y-89425000D03*
G04 #@! TO.N,+3.3VA*
X47131250Y-97150000D03*
G04 #@! TO.N,GND*
X52731250Y-90900000D03*
X46156250Y-96500000D03*
X46256250Y-94200000D03*
G04 #@! TO.N,+5V*
X318645000Y-70375000D03*
G04 #@! TO.N,+3.3VA*
X320975000Y-78100000D03*
G04 #@! TO.N,GND*
X326575000Y-71850000D03*
X320000000Y-77450000D03*
X320100000Y-75150000D03*
G04 #@! TO.N,+5V*
X287688750Y-70375000D03*
G04 #@! TO.N,+3.3VA*
X290018750Y-78100000D03*
G04 #@! TO.N,GND*
X295618750Y-71850000D03*
X289043750Y-77450000D03*
X289143750Y-75150000D03*
G04 #@! TO.N,+5V*
X109095000Y-32275000D03*
G04 #@! TO.N,+3.3VA*
X111425000Y-40000000D03*
G04 #@! TO.N,GND*
X117025000Y-33750000D03*
X110450000Y-39350000D03*
X110550000Y-37050000D03*
G04 #@! TO.N,+5V*
X256732500Y-70375000D03*
G04 #@! TO.N,+3.3VA*
X259062500Y-78100000D03*
G04 #@! TO.N,GND*
X264662500Y-71850000D03*
X258087500Y-77450000D03*
X258187500Y-75150000D03*
G04 #@! TO.N,+5V*
X237682500Y-70375000D03*
G04 #@! TO.N,+3.3VA*
X240012500Y-78100000D03*
G04 #@! TO.N,GND*
X245612500Y-71850000D03*
X239037500Y-77450000D03*
X239137500Y-75150000D03*
G04 #@! TO.N,+5V*
X218632500Y-70375000D03*
G04 #@! TO.N,+3.3VA*
X220962500Y-78100000D03*
G04 #@! TO.N,GND*
X226562500Y-71850000D03*
X219987500Y-77450000D03*
X220087500Y-75150000D03*
G04 #@! TO.N,+5V*
X199582500Y-70375000D03*
G04 #@! TO.N,+3.3VA*
X201912500Y-78100000D03*
G04 #@! TO.N,GND*
X207512500Y-71850000D03*
X200937500Y-77450000D03*
X201037500Y-75150000D03*
G04 #@! TO.N,+5V*
X180532500Y-70375000D03*
G04 #@! TO.N,+3.3VA*
X182862500Y-78100000D03*
G04 #@! TO.N,GND*
X188462500Y-71850000D03*
X181887500Y-77450000D03*
X181987500Y-75150000D03*
G04 #@! TO.N,+5V*
X161482500Y-70375000D03*
G04 #@! TO.N,+3.3VA*
X163812500Y-78100000D03*
G04 #@! TO.N,GND*
X169412500Y-71850000D03*
X162837500Y-77450000D03*
X162937500Y-75150000D03*
G04 #@! TO.N,+5V*
X142432500Y-70375000D03*
G04 #@! TO.N,+3.3VA*
X144762500Y-78100000D03*
G04 #@! TO.N,GND*
X150362500Y-71850000D03*
X143787500Y-77450000D03*
X143887500Y-75150000D03*
G04 #@! TO.N,+5V*
X123382500Y-70375000D03*
G04 #@! TO.N,+3.3VA*
X125712500Y-78100000D03*
G04 #@! TO.N,GND*
X131312500Y-71850000D03*
X124737500Y-77450000D03*
X124837500Y-75150000D03*
G04 #@! TO.N,+5V*
X104332500Y-70375000D03*
G04 #@! TO.N,+3.3VA*
X106662500Y-78100000D03*
G04 #@! TO.N,GND*
X112262500Y-71850000D03*
X105687500Y-77450000D03*
X105787500Y-75150000D03*
G04 #@! TO.N,+5V*
X85282500Y-70375000D03*
G04 #@! TO.N,+3.3VA*
X87612500Y-78100000D03*
G04 #@! TO.N,GND*
X93212500Y-71850000D03*
X86637500Y-77450000D03*
X86737500Y-75150000D03*
G04 #@! TO.N,+5V*
X90045000Y-32275000D03*
G04 #@! TO.N,+3.3VA*
X92375000Y-40000000D03*
G04 #@! TO.N,GND*
X97975000Y-33750000D03*
X91400000Y-39350000D03*
X91500000Y-37050000D03*
G04 #@! TO.N,+5V*
X66232500Y-70375000D03*
G04 #@! TO.N,+3.3VA*
X68562500Y-78100000D03*
G04 #@! TO.N,GND*
X74162500Y-71850000D03*
X67587500Y-77450000D03*
X67687500Y-75150000D03*
G04 #@! TO.N,+5V*
X40038750Y-70375000D03*
G04 #@! TO.N,+3.3VA*
X42368750Y-78100000D03*
G04 #@! TO.N,GND*
X47968750Y-71850000D03*
X41393750Y-77450000D03*
X41493750Y-75150000D03*
G04 #@! TO.N,+5V*
X294832500Y-51325000D03*
G04 #@! TO.N,+3.3VA*
X297162500Y-59050000D03*
G04 #@! TO.N,GND*
X302762500Y-52800000D03*
X296187500Y-58400000D03*
X296287500Y-56100000D03*
G04 #@! TO.N,+5V*
X271020000Y-51325000D03*
G04 #@! TO.N,+3.3VA*
X273350000Y-59050000D03*
G04 #@! TO.N,GND*
X278950000Y-52800000D03*
X272375000Y-58400000D03*
X272475000Y-56100000D03*
G04 #@! TO.N,+5V*
X251970000Y-51325000D03*
G04 #@! TO.N,+3.3VA*
X254300000Y-59050000D03*
G04 #@! TO.N,GND*
X259900000Y-52800000D03*
X253325000Y-58400000D03*
X253425000Y-56100000D03*
G04 #@! TO.N,+5V*
X232920000Y-51325000D03*
G04 #@! TO.N,+3.3VA*
X235250000Y-59050000D03*
G04 #@! TO.N,GND*
X240850000Y-52800000D03*
X234275000Y-58400000D03*
X234375000Y-56100000D03*
G04 #@! TO.N,+5V*
X213870000Y-51325000D03*
G04 #@! TO.N,+3.3VA*
X216200000Y-59050000D03*
G04 #@! TO.N,GND*
X221800000Y-52800000D03*
X215225000Y-58400000D03*
X215325000Y-56100000D03*
G04 #@! TO.N,+5V*
X194820000Y-51325000D03*
G04 #@! TO.N,+3.3VA*
X197150000Y-59050000D03*
G04 #@! TO.N,GND*
X202750000Y-52800000D03*
X196175000Y-58400000D03*
X196275000Y-56100000D03*
G04 #@! TO.N,+5V*
X175770000Y-51325000D03*
G04 #@! TO.N,+3.3VA*
X178100000Y-59050000D03*
G04 #@! TO.N,GND*
X183700000Y-52800000D03*
X177125000Y-58400000D03*
X177225000Y-56100000D03*
G04 #@! TO.N,+5V*
X156720000Y-51325000D03*
G04 #@! TO.N,+3.3VA*
X159050000Y-59050000D03*
G04 #@! TO.N,GND*
X164650000Y-52800000D03*
X158075000Y-58400000D03*
X158175000Y-56100000D03*
G04 #@! TO.N,+5V*
X70995000Y-32275000D03*
G04 #@! TO.N,+3.3VA*
X73325000Y-40000000D03*
G04 #@! TO.N,GND*
X78925000Y-33750000D03*
X72350000Y-39350000D03*
X72450000Y-37050000D03*
G04 #@! TO.N,+5V*
X137670000Y-51325000D03*
G04 #@! TO.N,+3.3VA*
X140000000Y-59050000D03*
G04 #@! TO.N,GND*
X145600000Y-52800000D03*
X139025000Y-58400000D03*
X139125000Y-56100000D03*
G04 #@! TO.N,+5V*
X118620000Y-51325000D03*
G04 #@! TO.N,+3.3VA*
X120950000Y-59050000D03*
G04 #@! TO.N,GND*
X126550000Y-52800000D03*
X119975000Y-58400000D03*
X120075000Y-56100000D03*
G04 #@! TO.N,+5V*
X99570000Y-51325000D03*
G04 #@! TO.N,+3.3VA*
X101900000Y-59050000D03*
G04 #@! TO.N,GND*
X107500000Y-52800000D03*
X100925000Y-58400000D03*
X101025000Y-56100000D03*
G04 #@! TO.N,+5V*
X80520000Y-51325000D03*
G04 #@! TO.N,+3.3VA*
X82850000Y-59050000D03*
G04 #@! TO.N,GND*
X88450000Y-52800000D03*
X81875000Y-58400000D03*
X81975000Y-56100000D03*
G04 #@! TO.N,+5V*
X61470000Y-51325000D03*
G04 #@! TO.N,+3.3VA*
X63800000Y-59050000D03*
G04 #@! TO.N,GND*
X69400000Y-52800000D03*
X62825000Y-58400000D03*
X62925000Y-56100000D03*
G04 #@! TO.N,+5V*
X37657500Y-51325000D03*
G04 #@! TO.N,+3.3VA*
X39987500Y-59050000D03*
G04 #@! TO.N,GND*
X45587500Y-52800000D03*
X39012500Y-58400000D03*
X39112500Y-56100000D03*
G04 #@! TO.N,+5V*
X290070000Y-32275000D03*
G04 #@! TO.N,+3.3VA*
X292400000Y-40000000D03*
G04 #@! TO.N,GND*
X298000000Y-33750000D03*
X291425000Y-39350000D03*
X291525000Y-37050000D03*
G04 #@! TO.N,+5V*
X261495000Y-32275000D03*
G04 #@! TO.N,+3.3VA*
X263825000Y-40000000D03*
G04 #@! TO.N,GND*
X269425000Y-33750000D03*
X262850000Y-39350000D03*
X262950000Y-37050000D03*
G04 #@! TO.N,+5V*
X242445000Y-32275000D03*
G04 #@! TO.N,+3.3VA*
X244775000Y-40000000D03*
G04 #@! TO.N,GND*
X250375000Y-33750000D03*
X243800000Y-39350000D03*
X243900000Y-37050000D03*
G04 #@! TO.N,+5V*
X223395000Y-32275000D03*
G04 #@! TO.N,+3.3VA*
X225725000Y-40000000D03*
G04 #@! TO.N,GND*
X231325000Y-33750000D03*
X224750000Y-39350000D03*
X224850000Y-37050000D03*
G04 #@! TO.N,+5V*
X51945000Y-32275000D03*
G04 #@! TO.N,+3.3VA*
X54275000Y-40000000D03*
G04 #@! TO.N,GND*
X59875000Y-33750000D03*
X53300000Y-39350000D03*
X53400000Y-37050000D03*
X34350000Y-37050000D03*
X102375000Y-47625000D03*
X100700000Y-47875000D03*
X34250000Y-39350000D03*
X40825000Y-33750000D03*
G04 #@! TO.N,+3.3VD*
X104075000Y-47375000D03*
G04 #@! TO.N,+3.3VA*
X35225000Y-40000000D03*
G04 #@! TO.N,+5V*
X32895000Y-32275000D03*
G04 #@! TO.N,MUX_A1*
X95250000Y-51150000D03*
G04 #@! TO.N,/Key_0/VOUT-*
X100857247Y-45259000D03*
G04 #@! TO.N,MUX_A0*
X104652000Y-45709000D03*
G04 #@! TO.N,/Key_2/VOUT-*
X107900000Y-46450000D03*
G04 #@! TO.N,/Key_7/VOUT+*
X110322000Y-51478000D03*
G04 #@! TO.N,MUX_A2*
X95750000Y-51150000D03*
G04 #@! TO.N,Mux_D0+*
X96250000Y-51150000D03*
G04 #@! TO.N,MUX_A1*
X215702822Y8804678D03*
G04 #@! TO.N,GND*
X216202822Y6429678D03*
X212177822Y7629678D03*
X210502822Y7379678D03*
G04 #@! TO.N,+3.3VD*
X213877822Y7879678D03*
G04 #@! TO.N,MUX_A2*
X205552822Y4104678D03*
G04 #@! TO.N,MUX_A1*
X205052822Y4104678D03*
G04 #@! TO.N,MUX_A0*
X214454822Y9545678D03*
G04 #@! TO.N,MUX_A2*
X215302822Y7849678D03*
G04 #@! TO.N,+3.3VD*
X218652822Y7879678D03*
G04 #@! TO.N,GND*
X211427822Y6429678D03*
X215266460Y7351000D03*
G04 #@! TO.N,MUX_A0*
X204552822Y4104678D03*
G04 #@! TO.N,Mux_D1+*
X206052822Y4104678D03*
G04 #@! TD*
M02*
