G04 #@! TF.GenerationSoftware,KiCad,Pcbnew,9.0.6*
G04 #@! TF.CreationDate,2026-01-02T19:50:41-05:00*
G04 #@! TF.ProjectId,prometheus-65,70726f6d-6574-4686-9575-732d36352e6b,rev?*
G04 #@! TF.SameCoordinates,Original*
G04 #@! TF.FileFunction,Profile,NP*
%FSLAX46Y46*%
G04 Gerber Fmt 4.6, Leading zero omitted, Abs format (unit mm)*
G04 Created by KiCad (PCBNEW 9.0.6) date 2026-01-02 19:50:41*
%MOMM*%
%LPD*%
G01*
G04 APERTURE LIST*
G04 #@! TA.AperFunction,Profile*
%ADD10C,0.100000*%
G04 #@! TD*
G04 APERTURE END LIST*
D10*
G04 #@! TO.C,LED37*
X206536984Y-72039719D02*
G75*
G02*
X206487499Y-71822841I450505J216876D01*
G01*
X206536984Y-72039718D02*
G75*
G02*
X205834211Y-72688298I-450514J-216880D01*
G01*
X206487499Y-70417156D02*
G75*
G02*
X206536984Y-70200279I499990J1D01*
G01*
X205834211Y-69551701D02*
G75*
G02*
X206536985Y-70200279I252259J-431700D01*
G01*
X205834211Y-69551701D02*
G75*
G02*
X205581953Y-69620000I-252261J431710D01*
G01*
X205581952Y-72619999D02*
G75*
G02*
X205834211Y-72688298I-2J-500009D01*
G01*
X203993047Y-69619999D02*
G75*
G02*
X203740789Y-69551700I3J500009D01*
G01*
X203740790Y-72688298D02*
G75*
G02*
X203993048Y-72620000I252260J-431712D01*
G01*
X203740789Y-72688296D02*
G75*
G02*
X203038020Y-72039721I-252259J431696D01*
G01*
X203087501Y-71822842D02*
G75*
G02*
X203038017Y-72039719I-500361J82D01*
G01*
X203038016Y-70200279D02*
G75*
G02*
X203740789Y-69551700I450514J216879D01*
G01*
X203038016Y-70200279D02*
G75*
G02*
X203087476Y-70417157I-450516J-216821D01*
G01*
X206487499Y-70417157D02*
X206487499Y-71822841D01*
X205581952Y-72619999D02*
X203993048Y-72619999D01*
X203993048Y-69620000D02*
X205581953Y-69620000D01*
X203087501Y-71822841D02*
X203087501Y-70417157D01*
G04 #@! TO.C,LED35*
X168436984Y-72039719D02*
G75*
G02*
X168387499Y-71822841I450505J216876D01*
G01*
X168436984Y-72039718D02*
G75*
G02*
X167734211Y-72688298I-450514J-216880D01*
G01*
X168387499Y-70417156D02*
G75*
G02*
X168436984Y-70200279I499990J1D01*
G01*
X167734211Y-69551701D02*
G75*
G02*
X168436985Y-70200279I252259J-431700D01*
G01*
X167734211Y-69551701D02*
G75*
G02*
X167481953Y-69620000I-252261J431710D01*
G01*
X167481952Y-72619999D02*
G75*
G02*
X167734211Y-72688298I-2J-500009D01*
G01*
X165893047Y-69619999D02*
G75*
G02*
X165640789Y-69551700I3J500009D01*
G01*
X165640790Y-72688298D02*
G75*
G02*
X165893048Y-72620000I252260J-431712D01*
G01*
X165640789Y-72688296D02*
G75*
G02*
X164938020Y-72039721I-252259J431696D01*
G01*
X164987501Y-71822842D02*
G75*
G02*
X164938017Y-72039719I-500361J82D01*
G01*
X164938016Y-70200279D02*
G75*
G02*
X165640789Y-69551700I450514J216879D01*
G01*
X164938016Y-70200279D02*
G75*
G02*
X164987476Y-70417157I-450516J-216821D01*
G01*
X168387499Y-70417157D02*
X168387499Y-71822841D01*
X167481952Y-72619999D02*
X165893048Y-72619999D01*
X165893048Y-69620000D02*
X167481953Y-69620000D01*
X164987501Y-71822841D02*
X164987501Y-70417157D01*
G04 #@! TO.C,LED26*
X258924484Y-52989719D02*
G75*
G02*
X258874999Y-52772841I450505J216876D01*
G01*
X258924484Y-52989718D02*
G75*
G02*
X258221711Y-53638298I-450514J-216880D01*
G01*
X258874999Y-51367156D02*
G75*
G02*
X258924484Y-51150279I499990J1D01*
G01*
X258221711Y-50501701D02*
G75*
G02*
X258924485Y-51150279I252259J-431700D01*
G01*
X258221711Y-50501701D02*
G75*
G02*
X257969453Y-50570000I-252261J431710D01*
G01*
X257969452Y-53569999D02*
G75*
G02*
X258221711Y-53638298I-2J-500009D01*
G01*
X256380547Y-50569999D02*
G75*
G02*
X256128289Y-50501700I3J500009D01*
G01*
X256128290Y-53638298D02*
G75*
G02*
X256380548Y-53570000I252260J-431712D01*
G01*
X256128289Y-53638296D02*
G75*
G02*
X255425520Y-52989721I-252259J431696D01*
G01*
X255475001Y-52772842D02*
G75*
G02*
X255425517Y-52989719I-500361J82D01*
G01*
X255425516Y-51150279D02*
G75*
G02*
X256128289Y-50501700I450514J216879D01*
G01*
X255425516Y-51150279D02*
G75*
G02*
X255474976Y-51367157I-450516J-216821D01*
G01*
X258874999Y-51367157D02*
X258874999Y-52772841D01*
X257969452Y-53569999D02*
X256380548Y-53569999D01*
X256380548Y-50570000D02*
X257969453Y-50570000D01*
X255475001Y-52772841D02*
X255475001Y-51367157D01*
G04 #@! TO.C,LED50*
X197011984Y-91089719D02*
G75*
G02*
X196962499Y-90872841I450505J216876D01*
G01*
X197011984Y-91089718D02*
G75*
G02*
X196309211Y-91738298I-450514J-216880D01*
G01*
X196962499Y-89467156D02*
G75*
G02*
X197011984Y-89250279I499990J1D01*
G01*
X196309211Y-88601701D02*
G75*
G02*
X197011985Y-89250279I252259J-431700D01*
G01*
X196309211Y-88601701D02*
G75*
G02*
X196056953Y-88670000I-252261J431710D01*
G01*
X196056952Y-91669999D02*
G75*
G02*
X196309211Y-91738298I-2J-500009D01*
G01*
X194468047Y-88669999D02*
G75*
G02*
X194215789Y-88601700I3J500009D01*
G01*
X194215790Y-91738298D02*
G75*
G02*
X194468048Y-91670000I252260J-431712D01*
G01*
X194215789Y-91738296D02*
G75*
G02*
X193513020Y-91089721I-252259J431696D01*
G01*
X193562501Y-90872842D02*
G75*
G02*
X193513017Y-91089719I-500361J82D01*
G01*
X193513016Y-89250279D02*
G75*
G02*
X194215789Y-88601700I450514J216879D01*
G01*
X193513016Y-89250279D02*
G75*
G02*
X193562476Y-89467157I-450516J-216821D01*
G01*
X196962499Y-89467157D02*
X196962499Y-90872841D01*
X196056952Y-91669999D02*
X194468048Y-91669999D01*
X194468048Y-88670000D02*
X196056953Y-88670000D01*
X193562501Y-90872841D02*
X193562501Y-89467157D01*
G04 #@! TO.C,LED45*
X101761984Y-91089719D02*
G75*
G02*
X101712499Y-90872841I450505J216876D01*
G01*
X101761984Y-91089718D02*
G75*
G02*
X101059211Y-91738298I-450514J-216880D01*
G01*
X101712499Y-89467156D02*
G75*
G02*
X101761984Y-89250279I499990J1D01*
G01*
X101059211Y-88601701D02*
G75*
G02*
X101761985Y-89250279I252259J-431700D01*
G01*
X101059211Y-88601701D02*
G75*
G02*
X100806953Y-88670000I-252261J431710D01*
G01*
X100806952Y-91669999D02*
G75*
G02*
X101059211Y-91738298I-2J-500009D01*
G01*
X99218047Y-88669999D02*
G75*
G02*
X98965789Y-88601700I3J500009D01*
G01*
X98965790Y-91738298D02*
G75*
G02*
X99218048Y-91670000I252260J-431712D01*
G01*
X98965789Y-91738296D02*
G75*
G02*
X98263020Y-91089721I-252259J431696D01*
G01*
X98312501Y-90872842D02*
G75*
G02*
X98263017Y-91089719I-500361J82D01*
G01*
X98263016Y-89250279D02*
G75*
G02*
X98965789Y-88601700I450514J216879D01*
G01*
X98263016Y-89250279D02*
G75*
G02*
X98312476Y-89467157I-450516J-216821D01*
G01*
X101712499Y-89467157D02*
X101712499Y-90872841D01*
X100806952Y-91669999D02*
X99218048Y-91669999D01*
X99218048Y-88670000D02*
X100806953Y-88670000D01*
X98312501Y-90872841D02*
X98312501Y-89467157D01*
G04 #@! TO.C,LED43*
X51755734Y-91089719D02*
G75*
G02*
X51706249Y-90872841I450505J216876D01*
G01*
X51755734Y-91089718D02*
G75*
G02*
X51052961Y-91738298I-450514J-216880D01*
G01*
X51706249Y-89467156D02*
G75*
G02*
X51755734Y-89250279I499990J1D01*
G01*
X51052961Y-88601701D02*
G75*
G02*
X51755735Y-89250279I252259J-431700D01*
G01*
X51052961Y-88601701D02*
G75*
G02*
X50800703Y-88670000I-252261J431710D01*
G01*
X50800702Y-91669999D02*
G75*
G02*
X51052961Y-91738298I-2J-500009D01*
G01*
X49211797Y-88669999D02*
G75*
G02*
X48959539Y-88601700I3J500009D01*
G01*
X48959540Y-91738298D02*
G75*
G02*
X49211798Y-91670000I252260J-431712D01*
G01*
X48959539Y-91738296D02*
G75*
G02*
X48256770Y-91089721I-252259J431696D01*
G01*
X48306251Y-90872842D02*
G75*
G02*
X48256767Y-91089719I-500361J82D01*
G01*
X48256766Y-89250279D02*
G75*
G02*
X48959539Y-88601700I450514J216879D01*
G01*
X48256766Y-89250279D02*
G75*
G02*
X48306226Y-89467157I-450516J-216821D01*
G01*
X51706249Y-89467157D02*
X51706249Y-90872841D01*
X50800702Y-91669999D02*
X49211798Y-91669999D01*
X49211798Y-88670000D02*
X50800703Y-88670000D01*
X48306251Y-90872841D02*
X48306251Y-89467157D01*
G04 #@! TO.C,LED1*
X39849484Y-33939719D02*
G75*
G02*
X39799999Y-33722841I450505J216876D01*
G01*
X39849484Y-33939718D02*
G75*
G02*
X39146711Y-34588298I-450514J-216880D01*
G01*
X39799999Y-32317156D02*
G75*
G02*
X39849484Y-32100279I499990J1D01*
G01*
X39146711Y-31451701D02*
G75*
G02*
X39849485Y-32100279I252259J-431700D01*
G01*
X39146711Y-31451701D02*
G75*
G02*
X38894453Y-31520000I-252261J431710D01*
G01*
X38894452Y-34519999D02*
G75*
G02*
X39146711Y-34588298I-2J-500009D01*
G01*
X37305547Y-31519999D02*
G75*
G02*
X37053289Y-31451700I3J500009D01*
G01*
X37053290Y-34588298D02*
G75*
G02*
X37305548Y-34520000I252260J-431712D01*
G01*
X37053289Y-34588296D02*
G75*
G02*
X36350520Y-33939721I-252259J431696D01*
G01*
X36400001Y-33722842D02*
G75*
G02*
X36350517Y-33939719I-500361J82D01*
G01*
X36350516Y-32100279D02*
G75*
G02*
X37053289Y-31451700I450514J216879D01*
G01*
X36350516Y-32100279D02*
G75*
G02*
X36399976Y-32317157I-450516J-216821D01*
G01*
X39799999Y-32317157D02*
X39799999Y-33722841D01*
X38894452Y-34519999D02*
X37305548Y-34519999D01*
X37305548Y-31520000D02*
X38894453Y-31520000D01*
X36400001Y-33722841D02*
X36400001Y-32317157D01*
G04 #@! TO.C,LED9*
X192249484Y-33939719D02*
G75*
G02*
X192199999Y-33722841I450505J216876D01*
G01*
X192249484Y-33939718D02*
G75*
G02*
X191546711Y-34588298I-450514J-216880D01*
G01*
X192199999Y-32317156D02*
G75*
G02*
X192249484Y-32100279I499990J1D01*
G01*
X191546711Y-31451701D02*
G75*
G02*
X192249485Y-32100279I252259J-431700D01*
G01*
X191546711Y-31451701D02*
G75*
G02*
X191294453Y-31520000I-252261J431710D01*
G01*
X191294452Y-34519999D02*
G75*
G02*
X191546711Y-34588298I-2J-500009D01*
G01*
X189705547Y-31519999D02*
G75*
G02*
X189453289Y-31451700I3J500009D01*
G01*
X189453290Y-34588298D02*
G75*
G02*
X189705548Y-34520000I252260J-431712D01*
G01*
X189453289Y-34588296D02*
G75*
G02*
X188750520Y-33939721I-252259J431696D01*
G01*
X188800001Y-33722842D02*
G75*
G02*
X188750517Y-33939719I-500361J82D01*
G01*
X188750516Y-32100279D02*
G75*
G02*
X189453289Y-31451700I450514J216879D01*
G01*
X188750516Y-32100279D02*
G75*
G02*
X188799976Y-32317157I-450516J-216821D01*
G01*
X192199999Y-32317157D02*
X192199999Y-33722841D01*
X191294452Y-34519999D02*
X189705548Y-34519999D01*
X189705548Y-31520000D02*
X191294453Y-31520000D01*
X188800001Y-33722841D02*
X188800001Y-32317157D01*
G04 #@! TO.C,LED4*
X96999484Y-33939719D02*
G75*
G02*
X96949999Y-33722841I450505J216876D01*
G01*
X96999484Y-33939718D02*
G75*
G02*
X96296711Y-34588298I-450514J-216880D01*
G01*
X96949999Y-32317156D02*
G75*
G02*
X96999484Y-32100279I499990J1D01*
G01*
X96296711Y-31451701D02*
G75*
G02*
X96999485Y-32100279I252259J-431700D01*
G01*
X96296711Y-31451701D02*
G75*
G02*
X96044453Y-31520000I-252261J431710D01*
G01*
X96044452Y-34519999D02*
G75*
G02*
X96296711Y-34588298I-2J-500009D01*
G01*
X94455547Y-31519999D02*
G75*
G02*
X94203289Y-31451700I3J500009D01*
G01*
X94203290Y-34588298D02*
G75*
G02*
X94455548Y-34520000I252260J-431712D01*
G01*
X94203289Y-34588296D02*
G75*
G02*
X93500520Y-33939721I-252259J431696D01*
G01*
X93550001Y-33722842D02*
G75*
G02*
X93500517Y-33939719I-500361J82D01*
G01*
X93500516Y-32100279D02*
G75*
G02*
X94203289Y-31451700I450514J216879D01*
G01*
X93500516Y-32100279D02*
G75*
G02*
X93549976Y-32317157I-450516J-216821D01*
G01*
X96949999Y-32317157D02*
X96949999Y-33722841D01*
X96044452Y-34519999D02*
X94455548Y-34519999D01*
X94455548Y-31520000D02*
X96044453Y-31520000D01*
X93550001Y-33722841D02*
X93550001Y-32317157D01*
G04 #@! TO.C,LED42*
X325599484Y-72039719D02*
G75*
G02*
X325549999Y-71822841I450505J216876D01*
G01*
X325599484Y-72039718D02*
G75*
G02*
X324896711Y-72688298I-450514J-216880D01*
G01*
X325549999Y-70417156D02*
G75*
G02*
X325599484Y-70200279I499990J1D01*
G01*
X324896711Y-69551701D02*
G75*
G02*
X325599485Y-70200279I252259J-431700D01*
G01*
X324896711Y-69551701D02*
G75*
G02*
X324644453Y-69620000I-252261J431710D01*
G01*
X324644452Y-72619999D02*
G75*
G02*
X324896711Y-72688298I-2J-500009D01*
G01*
X323055547Y-69619999D02*
G75*
G02*
X322803289Y-69551700I3J500009D01*
G01*
X322803290Y-72688298D02*
G75*
G02*
X323055548Y-72620000I252260J-431712D01*
G01*
X322803289Y-72688296D02*
G75*
G02*
X322100520Y-72039721I-252259J431696D01*
G01*
X322150001Y-71822842D02*
G75*
G02*
X322100517Y-72039719I-500361J82D01*
G01*
X322100516Y-70200279D02*
G75*
G02*
X322803289Y-69551700I450514J216879D01*
G01*
X322100516Y-70200279D02*
G75*
G02*
X322149976Y-70417157I-450516J-216821D01*
G01*
X325549999Y-70417157D02*
X325549999Y-71822841D01*
X324644452Y-72619999D02*
X323055548Y-72619999D01*
X323055548Y-69620000D02*
X324644453Y-69620000D01*
X322150001Y-71822841D02*
X322150001Y-70417157D01*
G04 #@! TO.C,LED40*
X263686984Y-72039719D02*
G75*
G02*
X263637499Y-71822841I450505J216876D01*
G01*
X263686984Y-72039718D02*
G75*
G02*
X262984211Y-72688298I-450514J-216880D01*
G01*
X263637499Y-70417156D02*
G75*
G02*
X263686984Y-70200279I499990J1D01*
G01*
X262984211Y-69551701D02*
G75*
G02*
X263686985Y-70200279I252259J-431700D01*
G01*
X262984211Y-69551701D02*
G75*
G02*
X262731953Y-69620000I-252261J431710D01*
G01*
X262731952Y-72619999D02*
G75*
G02*
X262984211Y-72688298I-2J-500009D01*
G01*
X261143047Y-69619999D02*
G75*
G02*
X260890789Y-69551700I3J500009D01*
G01*
X260890790Y-72688298D02*
G75*
G02*
X261143048Y-72620000I252260J-431712D01*
G01*
X260890789Y-72688296D02*
G75*
G02*
X260188020Y-72039721I-252259J431696D01*
G01*
X260237501Y-71822842D02*
G75*
G02*
X260188017Y-72039719I-500361J82D01*
G01*
X260188016Y-70200279D02*
G75*
G02*
X260890789Y-69551700I450514J216879D01*
G01*
X260188016Y-70200279D02*
G75*
G02*
X260237476Y-70417157I-450516J-216821D01*
G01*
X263637499Y-70417157D02*
X263637499Y-71822841D01*
X262731952Y-72619999D02*
X261143048Y-72619999D01*
X261143048Y-69620000D02*
X262731953Y-69620000D01*
X260237501Y-71822841D02*
X260237501Y-70417157D01*
G04 #@! TO.C,LED18*
X106524484Y-52989719D02*
G75*
G02*
X106474999Y-52772841I450505J216876D01*
G01*
X106524484Y-52989718D02*
G75*
G02*
X105821711Y-53638298I-450514J-216880D01*
G01*
X106474999Y-51367156D02*
G75*
G02*
X106524484Y-51150279I499990J1D01*
G01*
X105821711Y-50501701D02*
G75*
G02*
X106524485Y-51150279I252259J-431700D01*
G01*
X105821711Y-50501701D02*
G75*
G02*
X105569453Y-50570000I-252261J431710D01*
G01*
X105569452Y-53569999D02*
G75*
G02*
X105821711Y-53638298I-2J-500009D01*
G01*
X103980547Y-50569999D02*
G75*
G02*
X103728289Y-50501700I3J500009D01*
G01*
X103728290Y-53638298D02*
G75*
G02*
X103980548Y-53570000I252260J-431712D01*
G01*
X103728289Y-53638296D02*
G75*
G02*
X103025520Y-52989721I-252259J431696D01*
G01*
X103075001Y-52772842D02*
G75*
G02*
X103025517Y-52989719I-500361J82D01*
G01*
X103025516Y-51150279D02*
G75*
G02*
X103728289Y-50501700I450514J216879D01*
G01*
X103025516Y-51150279D02*
G75*
G02*
X103074976Y-51367157I-450516J-216821D01*
G01*
X106474999Y-51367157D02*
X106474999Y-52772841D01*
X105569452Y-53569999D02*
X103980548Y-53569999D01*
X103980548Y-50570000D02*
X105569453Y-50570000D01*
X103075001Y-52772841D02*
X103075001Y-51367157D01*
G04 #@! TO.C,LED2*
X58899484Y-33939719D02*
G75*
G02*
X58849999Y-33722841I450505J216876D01*
G01*
X58899484Y-33939718D02*
G75*
G02*
X58196711Y-34588298I-450514J-216880D01*
G01*
X58849999Y-32317156D02*
G75*
G02*
X58899484Y-32100279I499990J1D01*
G01*
X58196711Y-31451701D02*
G75*
G02*
X58899485Y-32100279I252259J-431700D01*
G01*
X58196711Y-31451701D02*
G75*
G02*
X57944453Y-31520000I-252261J431710D01*
G01*
X57944452Y-34519999D02*
G75*
G02*
X58196711Y-34588298I-2J-500009D01*
G01*
X56355547Y-31519999D02*
G75*
G02*
X56103289Y-31451700I3J500009D01*
G01*
X56103290Y-34588298D02*
G75*
G02*
X56355548Y-34520000I252260J-431712D01*
G01*
X56103289Y-34588296D02*
G75*
G02*
X55400520Y-33939721I-252259J431696D01*
G01*
X55450001Y-33722842D02*
G75*
G02*
X55400517Y-33939719I-500361J82D01*
G01*
X55400516Y-32100279D02*
G75*
G02*
X56103289Y-31451700I450514J216879D01*
G01*
X55400516Y-32100279D02*
G75*
G02*
X55449976Y-32317157I-450516J-216821D01*
G01*
X58849999Y-32317157D02*
X58849999Y-33722841D01*
X57944452Y-34519999D02*
X56355548Y-34519999D01*
X56355548Y-31520000D02*
X57944453Y-31520000D01*
X55450001Y-33722841D02*
X55450001Y-32317157D01*
G04 #@! TO.C,LED63*
X304168234Y-110139719D02*
G75*
G02*
X304118749Y-109922841I450505J216876D01*
G01*
X304168234Y-110139718D02*
G75*
G02*
X303465461Y-110788298I-450514J-216880D01*
G01*
X304118749Y-108517156D02*
G75*
G02*
X304168234Y-108300279I499990J1D01*
G01*
X303465461Y-107651701D02*
G75*
G02*
X304168235Y-108300279I252259J-431700D01*
G01*
X303465461Y-107651701D02*
G75*
G02*
X303213203Y-107720000I-252261J431710D01*
G01*
X303213202Y-110719999D02*
G75*
G02*
X303465461Y-110788298I-2J-500009D01*
G01*
X301624297Y-107719999D02*
G75*
G02*
X301372039Y-107651700I3J500009D01*
G01*
X301372040Y-110788298D02*
G75*
G02*
X301624298Y-110720000I252260J-431712D01*
G01*
X301372039Y-110788296D02*
G75*
G02*
X300669270Y-110139721I-252259J431696D01*
G01*
X300718751Y-109922842D02*
G75*
G02*
X300669267Y-110139719I-500361J82D01*
G01*
X300669266Y-108300279D02*
G75*
G02*
X301372039Y-107651700I450514J216879D01*
G01*
X300669266Y-108300279D02*
G75*
G02*
X300718726Y-108517157I-450516J-216821D01*
G01*
X304118749Y-108517157D02*
X304118749Y-109922841D01*
X303213202Y-110719999D02*
X301624298Y-110719999D01*
X301624298Y-107720000D02*
X303213203Y-107720000D01*
X300718751Y-109922841D02*
X300718751Y-108517157D01*
G04 #@! TO.C,LED32*
X111286984Y-72039719D02*
G75*
G02*
X111237499Y-71822841I450505J216876D01*
G01*
X111286984Y-72039718D02*
G75*
G02*
X110584211Y-72688298I-450514J-216880D01*
G01*
X111237499Y-70417156D02*
G75*
G02*
X111286984Y-70200279I499990J1D01*
G01*
X110584211Y-69551701D02*
G75*
G02*
X111286985Y-70200279I252259J-431700D01*
G01*
X110584211Y-69551701D02*
G75*
G02*
X110331953Y-69620000I-252261J431710D01*
G01*
X110331952Y-72619999D02*
G75*
G02*
X110584211Y-72688298I-2J-500009D01*
G01*
X108743047Y-69619999D02*
G75*
G02*
X108490789Y-69551700I3J500009D01*
G01*
X108490790Y-72688298D02*
G75*
G02*
X108743048Y-72620000I252260J-431712D01*
G01*
X108490789Y-72688296D02*
G75*
G02*
X107788020Y-72039721I-252259J431696D01*
G01*
X107837501Y-71822842D02*
G75*
G02*
X107788017Y-72039719I-500361J82D01*
G01*
X107788016Y-70200279D02*
G75*
G02*
X108490789Y-69551700I450514J216879D01*
G01*
X107788016Y-70200279D02*
G75*
G02*
X107837476Y-70417157I-450516J-216821D01*
G01*
X111237499Y-70417157D02*
X111237499Y-71822841D01*
X110331952Y-72619999D02*
X108743048Y-72619999D01*
X108743048Y-69620000D02*
X110331953Y-69620000D01*
X107837501Y-71822841D02*
X107837501Y-70417157D01*
G04 #@! TO.C,LED49*
X177961984Y-91089719D02*
G75*
G02*
X177912499Y-90872841I450505J216876D01*
G01*
X177961984Y-91089718D02*
G75*
G02*
X177259211Y-91738298I-450514J-216880D01*
G01*
X177912499Y-89467156D02*
G75*
G02*
X177961984Y-89250279I499990J1D01*
G01*
X177259211Y-88601701D02*
G75*
G02*
X177961985Y-89250279I252259J-431700D01*
G01*
X177259211Y-88601701D02*
G75*
G02*
X177006953Y-88670000I-252261J431710D01*
G01*
X177006952Y-91669999D02*
G75*
G02*
X177259211Y-91738298I-2J-500009D01*
G01*
X175418047Y-88669999D02*
G75*
G02*
X175165789Y-88601700I3J500009D01*
G01*
X175165790Y-91738298D02*
G75*
G02*
X175418048Y-91670000I252260J-431712D01*
G01*
X175165789Y-91738296D02*
G75*
G02*
X174463020Y-91089721I-252259J431696D01*
G01*
X174512501Y-90872842D02*
G75*
G02*
X174463017Y-91089719I-500361J82D01*
G01*
X174463016Y-89250279D02*
G75*
G02*
X175165789Y-88601700I450514J216879D01*
G01*
X174463016Y-89250279D02*
G75*
G02*
X174512476Y-89467157I-450516J-216821D01*
G01*
X177912499Y-89467157D02*
X177912499Y-90872841D01*
X177006952Y-91669999D02*
X175418048Y-91669999D01*
X175418048Y-88670000D02*
X177006953Y-88670000D01*
X174512501Y-90872841D02*
X174512501Y-89467157D01*
G04 #@! TO.C,LED17*
X87474484Y-52989719D02*
G75*
G02*
X87424999Y-52772841I450505J216876D01*
G01*
X87474484Y-52989718D02*
G75*
G02*
X86771711Y-53638298I-450514J-216880D01*
G01*
X87424999Y-51367156D02*
G75*
G02*
X87474484Y-51150279I499990J1D01*
G01*
X86771711Y-50501701D02*
G75*
G02*
X87474485Y-51150279I252259J-431700D01*
G01*
X86771711Y-50501701D02*
G75*
G02*
X86519453Y-50570000I-252261J431710D01*
G01*
X86519452Y-53569999D02*
G75*
G02*
X86771711Y-53638298I-2J-500009D01*
G01*
X84930547Y-50569999D02*
G75*
G02*
X84678289Y-50501700I3J500009D01*
G01*
X84678290Y-53638298D02*
G75*
G02*
X84930548Y-53570000I252260J-431712D01*
G01*
X84678289Y-53638296D02*
G75*
G02*
X83975520Y-52989721I-252259J431696D01*
G01*
X84025001Y-52772842D02*
G75*
G02*
X83975517Y-52989719I-500361J82D01*
G01*
X83975516Y-51150279D02*
G75*
G02*
X84678289Y-50501700I450514J216879D01*
G01*
X83975516Y-51150279D02*
G75*
G02*
X84024976Y-51367157I-450516J-216821D01*
G01*
X87424999Y-51367157D02*
X87424999Y-52772841D01*
X86519452Y-53569999D02*
X84930548Y-53569999D01*
X84930548Y-50570000D02*
X86519453Y-50570000D01*
X84025001Y-52772841D02*
X84025001Y-51367157D01*
G04 #@! TO.C,LED54*
X289880734Y-91089719D02*
G75*
G02*
X289831249Y-90872841I450505J216876D01*
G01*
X289880734Y-91089718D02*
G75*
G02*
X289177961Y-91738298I-450514J-216880D01*
G01*
X289831249Y-89467156D02*
G75*
G02*
X289880734Y-89250279I499990J1D01*
G01*
X289177961Y-88601701D02*
G75*
G02*
X289880735Y-89250279I252259J-431700D01*
G01*
X289177961Y-88601701D02*
G75*
G02*
X288925703Y-88670000I-252261J431710D01*
G01*
X288925702Y-91669999D02*
G75*
G02*
X289177961Y-91738298I-2J-500009D01*
G01*
X287336797Y-88669999D02*
G75*
G02*
X287084539Y-88601700I3J500009D01*
G01*
X287084540Y-91738298D02*
G75*
G02*
X287336798Y-91670000I252260J-431712D01*
G01*
X287084539Y-91738296D02*
G75*
G02*
X286381770Y-91089721I-252259J431696D01*
G01*
X286431251Y-90872842D02*
G75*
G02*
X286381767Y-91089719I-500361J82D01*
G01*
X286381766Y-89250279D02*
G75*
G02*
X287084539Y-88601700I450514J216879D01*
G01*
X286381766Y-89250279D02*
G75*
G02*
X286431226Y-89467157I-450516J-216821D01*
G01*
X289831249Y-89467157D02*
X289831249Y-90872841D01*
X288925702Y-91669999D02*
X287336798Y-91669999D01*
X287336798Y-88670000D02*
X288925703Y-88670000D01*
X286431251Y-90872841D02*
X286431251Y-89467157D01*
G04 #@! TO.C,LED23*
X201774484Y-52989719D02*
G75*
G02*
X201724999Y-52772841I450505J216876D01*
G01*
X201774484Y-52989718D02*
G75*
G02*
X201071711Y-53638298I-450514J-216880D01*
G01*
X201724999Y-51367156D02*
G75*
G02*
X201774484Y-51150279I499990J1D01*
G01*
X201071711Y-50501701D02*
G75*
G02*
X201774485Y-51150279I252259J-431700D01*
G01*
X201071711Y-50501701D02*
G75*
G02*
X200819453Y-50570000I-252261J431710D01*
G01*
X200819452Y-53569999D02*
G75*
G02*
X201071711Y-53638298I-2J-500009D01*
G01*
X199230547Y-50569999D02*
G75*
G02*
X198978289Y-50501700I3J500009D01*
G01*
X198978290Y-53638298D02*
G75*
G02*
X199230548Y-53570000I252260J-431712D01*
G01*
X198978289Y-53638296D02*
G75*
G02*
X198275520Y-52989721I-252259J431696D01*
G01*
X198325001Y-52772842D02*
G75*
G02*
X198275517Y-52989719I-500361J82D01*
G01*
X198275516Y-51150279D02*
G75*
G02*
X198978289Y-50501700I450514J216879D01*
G01*
X198275516Y-51150279D02*
G75*
G02*
X198324976Y-51367157I-450516J-216821D01*
G01*
X201724999Y-51367157D02*
X201724999Y-52772841D01*
X200819452Y-53569999D02*
X199230548Y-53569999D01*
X199230548Y-50570000D02*
X200819453Y-50570000D01*
X198325001Y-52772841D02*
X198325001Y-51367157D01*
G04 #@! TO.C,LED15*
X44611984Y-52989719D02*
G75*
G02*
X44562499Y-52772841I450505J216876D01*
G01*
X44611984Y-52989718D02*
G75*
G02*
X43909211Y-53638298I-450514J-216880D01*
G01*
X44562499Y-51367156D02*
G75*
G02*
X44611984Y-51150279I499990J1D01*
G01*
X43909211Y-50501701D02*
G75*
G02*
X44611985Y-51150279I252259J-431700D01*
G01*
X43909211Y-50501701D02*
G75*
G02*
X43656953Y-50570000I-252261J431710D01*
G01*
X43656952Y-53569999D02*
G75*
G02*
X43909211Y-53638298I-2J-500009D01*
G01*
X42068047Y-50569999D02*
G75*
G02*
X41815789Y-50501700I3J500009D01*
G01*
X41815790Y-53638298D02*
G75*
G02*
X42068048Y-53570000I252260J-431712D01*
G01*
X41815789Y-53638296D02*
G75*
G02*
X41113020Y-52989721I-252259J431696D01*
G01*
X41162501Y-52772842D02*
G75*
G02*
X41113017Y-52989719I-500361J82D01*
G01*
X41113016Y-51150279D02*
G75*
G02*
X41815789Y-50501700I450514J216879D01*
G01*
X41113016Y-51150279D02*
G75*
G02*
X41162476Y-51367157I-450516J-216821D01*
G01*
X44562499Y-51367157D02*
X44562499Y-52772841D01*
X43656952Y-53569999D02*
X42068048Y-53569999D01*
X42068048Y-50570000D02*
X43656953Y-50570000D01*
X41162501Y-52772841D02*
X41162501Y-51367157D01*
G04 #@! TO.C,LED28*
X301786984Y-52989719D02*
G75*
G02*
X301737499Y-52772841I450505J216876D01*
G01*
X301786984Y-52989718D02*
G75*
G02*
X301084211Y-53638298I-450514J-216880D01*
G01*
X301737499Y-51367156D02*
G75*
G02*
X301786984Y-51150279I499990J1D01*
G01*
X301084211Y-50501701D02*
G75*
G02*
X301786985Y-51150279I252259J-431700D01*
G01*
X301084211Y-50501701D02*
G75*
G02*
X300831953Y-50570000I-252261J431710D01*
G01*
X300831952Y-53569999D02*
G75*
G02*
X301084211Y-53638298I-2J-500009D01*
G01*
X299243047Y-50569999D02*
G75*
G02*
X298990789Y-50501700I3J500009D01*
G01*
X298990790Y-53638298D02*
G75*
G02*
X299243048Y-53570000I252260J-431712D01*
G01*
X298990789Y-53638296D02*
G75*
G02*
X298288020Y-52989721I-252259J431696D01*
G01*
X298337501Y-52772842D02*
G75*
G02*
X298288017Y-52989719I-500361J82D01*
G01*
X298288016Y-51150279D02*
G75*
G02*
X298990789Y-50501700I450514J216879D01*
G01*
X298288016Y-51150279D02*
G75*
G02*
X298337476Y-51367157I-450516J-216821D01*
G01*
X301737499Y-51367157D02*
X301737499Y-52772841D01*
X300831952Y-53569999D02*
X299243048Y-53569999D01*
X299243048Y-50570000D02*
X300831953Y-50570000D01*
X298337501Y-52772841D02*
X298337501Y-51367157D01*
G04 #@! TO.C,LED11*
X230349484Y-33939719D02*
G75*
G02*
X230299999Y-33722841I450505J216876D01*
G01*
X230349484Y-33939718D02*
G75*
G02*
X229646711Y-34588298I-450514J-216880D01*
G01*
X230299999Y-32317156D02*
G75*
G02*
X230349484Y-32100279I499990J1D01*
G01*
X229646711Y-31451701D02*
G75*
G02*
X230349485Y-32100279I252259J-431700D01*
G01*
X229646711Y-31451701D02*
G75*
G02*
X229394453Y-31520000I-252261J431710D01*
G01*
X229394452Y-34519999D02*
G75*
G02*
X229646711Y-34588298I-2J-500009D01*
G01*
X227805547Y-31519999D02*
G75*
G02*
X227553289Y-31451700I3J500009D01*
G01*
X227553290Y-34588298D02*
G75*
G02*
X227805548Y-34520000I252260J-431712D01*
G01*
X227553289Y-34588296D02*
G75*
G02*
X226850520Y-33939721I-252259J431696D01*
G01*
X226900001Y-33722842D02*
G75*
G02*
X226850517Y-33939719I-500361J82D01*
G01*
X226850516Y-32100279D02*
G75*
G02*
X227553289Y-31451700I450514J216879D01*
G01*
X226850516Y-32100279D02*
G75*
G02*
X226899976Y-32317157I-450516J-216821D01*
G01*
X230299999Y-32317157D02*
X230299999Y-33722841D01*
X229394452Y-34519999D02*
X227805548Y-34519999D01*
X227805548Y-31520000D02*
X229394453Y-31520000D01*
X226900001Y-33722841D02*
X226900001Y-32317157D01*
G04 #@! TO.C,LED64*
X325599484Y-110139719D02*
G75*
G02*
X325549999Y-109922841I450505J216876D01*
G01*
X325599484Y-110139718D02*
G75*
G02*
X324896711Y-110788298I-450514J-216880D01*
G01*
X325549999Y-108517156D02*
G75*
G02*
X325599484Y-108300279I499990J1D01*
G01*
X324896711Y-107651701D02*
G75*
G02*
X325599485Y-108300279I252259J-431700D01*
G01*
X324896711Y-107651701D02*
G75*
G02*
X324644453Y-107720000I-252261J431710D01*
G01*
X324644452Y-110719999D02*
G75*
G02*
X324896711Y-110788298I-2J-500009D01*
G01*
X323055547Y-107719999D02*
G75*
G02*
X322803289Y-107651700I3J500009D01*
G01*
X322803290Y-110788298D02*
G75*
G02*
X323055548Y-110720000I252260J-431712D01*
G01*
X322803289Y-110788296D02*
G75*
G02*
X322100520Y-110139721I-252259J431696D01*
G01*
X322150001Y-109922842D02*
G75*
G02*
X322100517Y-110139719I-500361J82D01*
G01*
X322100516Y-108300279D02*
G75*
G02*
X322803289Y-107651700I450514J216879D01*
G01*
X322100516Y-108300279D02*
G75*
G02*
X322149976Y-108517157I-450516J-216821D01*
G01*
X325549999Y-108517157D02*
X325549999Y-109922841D01*
X324644452Y-110719999D02*
X323055548Y-110719999D01*
X323055548Y-107720000D02*
X324644453Y-107720000D01*
X322150001Y-109922841D02*
X322150001Y-108517157D01*
G04 #@! TO.C,LED8*
X173199484Y-33939719D02*
G75*
G02*
X173149999Y-33722841I450505J216876D01*
G01*
X173199484Y-33939718D02*
G75*
G02*
X172496711Y-34588298I-450514J-216880D01*
G01*
X173149999Y-32317156D02*
G75*
G02*
X173199484Y-32100279I499990J1D01*
G01*
X172496711Y-31451701D02*
G75*
G02*
X173199485Y-32100279I252259J-431700D01*
G01*
X172496711Y-31451701D02*
G75*
G02*
X172244453Y-31520000I-252261J431710D01*
G01*
X172244452Y-34519999D02*
G75*
G02*
X172496711Y-34588298I-2J-500009D01*
G01*
X170655547Y-31519999D02*
G75*
G02*
X170403289Y-31451700I3J500009D01*
G01*
X170403290Y-34588298D02*
G75*
G02*
X170655548Y-34520000I252260J-431712D01*
G01*
X170403289Y-34588296D02*
G75*
G02*
X169700520Y-33939721I-252259J431696D01*
G01*
X169750001Y-33722842D02*
G75*
G02*
X169700517Y-33939719I-500361J82D01*
G01*
X169700516Y-32100279D02*
G75*
G02*
X170403289Y-31451700I450514J216879D01*
G01*
X169700516Y-32100279D02*
G75*
G02*
X169749976Y-32317157I-450516J-216821D01*
G01*
X173149999Y-32317157D02*
X173149999Y-33722841D01*
X172244452Y-34519999D02*
X170655548Y-34519999D01*
X170655548Y-31520000D02*
X172244453Y-31520000D01*
X169750001Y-33722841D02*
X169750001Y-32317157D01*
G04 #@! TO.C,LED24*
X220824484Y-52989719D02*
G75*
G02*
X220774999Y-52772841I450505J216876D01*
G01*
X220824484Y-52989718D02*
G75*
G02*
X220121711Y-53638298I-450514J-216880D01*
G01*
X220774999Y-51367156D02*
G75*
G02*
X220824484Y-51150279I499990J1D01*
G01*
X220121711Y-50501701D02*
G75*
G02*
X220824485Y-51150279I252259J-431700D01*
G01*
X220121711Y-50501701D02*
G75*
G02*
X219869453Y-50570000I-252261J431710D01*
G01*
X219869452Y-53569999D02*
G75*
G02*
X220121711Y-53638298I-2J-500009D01*
G01*
X218280547Y-50569999D02*
G75*
G02*
X218028289Y-50501700I3J500009D01*
G01*
X218028290Y-53638298D02*
G75*
G02*
X218280548Y-53570000I252260J-431712D01*
G01*
X218028289Y-53638296D02*
G75*
G02*
X217325520Y-52989721I-252259J431696D01*
G01*
X217375001Y-52772842D02*
G75*
G02*
X217325517Y-52989719I-500361J82D01*
G01*
X217325516Y-51150279D02*
G75*
G02*
X218028289Y-50501700I450514J216879D01*
G01*
X217325516Y-51150279D02*
G75*
G02*
X217374976Y-51367157I-450516J-216821D01*
G01*
X220774999Y-51367157D02*
X220774999Y-52772841D01*
X219869452Y-53569999D02*
X218280548Y-53569999D01*
X218280548Y-50570000D02*
X219869453Y-50570000D01*
X217375001Y-52772841D02*
X217375001Y-51367157D01*
G04 #@! TO.C,LED20*
X144624484Y-52989719D02*
G75*
G02*
X144574999Y-52772841I450505J216876D01*
G01*
X144624484Y-52989718D02*
G75*
G02*
X143921711Y-53638298I-450514J-216880D01*
G01*
X144574999Y-51367156D02*
G75*
G02*
X144624484Y-51150279I499990J1D01*
G01*
X143921711Y-50501701D02*
G75*
G02*
X144624485Y-51150279I252259J-431700D01*
G01*
X143921711Y-50501701D02*
G75*
G02*
X143669453Y-50570000I-252261J431710D01*
G01*
X143669452Y-53569999D02*
G75*
G02*
X143921711Y-53638298I-2J-500009D01*
G01*
X142080547Y-50569999D02*
G75*
G02*
X141828289Y-50501700I3J500009D01*
G01*
X141828290Y-53638298D02*
G75*
G02*
X142080548Y-53570000I252260J-431712D01*
G01*
X141828289Y-53638296D02*
G75*
G02*
X141125520Y-52989721I-252259J431696D01*
G01*
X141175001Y-52772842D02*
G75*
G02*
X141125517Y-52989719I-500361J82D01*
G01*
X141125516Y-51150279D02*
G75*
G02*
X141828289Y-50501700I450514J216879D01*
G01*
X141125516Y-51150279D02*
G75*
G02*
X141174976Y-51367157I-450516J-216821D01*
G01*
X144574999Y-51367157D02*
X144574999Y-52772841D01*
X143669452Y-53569999D02*
X142080548Y-53569999D01*
X142080548Y-50570000D02*
X143669453Y-50570000D01*
X141175001Y-52772841D02*
X141175001Y-51367157D01*
G04 #@! TO.C,LED29*
X46993234Y-72039719D02*
G75*
G02*
X46943749Y-71822841I450505J216876D01*
G01*
X46993234Y-72039718D02*
G75*
G02*
X46290461Y-72688298I-450514J-216880D01*
G01*
X46943749Y-70417156D02*
G75*
G02*
X46993234Y-70200279I499990J1D01*
G01*
X46290461Y-69551701D02*
G75*
G02*
X46993235Y-70200279I252259J-431700D01*
G01*
X46290461Y-69551701D02*
G75*
G02*
X46038203Y-69620000I-252261J431710D01*
G01*
X46038202Y-72619999D02*
G75*
G02*
X46290461Y-72688298I-2J-500009D01*
G01*
X44449297Y-69619999D02*
G75*
G02*
X44197039Y-69551700I3J500009D01*
G01*
X44197040Y-72688298D02*
G75*
G02*
X44449298Y-72620000I252260J-431712D01*
G01*
X44197039Y-72688296D02*
G75*
G02*
X43494270Y-72039721I-252259J431696D01*
G01*
X43543751Y-71822842D02*
G75*
G02*
X43494267Y-72039719I-500361J82D01*
G01*
X43494266Y-70200279D02*
G75*
G02*
X44197039Y-69551700I450514J216879D01*
G01*
X43494266Y-70200279D02*
G75*
G02*
X43543726Y-70417157I-450516J-216821D01*
G01*
X46943749Y-70417157D02*
X46943749Y-71822841D01*
X46038202Y-72619999D02*
X44449298Y-72619999D01*
X44449298Y-69620000D02*
X46038203Y-69620000D01*
X43543751Y-71822841D02*
X43543751Y-70417157D01*
G04 #@! TO.C,LED44*
X82711984Y-91089719D02*
G75*
G02*
X82662499Y-90872841I450505J216876D01*
G01*
X82711984Y-91089718D02*
G75*
G02*
X82009211Y-91738298I-450514J-216880D01*
G01*
X82662499Y-89467156D02*
G75*
G02*
X82711984Y-89250279I499990J1D01*
G01*
X82009211Y-88601701D02*
G75*
G02*
X82711985Y-89250279I252259J-431700D01*
G01*
X82009211Y-88601701D02*
G75*
G02*
X81756953Y-88670000I-252261J431710D01*
G01*
X81756952Y-91669999D02*
G75*
G02*
X82009211Y-91738298I-2J-500009D01*
G01*
X80168047Y-88669999D02*
G75*
G02*
X79915789Y-88601700I3J500009D01*
G01*
X79915790Y-91738298D02*
G75*
G02*
X80168048Y-91670000I252260J-431712D01*
G01*
X79915789Y-91738296D02*
G75*
G02*
X79213020Y-91089721I-252259J431696D01*
G01*
X79262501Y-90872842D02*
G75*
G02*
X79213017Y-91089719I-500361J82D01*
G01*
X79213016Y-89250279D02*
G75*
G02*
X79915789Y-88601700I450514J216879D01*
G01*
X79213016Y-89250279D02*
G75*
G02*
X79262476Y-89467157I-450516J-216821D01*
G01*
X82662499Y-89467157D02*
X82662499Y-90872841D01*
X81756952Y-91669999D02*
X80168048Y-91669999D01*
X80168048Y-88670000D02*
X81756953Y-88670000D01*
X79262501Y-90872841D02*
X79262501Y-89467157D01*
G04 #@! TO.C,LED5*
X116049484Y-33939719D02*
G75*
G02*
X115999999Y-33722841I450505J216876D01*
G01*
X116049484Y-33939718D02*
G75*
G02*
X115346711Y-34588298I-450514J-216880D01*
G01*
X115999999Y-32317156D02*
G75*
G02*
X116049484Y-32100279I499990J1D01*
G01*
X115346711Y-31451701D02*
G75*
G02*
X116049485Y-32100279I252259J-431700D01*
G01*
X115346711Y-31451701D02*
G75*
G02*
X115094453Y-31520000I-252261J431710D01*
G01*
X115094452Y-34519999D02*
G75*
G02*
X115346711Y-34588298I-2J-500009D01*
G01*
X113505547Y-31519999D02*
G75*
G02*
X113253289Y-31451700I3J500009D01*
G01*
X113253290Y-34588298D02*
G75*
G02*
X113505548Y-34520000I252260J-431712D01*
G01*
X113253289Y-34588296D02*
G75*
G02*
X112550520Y-33939721I-252259J431696D01*
G01*
X112600001Y-33722842D02*
G75*
G02*
X112550517Y-33939719I-500361J82D01*
G01*
X112550516Y-32100279D02*
G75*
G02*
X113253289Y-31451700I450514J216879D01*
G01*
X112550516Y-32100279D02*
G75*
G02*
X112599976Y-32317157I-450516J-216821D01*
G01*
X115999999Y-32317157D02*
X115999999Y-33722841D01*
X115094452Y-34519999D02*
X113505548Y-34519999D01*
X113505548Y-31520000D02*
X115094453Y-31520000D01*
X112600001Y-33722841D02*
X112600001Y-32317157D01*
G04 #@! TO.C,LED48*
X158911984Y-91089719D02*
G75*
G02*
X158862499Y-90872841I450505J216876D01*
G01*
X158911984Y-91089718D02*
G75*
G02*
X158209211Y-91738298I-450514J-216880D01*
G01*
X158862499Y-89467156D02*
G75*
G02*
X158911984Y-89250279I499990J1D01*
G01*
X158209211Y-88601701D02*
G75*
G02*
X158911985Y-89250279I252259J-431700D01*
G01*
X158209211Y-88601701D02*
G75*
G02*
X157956953Y-88670000I-252261J431710D01*
G01*
X157956952Y-91669999D02*
G75*
G02*
X158209211Y-91738298I-2J-500009D01*
G01*
X156368047Y-88669999D02*
G75*
G02*
X156115789Y-88601700I3J500009D01*
G01*
X156115790Y-91738298D02*
G75*
G02*
X156368048Y-91670000I252260J-431712D01*
G01*
X156115789Y-91738296D02*
G75*
G02*
X155413020Y-91089721I-252259J431696D01*
G01*
X155462501Y-90872842D02*
G75*
G02*
X155413017Y-91089719I-500361J82D01*
G01*
X155413016Y-89250279D02*
G75*
G02*
X156115789Y-88601700I450514J216879D01*
G01*
X155413016Y-89250279D02*
G75*
G02*
X155462476Y-89467157I-450516J-216821D01*
G01*
X158862499Y-89467157D02*
X158862499Y-90872841D01*
X157956952Y-91669999D02*
X156368048Y-91669999D01*
X156368048Y-88670000D02*
X157956953Y-88670000D01*
X155462501Y-90872841D02*
X155462501Y-89467157D01*
G04 #@! TO.C,LED53*
X254161984Y-91089719D02*
G75*
G02*
X254112499Y-90872841I450505J216876D01*
G01*
X254161984Y-91089718D02*
G75*
G02*
X253459211Y-91738298I-450514J-216880D01*
G01*
X254112499Y-89467156D02*
G75*
G02*
X254161984Y-89250279I499990J1D01*
G01*
X253459211Y-88601701D02*
G75*
G02*
X254161985Y-89250279I252259J-431700D01*
G01*
X253459211Y-88601701D02*
G75*
G02*
X253206953Y-88670000I-252261J431710D01*
G01*
X253206952Y-91669999D02*
G75*
G02*
X253459211Y-91738298I-2J-500009D01*
G01*
X251618047Y-88669999D02*
G75*
G02*
X251365789Y-88601700I3J500009D01*
G01*
X251365790Y-91738298D02*
G75*
G02*
X251618048Y-91670000I252260J-431712D01*
G01*
X251365789Y-91738296D02*
G75*
G02*
X250663020Y-91089721I-252259J431696D01*
G01*
X250712501Y-90872842D02*
G75*
G02*
X250663017Y-91089719I-500361J82D01*
G01*
X250663016Y-89250279D02*
G75*
G02*
X251365789Y-88601700I450514J216879D01*
G01*
X250663016Y-89250279D02*
G75*
G02*
X250712476Y-89467157I-450516J-216821D01*
G01*
X254112499Y-89467157D02*
X254112499Y-90872841D01*
X253206952Y-91669999D02*
X251618048Y-91669999D01*
X251618048Y-88670000D02*
X253206953Y-88670000D01*
X250712501Y-90872841D02*
X250712501Y-89467157D01*
G04 #@! TO.C,LED62*
X280355734Y-110139719D02*
G75*
G02*
X280306249Y-109922841I450505J216876D01*
G01*
X280355734Y-110139718D02*
G75*
G02*
X279652961Y-110788298I-450514J-216880D01*
G01*
X280306249Y-108517156D02*
G75*
G02*
X280355734Y-108300279I499990J1D01*
G01*
X279652961Y-107651701D02*
G75*
G02*
X280355735Y-108300279I252259J-431700D01*
G01*
X279652961Y-107651701D02*
G75*
G02*
X279400703Y-107720000I-252261J431710D01*
G01*
X279400702Y-110719999D02*
G75*
G02*
X279652961Y-110788298I-2J-500009D01*
G01*
X277811797Y-107719999D02*
G75*
G02*
X277559539Y-107651700I3J500009D01*
G01*
X277559540Y-110788298D02*
G75*
G02*
X277811798Y-110720000I252260J-431712D01*
G01*
X277559539Y-110788296D02*
G75*
G02*
X276856770Y-110139721I-252259J431696D01*
G01*
X276906251Y-109922842D02*
G75*
G02*
X276856767Y-110139719I-500361J82D01*
G01*
X276856766Y-108300279D02*
G75*
G02*
X277559539Y-107651700I450514J216879D01*
G01*
X276856766Y-108300279D02*
G75*
G02*
X276906226Y-108517157I-450516J-216821D01*
G01*
X280306249Y-108517157D02*
X280306249Y-109922841D01*
X279400702Y-110719999D02*
X277811798Y-110719999D01*
X277811798Y-107720000D02*
X279400703Y-107720000D01*
X276906251Y-109922841D02*
X276906251Y-108517157D01*
G04 #@! TO.C,LED36*
X187486984Y-72039719D02*
G75*
G02*
X187437499Y-71822841I450505J216876D01*
G01*
X187486984Y-72039718D02*
G75*
G02*
X186784211Y-72688298I-450514J-216880D01*
G01*
X187437499Y-70417156D02*
G75*
G02*
X187486984Y-70200279I499990J1D01*
G01*
X186784211Y-69551701D02*
G75*
G02*
X187486985Y-70200279I252259J-431700D01*
G01*
X186784211Y-69551701D02*
G75*
G02*
X186531953Y-69620000I-252261J431710D01*
G01*
X186531952Y-72619999D02*
G75*
G02*
X186784211Y-72688298I-2J-500009D01*
G01*
X184943047Y-69619999D02*
G75*
G02*
X184690789Y-69551700I3J500009D01*
G01*
X184690790Y-72688298D02*
G75*
G02*
X184943048Y-72620000I252260J-431712D01*
G01*
X184690789Y-72688296D02*
G75*
G02*
X183988020Y-72039721I-252259J431696D01*
G01*
X184037501Y-71822842D02*
G75*
G02*
X183988017Y-72039719I-500361J82D01*
G01*
X183988016Y-70200279D02*
G75*
G02*
X184690789Y-69551700I450514J216879D01*
G01*
X183988016Y-70200279D02*
G75*
G02*
X184037476Y-70417157I-450516J-216821D01*
G01*
X187437499Y-70417157D02*
X187437499Y-71822841D01*
X186531952Y-72619999D02*
X184943048Y-72619999D01*
X184943048Y-69620000D02*
X186531953Y-69620000D01*
X184037501Y-71822841D02*
X184037501Y-70417157D01*
G04 #@! TO.C,LED41*
X294643234Y-72039719D02*
G75*
G02*
X294593749Y-71822841I450505J216876D01*
G01*
X294643234Y-72039718D02*
G75*
G02*
X293940461Y-72688298I-450514J-216880D01*
G01*
X294593749Y-70417156D02*
G75*
G02*
X294643234Y-70200279I499990J1D01*
G01*
X293940461Y-69551701D02*
G75*
G02*
X294643235Y-70200279I252259J-431700D01*
G01*
X293940461Y-69551701D02*
G75*
G02*
X293688203Y-69620000I-252261J431710D01*
G01*
X293688202Y-72619999D02*
G75*
G02*
X293940461Y-72688298I-2J-500009D01*
G01*
X292099297Y-69619999D02*
G75*
G02*
X291847039Y-69551700I3J500009D01*
G01*
X291847040Y-72688298D02*
G75*
G02*
X292099298Y-72620000I252260J-431712D01*
G01*
X291847039Y-72688296D02*
G75*
G02*
X291144270Y-72039721I-252259J431696D01*
G01*
X291193751Y-71822842D02*
G75*
G02*
X291144267Y-72039719I-500361J82D01*
G01*
X291144266Y-70200279D02*
G75*
G02*
X291847039Y-69551700I450514J216879D01*
G01*
X291144266Y-70200279D02*
G75*
G02*
X291193726Y-70417157I-450516J-216821D01*
G01*
X294593749Y-70417157D02*
X294593749Y-71822841D01*
X293688202Y-72619999D02*
X292099298Y-72619999D01*
X292099298Y-69620000D02*
X293688203Y-69620000D01*
X291193751Y-71822841D02*
X291193751Y-70417157D01*
G04 #@! TO.C,LED60*
X232730734Y-110139719D02*
G75*
G02*
X232681249Y-109922841I450505J216876D01*
G01*
X232730734Y-110139718D02*
G75*
G02*
X232027961Y-110788298I-450514J-216880D01*
G01*
X232681249Y-108517156D02*
G75*
G02*
X232730734Y-108300279I499990J1D01*
G01*
X232027961Y-107651701D02*
G75*
G02*
X232730735Y-108300279I252259J-431700D01*
G01*
X232027961Y-107651701D02*
G75*
G02*
X231775703Y-107720000I-252261J431710D01*
G01*
X231775702Y-110719999D02*
G75*
G02*
X232027961Y-110788298I-2J-500009D01*
G01*
X230186797Y-107719999D02*
G75*
G02*
X229934539Y-107651700I3J500009D01*
G01*
X229934540Y-110788298D02*
G75*
G02*
X230186798Y-110720000I252260J-431712D01*
G01*
X229934539Y-110788296D02*
G75*
G02*
X229231770Y-110139721I-252259J431696D01*
G01*
X229281251Y-109922842D02*
G75*
G02*
X229231767Y-110139719I-500361J82D01*
G01*
X229231766Y-108300279D02*
G75*
G02*
X229934539Y-107651700I450514J216879D01*
G01*
X229231766Y-108300279D02*
G75*
G02*
X229281226Y-108517157I-450516J-216821D01*
G01*
X232681249Y-108517157D02*
X232681249Y-109922841D01*
X231775702Y-110719999D02*
X230186798Y-110719999D01*
X230186798Y-107720000D02*
X231775703Y-107720000D01*
X229281251Y-109922841D02*
X229281251Y-108517157D01*
G04 #@! TO.C,LED59*
X161293234Y-110139719D02*
G75*
G02*
X161243749Y-109922841I450505J216876D01*
G01*
X161293234Y-110139718D02*
G75*
G02*
X160590461Y-110788298I-450514J-216880D01*
G01*
X161243749Y-108517156D02*
G75*
G02*
X161293234Y-108300279I499990J1D01*
G01*
X160590461Y-107651701D02*
G75*
G02*
X161293235Y-108300279I252259J-431700D01*
G01*
X160590461Y-107651701D02*
G75*
G02*
X160338203Y-107720000I-252261J431710D01*
G01*
X160338202Y-110719999D02*
G75*
G02*
X160590461Y-110788298I-2J-500009D01*
G01*
X158749297Y-107719999D02*
G75*
G02*
X158497039Y-107651700I3J500009D01*
G01*
X158497040Y-110788298D02*
G75*
G02*
X158749298Y-110720000I252260J-431712D01*
G01*
X158497039Y-110788296D02*
G75*
G02*
X157794270Y-110139721I-252259J431696D01*
G01*
X157843751Y-109922842D02*
G75*
G02*
X157794267Y-110139719I-500361J82D01*
G01*
X157794266Y-108300279D02*
G75*
G02*
X158497039Y-107651700I450514J216879D01*
G01*
X157794266Y-108300279D02*
G75*
G02*
X157843726Y-108517157I-450516J-216821D01*
G01*
X161243749Y-108517157D02*
X161243749Y-109922841D01*
X160338202Y-110719999D02*
X158749298Y-110719999D01*
X158749298Y-107720000D02*
X160338203Y-107720000D01*
X157843751Y-109922841D02*
X157843751Y-108517157D01*
G04 #@! TO.C,LED12*
X249399484Y-33939719D02*
G75*
G02*
X249349999Y-33722841I450505J216876D01*
G01*
X249399484Y-33939718D02*
G75*
G02*
X248696711Y-34588298I-450514J-216880D01*
G01*
X249349999Y-32317156D02*
G75*
G02*
X249399484Y-32100279I499990J1D01*
G01*
X248696711Y-31451701D02*
G75*
G02*
X249399485Y-32100279I252259J-431700D01*
G01*
X248696711Y-31451701D02*
G75*
G02*
X248444453Y-31520000I-252261J431710D01*
G01*
X248444452Y-34519999D02*
G75*
G02*
X248696711Y-34588298I-2J-500009D01*
G01*
X246855547Y-31519999D02*
G75*
G02*
X246603289Y-31451700I3J500009D01*
G01*
X246603290Y-34588298D02*
G75*
G02*
X246855548Y-34520000I252260J-431712D01*
G01*
X246603289Y-34588296D02*
G75*
G02*
X245900520Y-33939721I-252259J431696D01*
G01*
X245950001Y-33722842D02*
G75*
G02*
X245900517Y-33939719I-500361J82D01*
G01*
X245900516Y-32100279D02*
G75*
G02*
X246603289Y-31451700I450514J216879D01*
G01*
X245900516Y-32100279D02*
G75*
G02*
X245949976Y-32317157I-450516J-216821D01*
G01*
X249349999Y-32317157D02*
X249349999Y-33722841D01*
X248444452Y-34519999D02*
X246855548Y-34519999D01*
X246855548Y-31520000D02*
X248444453Y-31520000D01*
X245950001Y-33722841D02*
X245950001Y-32317157D01*
G04 #@! TO.C,LED21*
X163674484Y-52989719D02*
G75*
G02*
X163624999Y-52772841I450505J216876D01*
G01*
X163674484Y-52989718D02*
G75*
G02*
X162971711Y-53638298I-450514J-216880D01*
G01*
X163624999Y-51367156D02*
G75*
G02*
X163674484Y-51150279I499990J1D01*
G01*
X162971711Y-50501701D02*
G75*
G02*
X163674485Y-51150279I252259J-431700D01*
G01*
X162971711Y-50501701D02*
G75*
G02*
X162719453Y-50570000I-252261J431710D01*
G01*
X162719452Y-53569999D02*
G75*
G02*
X162971711Y-53638298I-2J-500009D01*
G01*
X161130547Y-50569999D02*
G75*
G02*
X160878289Y-50501700I3J500009D01*
G01*
X160878290Y-53638298D02*
G75*
G02*
X161130548Y-53570000I252260J-431712D01*
G01*
X160878289Y-53638296D02*
G75*
G02*
X160175520Y-52989721I-252259J431696D01*
G01*
X160225001Y-52772842D02*
G75*
G02*
X160175517Y-52989719I-500361J82D01*
G01*
X160175516Y-51150279D02*
G75*
G02*
X160878289Y-50501700I450514J216879D01*
G01*
X160175516Y-51150279D02*
G75*
G02*
X160224976Y-51367157I-450516J-216821D01*
G01*
X163624999Y-51367157D02*
X163624999Y-52772841D01*
X162719452Y-53569999D02*
X161130548Y-53569999D01*
X161130548Y-50570000D02*
X162719453Y-50570000D01*
X160225001Y-52772841D02*
X160225001Y-51367157D01*
G04 #@! TO.C,LED7*
X154149484Y-33939719D02*
G75*
G02*
X154099999Y-33722841I450505J216876D01*
G01*
X154149484Y-33939718D02*
G75*
G02*
X153446711Y-34588298I-450514J-216880D01*
G01*
X154099999Y-32317156D02*
G75*
G02*
X154149484Y-32100279I499990J1D01*
G01*
X153446711Y-31451701D02*
G75*
G02*
X154149485Y-32100279I252259J-431700D01*
G01*
X153446711Y-31451701D02*
G75*
G02*
X153194453Y-31520000I-252261J431710D01*
G01*
X153194452Y-34519999D02*
G75*
G02*
X153446711Y-34588298I-2J-500009D01*
G01*
X151605547Y-31519999D02*
G75*
G02*
X151353289Y-31451700I3J500009D01*
G01*
X151353290Y-34588298D02*
G75*
G02*
X151605548Y-34520000I252260J-431712D01*
G01*
X151353289Y-34588296D02*
G75*
G02*
X150650520Y-33939721I-252259J431696D01*
G01*
X150700001Y-33722842D02*
G75*
G02*
X150650517Y-33939719I-500361J82D01*
G01*
X150650516Y-32100279D02*
G75*
G02*
X151353289Y-31451700I450514J216879D01*
G01*
X150650516Y-32100279D02*
G75*
G02*
X150699976Y-32317157I-450516J-216821D01*
G01*
X154099999Y-32317157D02*
X154099999Y-33722841D01*
X153194452Y-34519999D02*
X151605548Y-34519999D01*
X151605548Y-31520000D02*
X153194453Y-31520000D01*
X150700001Y-33722841D02*
X150700001Y-32317157D01*
G04 #@! TO.C,LED25*
X239874484Y-52989719D02*
G75*
G02*
X239824999Y-52772841I450505J216876D01*
G01*
X239874484Y-52989718D02*
G75*
G02*
X239171711Y-53638298I-450514J-216880D01*
G01*
X239824999Y-51367156D02*
G75*
G02*
X239874484Y-51150279I499990J1D01*
G01*
X239171711Y-50501701D02*
G75*
G02*
X239874485Y-51150279I252259J-431700D01*
G01*
X239171711Y-50501701D02*
G75*
G02*
X238919453Y-50570000I-252261J431710D01*
G01*
X238919452Y-53569999D02*
G75*
G02*
X239171711Y-53638298I-2J-500009D01*
G01*
X237330547Y-50569999D02*
G75*
G02*
X237078289Y-50501700I3J500009D01*
G01*
X237078290Y-53638298D02*
G75*
G02*
X237330548Y-53570000I252260J-431712D01*
G01*
X237078289Y-53638296D02*
G75*
G02*
X236375520Y-52989721I-252259J431696D01*
G01*
X236425001Y-52772842D02*
G75*
G02*
X236375517Y-52989719I-500361J82D01*
G01*
X236375516Y-51150279D02*
G75*
G02*
X237078289Y-50501700I450514J216879D01*
G01*
X236375516Y-51150279D02*
G75*
G02*
X236424976Y-51367157I-450516J-216821D01*
G01*
X239824999Y-51367157D02*
X239824999Y-52772841D01*
X238919452Y-53569999D02*
X237330548Y-53569999D01*
X237330548Y-50570000D02*
X238919453Y-50570000D01*
X236425001Y-52772841D02*
X236425001Y-51367157D01*
G04 #@! TO.C,LED10*
X211299484Y-33939719D02*
G75*
G02*
X211249999Y-33722841I450505J216876D01*
G01*
X211299484Y-33939718D02*
G75*
G02*
X210596711Y-34588298I-450514J-216880D01*
G01*
X211249999Y-32317156D02*
G75*
G02*
X211299484Y-32100279I499990J1D01*
G01*
X210596711Y-31451701D02*
G75*
G02*
X211299485Y-32100279I252259J-431700D01*
G01*
X210596711Y-31451701D02*
G75*
G02*
X210344453Y-31520000I-252261J431710D01*
G01*
X210344452Y-34519999D02*
G75*
G02*
X210596711Y-34588298I-2J-500009D01*
G01*
X208755547Y-31519999D02*
G75*
G02*
X208503289Y-31451700I3J500009D01*
G01*
X208503290Y-34588298D02*
G75*
G02*
X208755548Y-34520000I252260J-431712D01*
G01*
X208503289Y-34588296D02*
G75*
G02*
X207800520Y-33939721I-252259J431696D01*
G01*
X207850001Y-33722842D02*
G75*
G02*
X207800517Y-33939719I-500361J82D01*
G01*
X207800516Y-32100279D02*
G75*
G02*
X208503289Y-31451700I450514J216879D01*
G01*
X207800516Y-32100279D02*
G75*
G02*
X207849976Y-32317157I-450516J-216821D01*
G01*
X211249999Y-32317157D02*
X211249999Y-33722841D01*
X210344452Y-34519999D02*
X208755548Y-34519999D01*
X208755548Y-31520000D02*
X210344453Y-31520000D01*
X207850001Y-33722841D02*
X207850001Y-32317157D01*
G04 #@! TO.C,LED19*
X125574484Y-52989719D02*
G75*
G02*
X125524999Y-52772841I450505J216876D01*
G01*
X125574484Y-52989718D02*
G75*
G02*
X124871711Y-53638298I-450514J-216880D01*
G01*
X125524999Y-51367156D02*
G75*
G02*
X125574484Y-51150279I499990J1D01*
G01*
X124871711Y-50501701D02*
G75*
G02*
X125574485Y-51150279I252259J-431700D01*
G01*
X124871711Y-50501701D02*
G75*
G02*
X124619453Y-50570000I-252261J431710D01*
G01*
X124619452Y-53569999D02*
G75*
G02*
X124871711Y-53638298I-2J-500009D01*
G01*
X123030547Y-50569999D02*
G75*
G02*
X122778289Y-50501700I3J500009D01*
G01*
X122778290Y-53638298D02*
G75*
G02*
X123030548Y-53570000I252260J-431712D01*
G01*
X122778289Y-53638296D02*
G75*
G02*
X122075520Y-52989721I-252259J431696D01*
G01*
X122125001Y-52772842D02*
G75*
G02*
X122075517Y-52989719I-500361J82D01*
G01*
X122075516Y-51150279D02*
G75*
G02*
X122778289Y-50501700I450514J216879D01*
G01*
X122075516Y-51150279D02*
G75*
G02*
X122124976Y-51367157I-450516J-216821D01*
G01*
X125524999Y-51367157D02*
X125524999Y-52772841D01*
X124619452Y-53569999D02*
X123030548Y-53569999D01*
X123030548Y-50570000D02*
X124619453Y-50570000D01*
X122125001Y-52772841D02*
X122125001Y-51367157D01*
G04 #@! TO.C,LED14*
X297024484Y-33939719D02*
G75*
G02*
X296974999Y-33722841I450505J216876D01*
G01*
X297024484Y-33939718D02*
G75*
G02*
X296321711Y-34588298I-450514J-216880D01*
G01*
X296974999Y-32317156D02*
G75*
G02*
X297024484Y-32100279I499990J1D01*
G01*
X296321711Y-31451701D02*
G75*
G02*
X297024485Y-32100279I252259J-431700D01*
G01*
X296321711Y-31451701D02*
G75*
G02*
X296069453Y-31520000I-252261J431710D01*
G01*
X296069452Y-34519999D02*
G75*
G02*
X296321711Y-34588298I-2J-500009D01*
G01*
X294480547Y-31519999D02*
G75*
G02*
X294228289Y-31451700I3J500009D01*
G01*
X294228290Y-34588298D02*
G75*
G02*
X294480548Y-34520000I252260J-431712D01*
G01*
X294228289Y-34588296D02*
G75*
G02*
X293525520Y-33939721I-252259J431696D01*
G01*
X293575001Y-33722842D02*
G75*
G02*
X293525517Y-33939719I-500361J82D01*
G01*
X293525516Y-32100279D02*
G75*
G02*
X294228289Y-31451700I450514J216879D01*
G01*
X293525516Y-32100279D02*
G75*
G02*
X293574976Y-32317157I-450516J-216821D01*
G01*
X296974999Y-32317157D02*
X296974999Y-33722841D01*
X296069452Y-34519999D02*
X294480548Y-34519999D01*
X294480548Y-31520000D02*
X296069453Y-31520000D01*
X293575001Y-33722841D02*
X293575001Y-32317157D01*
G04 #@! TO.C,LED6*
X135099484Y-33939719D02*
G75*
G02*
X135049999Y-33722841I450505J216876D01*
G01*
X135099484Y-33939718D02*
G75*
G02*
X134396711Y-34588298I-450514J-216880D01*
G01*
X135049999Y-32317156D02*
G75*
G02*
X135099484Y-32100279I499990J1D01*
G01*
X134396711Y-31451701D02*
G75*
G02*
X135099485Y-32100279I252259J-431700D01*
G01*
X134396711Y-31451701D02*
G75*
G02*
X134144453Y-31520000I-252261J431710D01*
G01*
X134144452Y-34519999D02*
G75*
G02*
X134396711Y-34588298I-2J-500009D01*
G01*
X132555547Y-31519999D02*
G75*
G02*
X132303289Y-31451700I3J500009D01*
G01*
X132303290Y-34588298D02*
G75*
G02*
X132555548Y-34520000I252260J-431712D01*
G01*
X132303289Y-34588296D02*
G75*
G02*
X131600520Y-33939721I-252259J431696D01*
G01*
X131650001Y-33722842D02*
G75*
G02*
X131600517Y-33939719I-500361J82D01*
G01*
X131600516Y-32100279D02*
G75*
G02*
X132303289Y-31451700I450514J216879D01*
G01*
X131600516Y-32100279D02*
G75*
G02*
X131649976Y-32317157I-450516J-216821D01*
G01*
X135049999Y-32317157D02*
X135049999Y-33722841D01*
X134144452Y-34519999D02*
X132555548Y-34519999D01*
X132555548Y-31520000D02*
X134144453Y-31520000D01*
X131650001Y-33722841D02*
X131650001Y-32317157D01*
G04 #@! TO.C,LED55*
X325599484Y-91089719D02*
G75*
G02*
X325549999Y-90872841I450505J216876D01*
G01*
X325599484Y-91089718D02*
G75*
G02*
X324896711Y-91738298I-450514J-216880D01*
G01*
X325549999Y-89467156D02*
G75*
G02*
X325599484Y-89250279I499990J1D01*
G01*
X324896711Y-88601701D02*
G75*
G02*
X325599485Y-89250279I252259J-431700D01*
G01*
X324896711Y-88601701D02*
G75*
G02*
X324644453Y-88670000I-252261J431710D01*
G01*
X324644452Y-91669999D02*
G75*
G02*
X324896711Y-91738298I-2J-500009D01*
G01*
X323055547Y-88669999D02*
G75*
G02*
X322803289Y-88601700I3J500009D01*
G01*
X322803290Y-91738298D02*
G75*
G02*
X323055548Y-91670000I252260J-431712D01*
G01*
X322803289Y-91738296D02*
G75*
G02*
X322100520Y-91089721I-252259J431696D01*
G01*
X322150001Y-90872842D02*
G75*
G02*
X322100517Y-91089719I-500361J82D01*
G01*
X322100516Y-89250279D02*
G75*
G02*
X322803289Y-88601700I450514J216879D01*
G01*
X322100516Y-89250279D02*
G75*
G02*
X322149976Y-89467157I-450516J-216821D01*
G01*
X325549999Y-89467157D02*
X325549999Y-90872841D01*
X324644452Y-91669999D02*
X323055548Y-91669999D01*
X323055548Y-88670000D02*
X324644453Y-88670000D01*
X322150001Y-90872841D02*
X322150001Y-89467157D01*
G04 #@! TO.C,LED16*
X68424484Y-52989719D02*
G75*
G02*
X68374999Y-52772841I450505J216876D01*
G01*
X68424484Y-52989718D02*
G75*
G02*
X67721711Y-53638298I-450514J-216880D01*
G01*
X68374999Y-51367156D02*
G75*
G02*
X68424484Y-51150279I499990J1D01*
G01*
X67721711Y-50501701D02*
G75*
G02*
X68424485Y-51150279I252259J-431700D01*
G01*
X67721711Y-50501701D02*
G75*
G02*
X67469453Y-50570000I-252261J431710D01*
G01*
X67469452Y-53569999D02*
G75*
G02*
X67721711Y-53638298I-2J-500009D01*
G01*
X65880547Y-50569999D02*
G75*
G02*
X65628289Y-50501700I3J500009D01*
G01*
X65628290Y-53638298D02*
G75*
G02*
X65880548Y-53570000I252260J-431712D01*
G01*
X65628289Y-53638296D02*
G75*
G02*
X64925520Y-52989721I-252259J431696D01*
G01*
X64975001Y-52772842D02*
G75*
G02*
X64925517Y-52989719I-500361J82D01*
G01*
X64925516Y-51150279D02*
G75*
G02*
X65628289Y-50501700I450514J216879D01*
G01*
X64925516Y-51150279D02*
G75*
G02*
X64974976Y-51367157I-450516J-216821D01*
G01*
X68374999Y-51367157D02*
X68374999Y-52772841D01*
X67469452Y-53569999D02*
X65880548Y-53569999D01*
X65880548Y-50570000D02*
X67469453Y-50570000D01*
X64975001Y-52772841D02*
X64975001Y-51367157D01*
G04 #@! TO.C,LED51*
X216061984Y-91089719D02*
G75*
G02*
X216012499Y-90872841I450505J216876D01*
G01*
X216061984Y-91089718D02*
G75*
G02*
X215359211Y-91738298I-450514J-216880D01*
G01*
X216012499Y-89467156D02*
G75*
G02*
X216061984Y-89250279I499990J1D01*
G01*
X215359211Y-88601701D02*
G75*
G02*
X216061985Y-89250279I252259J-431700D01*
G01*
X215359211Y-88601701D02*
G75*
G02*
X215106953Y-88670000I-252261J431710D01*
G01*
X215106952Y-91669999D02*
G75*
G02*
X215359211Y-91738298I-2J-500009D01*
G01*
X213518047Y-88669999D02*
G75*
G02*
X213265789Y-88601700I3J500009D01*
G01*
X213265790Y-91738298D02*
G75*
G02*
X213518048Y-91670000I252260J-431712D01*
G01*
X213265789Y-91738296D02*
G75*
G02*
X212563020Y-91089721I-252259J431696D01*
G01*
X212612501Y-90872842D02*
G75*
G02*
X212563017Y-91089719I-500361J82D01*
G01*
X212563016Y-89250279D02*
G75*
G02*
X213265789Y-88601700I450514J216879D01*
G01*
X212563016Y-89250279D02*
G75*
G02*
X212612476Y-89467157I-450516J-216821D01*
G01*
X216012499Y-89467157D02*
X216012499Y-90872841D01*
X215106952Y-91669999D02*
X213518048Y-91669999D01*
X213518048Y-88670000D02*
X215106953Y-88670000D01*
X212612501Y-90872841D02*
X212612501Y-89467157D01*
G04 #@! TO.C,LED33*
X130336984Y-72039719D02*
G75*
G02*
X130287499Y-71822841I450505J216876D01*
G01*
X130336984Y-72039718D02*
G75*
G02*
X129634211Y-72688298I-450514J-216880D01*
G01*
X130287499Y-70417156D02*
G75*
G02*
X130336984Y-70200279I499990J1D01*
G01*
X129634211Y-69551701D02*
G75*
G02*
X130336985Y-70200279I252259J-431700D01*
G01*
X129634211Y-69551701D02*
G75*
G02*
X129381953Y-69620000I-252261J431710D01*
G01*
X129381952Y-72619999D02*
G75*
G02*
X129634211Y-72688298I-2J-500009D01*
G01*
X127793047Y-69619999D02*
G75*
G02*
X127540789Y-69551700I3J500009D01*
G01*
X127540790Y-72688298D02*
G75*
G02*
X127793048Y-72620000I252260J-431712D01*
G01*
X127540789Y-72688296D02*
G75*
G02*
X126838020Y-72039721I-252259J431696D01*
G01*
X126887501Y-71822842D02*
G75*
G02*
X126838017Y-72039719I-500361J82D01*
G01*
X126838016Y-70200279D02*
G75*
G02*
X127540789Y-69551700I450514J216879D01*
G01*
X126838016Y-70200279D02*
G75*
G02*
X126887476Y-70417157I-450516J-216821D01*
G01*
X130287499Y-70417157D02*
X130287499Y-71822841D01*
X129381952Y-72619999D02*
X127793048Y-72619999D01*
X127793048Y-69620000D02*
X129381953Y-69620000D01*
X126887501Y-71822841D02*
X126887501Y-70417157D01*
G04 #@! TO.C,LED3*
X77949484Y-33939719D02*
G75*
G02*
X77899999Y-33722841I450505J216876D01*
G01*
X77949484Y-33939718D02*
G75*
G02*
X77246711Y-34588298I-450514J-216880D01*
G01*
X77899999Y-32317156D02*
G75*
G02*
X77949484Y-32100279I499990J1D01*
G01*
X77246711Y-31451701D02*
G75*
G02*
X77949485Y-32100279I252259J-431700D01*
G01*
X77246711Y-31451701D02*
G75*
G02*
X76994453Y-31520000I-252261J431710D01*
G01*
X76994452Y-34519999D02*
G75*
G02*
X77246711Y-34588298I-2J-500009D01*
G01*
X75405547Y-31519999D02*
G75*
G02*
X75153289Y-31451700I3J500009D01*
G01*
X75153290Y-34588298D02*
G75*
G02*
X75405548Y-34520000I252260J-431712D01*
G01*
X75153289Y-34588296D02*
G75*
G02*
X74450520Y-33939721I-252259J431696D01*
G01*
X74500001Y-33722842D02*
G75*
G02*
X74450517Y-33939719I-500361J82D01*
G01*
X74450516Y-32100279D02*
G75*
G02*
X75153289Y-31451700I450514J216879D01*
G01*
X74450516Y-32100279D02*
G75*
G02*
X74499976Y-32317157I-450516J-216821D01*
G01*
X77899999Y-32317157D02*
X77899999Y-33722841D01*
X76994452Y-34519999D02*
X75405548Y-34519999D01*
X75405548Y-31520000D02*
X76994453Y-31520000D01*
X74500001Y-33722841D02*
X74500001Y-32317157D01*
G04 #@! TO.C,LED52*
X235111984Y-91089719D02*
G75*
G02*
X235062499Y-90872841I450505J216876D01*
G01*
X235111984Y-91089718D02*
G75*
G02*
X234409211Y-91738298I-450514J-216880D01*
G01*
X235062499Y-89467156D02*
G75*
G02*
X235111984Y-89250279I499990J1D01*
G01*
X234409211Y-88601701D02*
G75*
G02*
X235111985Y-89250279I252259J-431700D01*
G01*
X234409211Y-88601701D02*
G75*
G02*
X234156953Y-88670000I-252261J431710D01*
G01*
X234156952Y-91669999D02*
G75*
G02*
X234409211Y-91738298I-2J-500009D01*
G01*
X232568047Y-88669999D02*
G75*
G02*
X232315789Y-88601700I3J500009D01*
G01*
X232315790Y-91738298D02*
G75*
G02*
X232568048Y-91670000I252260J-431712D01*
G01*
X232315789Y-91738296D02*
G75*
G02*
X231613020Y-91089721I-252259J431696D01*
G01*
X231662501Y-90872842D02*
G75*
G02*
X231613017Y-91089719I-500361J82D01*
G01*
X231613016Y-89250279D02*
G75*
G02*
X232315789Y-88601700I450514J216879D01*
G01*
X231613016Y-89250279D02*
G75*
G02*
X231662476Y-89467157I-450516J-216821D01*
G01*
X235062499Y-89467157D02*
X235062499Y-90872841D01*
X234156952Y-91669999D02*
X232568048Y-91669999D01*
X232568048Y-88670000D02*
X234156953Y-88670000D01*
X231662501Y-90872841D02*
X231662501Y-89467157D01*
G04 #@! TO.C,LED13*
X268449484Y-33939719D02*
G75*
G02*
X268399999Y-33722841I450505J216876D01*
G01*
X268449484Y-33939718D02*
G75*
G02*
X267746711Y-34588298I-450514J-216880D01*
G01*
X268399999Y-32317156D02*
G75*
G02*
X268449484Y-32100279I499990J1D01*
G01*
X267746711Y-31451701D02*
G75*
G02*
X268449485Y-32100279I252259J-431700D01*
G01*
X267746711Y-31451701D02*
G75*
G02*
X267494453Y-31520000I-252261J431710D01*
G01*
X267494452Y-34519999D02*
G75*
G02*
X267746711Y-34588298I-2J-500009D01*
G01*
X265905547Y-31519999D02*
G75*
G02*
X265653289Y-31451700I3J500009D01*
G01*
X265653290Y-34588298D02*
G75*
G02*
X265905548Y-34520000I252260J-431712D01*
G01*
X265653289Y-34588296D02*
G75*
G02*
X264950520Y-33939721I-252259J431696D01*
G01*
X265000001Y-33722842D02*
G75*
G02*
X264950517Y-33939719I-500361J82D01*
G01*
X264950516Y-32100279D02*
G75*
G02*
X265653289Y-31451700I450514J216879D01*
G01*
X264950516Y-32100279D02*
G75*
G02*
X264999976Y-32317157I-450516J-216821D01*
G01*
X268399999Y-32317157D02*
X268399999Y-33722841D01*
X267494452Y-34519999D02*
X265905548Y-34519999D01*
X265905548Y-31520000D02*
X267494453Y-31520000D01*
X265000001Y-33722841D02*
X265000001Y-32317157D01*
G04 #@! TO.C,LED31*
X92236984Y-72039719D02*
G75*
G02*
X92187499Y-71822841I450505J216876D01*
G01*
X92236984Y-72039718D02*
G75*
G02*
X91534211Y-72688298I-450514J-216880D01*
G01*
X92187499Y-70417156D02*
G75*
G02*
X92236984Y-70200279I499990J1D01*
G01*
X91534211Y-69551701D02*
G75*
G02*
X92236985Y-70200279I252259J-431700D01*
G01*
X91534211Y-69551701D02*
G75*
G02*
X91281953Y-69620000I-252261J431710D01*
G01*
X91281952Y-72619999D02*
G75*
G02*
X91534211Y-72688298I-2J-500009D01*
G01*
X89693047Y-69619999D02*
G75*
G02*
X89440789Y-69551700I3J500009D01*
G01*
X89440790Y-72688298D02*
G75*
G02*
X89693048Y-72620000I252260J-431712D01*
G01*
X89440789Y-72688296D02*
G75*
G02*
X88738020Y-72039721I-252259J431696D01*
G01*
X88787501Y-71822842D02*
G75*
G02*
X88738017Y-72039719I-500361J82D01*
G01*
X88738016Y-70200279D02*
G75*
G02*
X89440789Y-69551700I450514J216879D01*
G01*
X88738016Y-70200279D02*
G75*
G02*
X88787476Y-70417157I-450516J-216821D01*
G01*
X92187499Y-70417157D02*
X92187499Y-71822841D01*
X91281952Y-72619999D02*
X89693048Y-72619999D01*
X89693048Y-69620000D02*
X91281953Y-69620000D01*
X88787501Y-71822841D02*
X88787501Y-70417157D01*
G04 #@! TO.C,LED47*
X139861984Y-91089719D02*
G75*
G02*
X139812499Y-90872841I450505J216876D01*
G01*
X139861984Y-91089718D02*
G75*
G02*
X139159211Y-91738298I-450514J-216880D01*
G01*
X139812499Y-89467156D02*
G75*
G02*
X139861984Y-89250279I499990J1D01*
G01*
X139159211Y-88601701D02*
G75*
G02*
X139861985Y-89250279I252259J-431700D01*
G01*
X139159211Y-88601701D02*
G75*
G02*
X138906953Y-88670000I-252261J431710D01*
G01*
X138906952Y-91669999D02*
G75*
G02*
X139159211Y-91738298I-2J-500009D01*
G01*
X137318047Y-88669999D02*
G75*
G02*
X137065789Y-88601700I3J500009D01*
G01*
X137065790Y-91738298D02*
G75*
G02*
X137318048Y-91670000I252260J-431712D01*
G01*
X137065789Y-91738296D02*
G75*
G02*
X136363020Y-91089721I-252259J431696D01*
G01*
X136412501Y-90872842D02*
G75*
G02*
X136363017Y-91089719I-500361J82D01*
G01*
X136363016Y-89250279D02*
G75*
G02*
X137065789Y-88601700I450514J216879D01*
G01*
X136363016Y-89250279D02*
G75*
G02*
X136412476Y-89467157I-450516J-216821D01*
G01*
X139812499Y-89467157D02*
X139812499Y-90872841D01*
X138906952Y-91669999D02*
X137318048Y-91669999D01*
X137318048Y-88670000D02*
X138906953Y-88670000D01*
X136412501Y-90872841D02*
X136412501Y-89467157D01*
G04 #@! TO.C,LED27*
X277974484Y-52989719D02*
G75*
G02*
X277924999Y-52772841I450505J216876D01*
G01*
X277974484Y-52989718D02*
G75*
G02*
X277271711Y-53638298I-450514J-216880D01*
G01*
X277924999Y-51367156D02*
G75*
G02*
X277974484Y-51150279I499990J1D01*
G01*
X277271711Y-50501701D02*
G75*
G02*
X277974485Y-51150279I252259J-431700D01*
G01*
X277271711Y-50501701D02*
G75*
G02*
X277019453Y-50570000I-252261J431710D01*
G01*
X277019452Y-53569999D02*
G75*
G02*
X277271711Y-53638298I-2J-500009D01*
G01*
X275430547Y-50569999D02*
G75*
G02*
X275178289Y-50501700I3J500009D01*
G01*
X275178290Y-53638298D02*
G75*
G02*
X275430548Y-53570000I252260J-431712D01*
G01*
X275178289Y-53638296D02*
G75*
G02*
X274475520Y-52989721I-252259J431696D01*
G01*
X274525001Y-52772842D02*
G75*
G02*
X274475517Y-52989719I-500361J82D01*
G01*
X274475516Y-51150279D02*
G75*
G02*
X275178289Y-50501700I450514J216879D01*
G01*
X274475516Y-51150279D02*
G75*
G02*
X274524976Y-51367157I-450516J-216821D01*
G01*
X277924999Y-51367157D02*
X277924999Y-52772841D01*
X277019452Y-53569999D02*
X275430548Y-53569999D01*
X275430548Y-50570000D02*
X277019453Y-50570000D01*
X274525001Y-52772841D02*
X274525001Y-51367157D01*
G04 #@! TO.C,LED38*
X225586984Y-72039719D02*
G75*
G02*
X225537499Y-71822841I450505J216876D01*
G01*
X225586984Y-72039718D02*
G75*
G02*
X224884211Y-72688298I-450514J-216880D01*
G01*
X225537499Y-70417156D02*
G75*
G02*
X225586984Y-70200279I499990J1D01*
G01*
X224884211Y-69551701D02*
G75*
G02*
X225586985Y-70200279I252259J-431700D01*
G01*
X224884211Y-69551701D02*
G75*
G02*
X224631953Y-69620000I-252261J431710D01*
G01*
X224631952Y-72619999D02*
G75*
G02*
X224884211Y-72688298I-2J-500009D01*
G01*
X223043047Y-69619999D02*
G75*
G02*
X222790789Y-69551700I3J500009D01*
G01*
X222790790Y-72688298D02*
G75*
G02*
X223043048Y-72620000I252260J-431712D01*
G01*
X222790789Y-72688296D02*
G75*
G02*
X222088020Y-72039721I-252259J431696D01*
G01*
X222137501Y-71822842D02*
G75*
G02*
X222088017Y-72039719I-500361J82D01*
G01*
X222088016Y-70200279D02*
G75*
G02*
X222790789Y-69551700I450514J216879D01*
G01*
X222088016Y-70200279D02*
G75*
G02*
X222137476Y-70417157I-450516J-216821D01*
G01*
X225537499Y-70417157D02*
X225537499Y-71822841D01*
X224631952Y-72619999D02*
X223043048Y-72619999D01*
X223043048Y-69620000D02*
X224631953Y-69620000D01*
X222137501Y-71822841D02*
X222137501Y-70417157D01*
G04 #@! TO.C,LED61*
X256543234Y-110139719D02*
G75*
G02*
X256493749Y-109922841I450505J216876D01*
G01*
X256543234Y-110139718D02*
G75*
G02*
X255840461Y-110788298I-450514J-216880D01*
G01*
X256493749Y-108517156D02*
G75*
G02*
X256543234Y-108300279I499990J1D01*
G01*
X255840461Y-107651701D02*
G75*
G02*
X256543235Y-108300279I252259J-431700D01*
G01*
X255840461Y-107651701D02*
G75*
G02*
X255588203Y-107720000I-252261J431710D01*
G01*
X255588202Y-110719999D02*
G75*
G02*
X255840461Y-110788298I-2J-500009D01*
G01*
X253999297Y-107719999D02*
G75*
G02*
X253747039Y-107651700I3J500009D01*
G01*
X253747040Y-110788298D02*
G75*
G02*
X253999298Y-110720000I252260J-431712D01*
G01*
X253747039Y-110788296D02*
G75*
G02*
X253044270Y-110139721I-252259J431696D01*
G01*
X253093751Y-109922842D02*
G75*
G02*
X253044267Y-110139719I-500361J82D01*
G01*
X253044266Y-108300279D02*
G75*
G02*
X253747039Y-107651700I450514J216879D01*
G01*
X253044266Y-108300279D02*
G75*
G02*
X253093726Y-108517157I-450516J-216821D01*
G01*
X256493749Y-108517157D02*
X256493749Y-109922841D01*
X255588202Y-110719999D02*
X253999298Y-110719999D01*
X253999298Y-107720000D02*
X255588203Y-107720000D01*
X253093751Y-109922841D02*
X253093751Y-108517157D01*
G04 #@! TO.C,LED56*
X42230734Y-110139719D02*
G75*
G02*
X42181249Y-109922841I450505J216876D01*
G01*
X42230734Y-110139718D02*
G75*
G02*
X41527961Y-110788298I-450514J-216880D01*
G01*
X42181249Y-108517156D02*
G75*
G02*
X42230734Y-108300279I499990J1D01*
G01*
X41527961Y-107651701D02*
G75*
G02*
X42230735Y-108300279I252259J-431700D01*
G01*
X41527961Y-107651701D02*
G75*
G02*
X41275703Y-107720000I-252261J431710D01*
G01*
X41275702Y-110719999D02*
G75*
G02*
X41527961Y-110788298I-2J-500009D01*
G01*
X39686797Y-107719999D02*
G75*
G02*
X39434539Y-107651700I3J500009D01*
G01*
X39434540Y-110788298D02*
G75*
G02*
X39686798Y-110720000I252260J-431712D01*
G01*
X39434539Y-110788296D02*
G75*
G02*
X38731770Y-110139721I-252259J431696D01*
G01*
X38781251Y-109922842D02*
G75*
G02*
X38731767Y-110139719I-500361J82D01*
G01*
X38731766Y-108300279D02*
G75*
G02*
X39434539Y-107651700I450514J216879D01*
G01*
X38731766Y-108300279D02*
G75*
G02*
X38781226Y-108517157I-450516J-216821D01*
G01*
X42181249Y-108517157D02*
X42181249Y-109922841D01*
X41275702Y-110719999D02*
X39686798Y-110719999D01*
X39686798Y-107720000D02*
X41275703Y-107720000D01*
X38781251Y-109922841D02*
X38781251Y-108517157D01*
G04 #@! TO.C,LED58*
X89855734Y-110139719D02*
G75*
G02*
X89806249Y-109922841I450505J216876D01*
G01*
X89855734Y-110139718D02*
G75*
G02*
X89152961Y-110788298I-450514J-216880D01*
G01*
X89806249Y-108517156D02*
G75*
G02*
X89855734Y-108300279I499990J1D01*
G01*
X89152961Y-107651701D02*
G75*
G02*
X89855735Y-108300279I252259J-431700D01*
G01*
X89152961Y-107651701D02*
G75*
G02*
X88900703Y-107720000I-252261J431710D01*
G01*
X88900702Y-110719999D02*
G75*
G02*
X89152961Y-110788298I-2J-500009D01*
G01*
X87311797Y-107719999D02*
G75*
G02*
X87059539Y-107651700I3J500009D01*
G01*
X87059540Y-110788298D02*
G75*
G02*
X87311798Y-110720000I252260J-431712D01*
G01*
X87059539Y-110788296D02*
G75*
G02*
X86356770Y-110139721I-252259J431696D01*
G01*
X86406251Y-109922842D02*
G75*
G02*
X86356767Y-110139719I-500361J82D01*
G01*
X86356766Y-108300279D02*
G75*
G02*
X87059539Y-107651700I450514J216879D01*
G01*
X86356766Y-108300279D02*
G75*
G02*
X86406226Y-108517157I-450516J-216821D01*
G01*
X89806249Y-108517157D02*
X89806249Y-109922841D01*
X88900702Y-110719999D02*
X87311798Y-110719999D01*
X87311798Y-107720000D02*
X88900703Y-107720000D01*
X86406251Y-109922841D02*
X86406251Y-108517157D01*
G04 #@! TO.C,LED39*
X244636984Y-72039719D02*
G75*
G02*
X244587499Y-71822841I450505J216876D01*
G01*
X244636984Y-72039718D02*
G75*
G02*
X243934211Y-72688298I-450514J-216880D01*
G01*
X244587499Y-70417156D02*
G75*
G02*
X244636984Y-70200279I499990J1D01*
G01*
X243934211Y-69551701D02*
G75*
G02*
X244636985Y-70200279I252259J-431700D01*
G01*
X243934211Y-69551701D02*
G75*
G02*
X243681953Y-69620000I-252261J431710D01*
G01*
X243681952Y-72619999D02*
G75*
G02*
X243934211Y-72688298I-2J-500009D01*
G01*
X242093047Y-69619999D02*
G75*
G02*
X241840789Y-69551700I3J500009D01*
G01*
X241840790Y-72688298D02*
G75*
G02*
X242093048Y-72620000I252260J-431712D01*
G01*
X241840789Y-72688296D02*
G75*
G02*
X241138020Y-72039721I-252259J431696D01*
G01*
X241187501Y-71822842D02*
G75*
G02*
X241138017Y-72039719I-500361J82D01*
G01*
X241138016Y-70200279D02*
G75*
G02*
X241840789Y-69551700I450514J216879D01*
G01*
X241138016Y-70200279D02*
G75*
G02*
X241187476Y-70417157I-450516J-216821D01*
G01*
X244587499Y-70417157D02*
X244587499Y-71822841D01*
X243681952Y-72619999D02*
X242093048Y-72619999D01*
X242093048Y-69620000D02*
X243681953Y-69620000D01*
X241187501Y-71822841D02*
X241187501Y-70417157D01*
G04 #@! TO.C,LED22*
X182724484Y-52989719D02*
G75*
G02*
X182674999Y-52772841I450505J216876D01*
G01*
X182724484Y-52989718D02*
G75*
G02*
X182021711Y-53638298I-450514J-216880D01*
G01*
X182674999Y-51367156D02*
G75*
G02*
X182724484Y-51150279I499990J1D01*
G01*
X182021711Y-50501701D02*
G75*
G02*
X182724485Y-51150279I252259J-431700D01*
G01*
X182021711Y-50501701D02*
G75*
G02*
X181769453Y-50570000I-252261J431710D01*
G01*
X181769452Y-53569999D02*
G75*
G02*
X182021711Y-53638298I-2J-500009D01*
G01*
X180180547Y-50569999D02*
G75*
G02*
X179928289Y-50501700I3J500009D01*
G01*
X179928290Y-53638298D02*
G75*
G02*
X180180548Y-53570000I252260J-431712D01*
G01*
X179928289Y-53638296D02*
G75*
G02*
X179225520Y-52989721I-252259J431696D01*
G01*
X179275001Y-52772842D02*
G75*
G02*
X179225517Y-52989719I-500361J82D01*
G01*
X179225516Y-51150279D02*
G75*
G02*
X179928289Y-50501700I450514J216879D01*
G01*
X179225516Y-51150279D02*
G75*
G02*
X179274976Y-51367157I-450516J-216821D01*
G01*
X182674999Y-51367157D02*
X182674999Y-52772841D01*
X181769452Y-53569999D02*
X180180548Y-53569999D01*
X180180548Y-50570000D02*
X181769453Y-50570000D01*
X179275001Y-52772841D02*
X179275001Y-51367157D01*
G04 #@! TO.C,LED46*
X120811984Y-91089719D02*
G75*
G02*
X120762499Y-90872841I450505J216876D01*
G01*
X120811984Y-91089718D02*
G75*
G02*
X120109211Y-91738298I-450514J-216880D01*
G01*
X120762499Y-89467156D02*
G75*
G02*
X120811984Y-89250279I499990J1D01*
G01*
X120109211Y-88601701D02*
G75*
G02*
X120811985Y-89250279I252259J-431700D01*
G01*
X120109211Y-88601701D02*
G75*
G02*
X119856953Y-88670000I-252261J431710D01*
G01*
X119856952Y-91669999D02*
G75*
G02*
X120109211Y-91738298I-2J-500009D01*
G01*
X118268047Y-88669999D02*
G75*
G02*
X118015789Y-88601700I3J500009D01*
G01*
X118015790Y-91738298D02*
G75*
G02*
X118268048Y-91670000I252260J-431712D01*
G01*
X118015789Y-91738296D02*
G75*
G02*
X117313020Y-91089721I-252259J431696D01*
G01*
X117362501Y-90872842D02*
G75*
G02*
X117313017Y-91089719I-500361J82D01*
G01*
X117313016Y-89250279D02*
G75*
G02*
X118015789Y-88601700I450514J216879D01*
G01*
X117313016Y-89250279D02*
G75*
G02*
X117362476Y-89467157I-450516J-216821D01*
G01*
X120762499Y-89467157D02*
X120762499Y-90872841D01*
X119856952Y-91669999D02*
X118268048Y-91669999D01*
X118268048Y-88670000D02*
X119856953Y-88670000D01*
X117362501Y-90872841D02*
X117362501Y-89467157D01*
G04 #@! TO.C,LED57*
X66043234Y-110139719D02*
G75*
G02*
X65993749Y-109922841I450505J216876D01*
G01*
X66043234Y-110139718D02*
G75*
G02*
X65340461Y-110788298I-450514J-216880D01*
G01*
X65993749Y-108517156D02*
G75*
G02*
X66043234Y-108300279I499990J1D01*
G01*
X65340461Y-107651701D02*
G75*
G02*
X66043235Y-108300279I252259J-431700D01*
G01*
X65340461Y-107651701D02*
G75*
G02*
X65088203Y-107720000I-252261J431710D01*
G01*
X65088202Y-110719999D02*
G75*
G02*
X65340461Y-110788298I-2J-500009D01*
G01*
X63499297Y-107719999D02*
G75*
G02*
X63247039Y-107651700I3J500009D01*
G01*
X63247040Y-110788298D02*
G75*
G02*
X63499298Y-110720000I252260J-431712D01*
G01*
X63247039Y-110788296D02*
G75*
G02*
X62544270Y-110139721I-252259J431696D01*
G01*
X62593751Y-109922842D02*
G75*
G02*
X62544267Y-110139719I-500361J82D01*
G01*
X62544266Y-108300279D02*
G75*
G02*
X63247039Y-107651700I450514J216879D01*
G01*
X62544266Y-108300279D02*
G75*
G02*
X62593726Y-108517157I-450516J-216821D01*
G01*
X65993749Y-108517157D02*
X65993749Y-109922841D01*
X65088202Y-110719999D02*
X63499298Y-110719999D01*
X63499298Y-107720000D02*
X65088203Y-107720000D01*
X62593751Y-109922841D02*
X62593751Y-108517157D01*
G04 #@! TO.C,LED34*
X149386984Y-72039719D02*
G75*
G02*
X149337499Y-71822841I450505J216876D01*
G01*
X149386984Y-72039718D02*
G75*
G02*
X148684211Y-72688298I-450514J-216880D01*
G01*
X149337499Y-70417156D02*
G75*
G02*
X149386984Y-70200279I499990J1D01*
G01*
X148684211Y-69551701D02*
G75*
G02*
X149386985Y-70200279I252259J-431700D01*
G01*
X148684211Y-69551701D02*
G75*
G02*
X148431953Y-69620000I-252261J431710D01*
G01*
X148431952Y-72619999D02*
G75*
G02*
X148684211Y-72688298I-2J-500009D01*
G01*
X146843047Y-69619999D02*
G75*
G02*
X146590789Y-69551700I3J500009D01*
G01*
X146590790Y-72688298D02*
G75*
G02*
X146843048Y-72620000I252260J-431712D01*
G01*
X146590789Y-72688296D02*
G75*
G02*
X145888020Y-72039721I-252259J431696D01*
G01*
X145937501Y-71822842D02*
G75*
G02*
X145888017Y-72039719I-500361J82D01*
G01*
X145888016Y-70200279D02*
G75*
G02*
X146590789Y-69551700I450514J216879D01*
G01*
X145888016Y-70200279D02*
G75*
G02*
X145937476Y-70417157I-450516J-216821D01*
G01*
X149337499Y-70417157D02*
X149337499Y-71822841D01*
X148431952Y-72619999D02*
X146843048Y-72619999D01*
X146843048Y-69620000D02*
X148431953Y-69620000D01*
X145937501Y-71822841D02*
X145937501Y-70417157D01*
G04 #@! TO.C,LED30*
X73186984Y-72039719D02*
G75*
G02*
X73137499Y-71822841I450505J216876D01*
G01*
X73186984Y-72039718D02*
G75*
G02*
X72484211Y-72688298I-450514J-216880D01*
G01*
X73137499Y-70417156D02*
G75*
G02*
X73186984Y-70200279I499990J1D01*
G01*
X72484211Y-69551701D02*
G75*
G02*
X73186985Y-70200279I252259J-431700D01*
G01*
X72484211Y-69551701D02*
G75*
G02*
X72231953Y-69620000I-252261J431710D01*
G01*
X72231952Y-72619999D02*
G75*
G02*
X72484211Y-72688298I-2J-500009D01*
G01*
X70643047Y-69619999D02*
G75*
G02*
X70390789Y-69551700I3J500009D01*
G01*
X70390790Y-72688298D02*
G75*
G02*
X70643048Y-72620000I252260J-431712D01*
G01*
X70390789Y-72688296D02*
G75*
G02*
X69688020Y-72039721I-252259J431696D01*
G01*
X69737501Y-71822842D02*
G75*
G02*
X69688017Y-72039719I-500361J82D01*
G01*
X69688016Y-70200279D02*
G75*
G02*
X70390789Y-69551700I450514J216879D01*
G01*
X69688016Y-70200279D02*
G75*
G02*
X69737476Y-70417157I-450516J-216821D01*
G01*
X73137499Y-70417157D02*
X73137499Y-71822841D01*
X72231952Y-72619999D02*
X70643048Y-72619999D01*
X70643048Y-69620000D02*
X72231953Y-69620000D01*
X69737501Y-71822841D02*
X69737501Y-70417157D01*
G04 #@! TD*
M02*
